<svg width="61" height="24" viewBox="0 0 61 24" fill="none" xmlns="http://www.w3.org/2000/svg">
<g clip-path="url(#clip0_7382_2710)">
<path d="M11.6885 20C16.0087 20.0209 19.9519 16.4336 19.9519 12.0695C19.9519 7.29714 16.0087 3.99841 11.6885 4H7.97046C3.59853 3.99841 0 7.29813 0 12.0695C0 16.4346 3.59853 20.021 7.97046 20H11.6885Z" fill="#0079BE"/>
<path d="M7.98801 4.66113C3.99306 4.6624 0.755824 7.94018 0.754883 11.9856C0.755824 16.0303 3.99303 19.3078 7.98801 19.3091C11.9839 19.3078 15.2218 16.0303 15.2224 11.9856C15.2218 7.94018 11.9839 4.6624 7.98801 4.66113ZM3.40313 11.9856C3.40689 10.0088 4.62658 8.32307 6.3465 7.6532V16.317C4.62658 15.6475 3.40686 13.9627 3.40313 11.9856ZM9.62889 16.3189V7.65291C11.3494 8.32116 12.571 10.0078 12.5741 11.9856C12.571 13.964 11.3494 15.6494 9.62889 16.3189Z" fill="white"/>
<path d="M22.4854 7.44227C22.4854 6.68541 22.0956 6.73525 21.7217 6.72703V6.5083C22.0457 6.52449 22.3778 6.52449 22.7024 6.52449C23.0515 6.52449 23.5254 6.5083 24.1407 6.5083C26.2928 6.5083 27.4648 7.96354 27.4648 9.45367C27.4648 10.287 26.9831 12.3819 24.0407 12.3819C23.6169 12.3819 23.2259 12.3654 22.8354 12.3654C22.4616 12.3654 22.0956 12.3737 21.7217 12.3819V12.1635C22.2201 12.1127 22.4616 12.0959 22.4854 11.5235V7.44227H22.4854ZM23.3002 11.3892C23.3002 12.0372 23.7578 12.1127 24.1649 12.1127C25.9607 12.1127 26.5503 10.741 26.5503 9.487C26.5503 7.91398 25.5527 6.77811 23.9488 6.77811C23.6076 6.77811 23.4508 6.80287 23.3002 6.81179L23.3002 11.3892Z" fill="#272E36"/>
<path d="M27.7568 12.1633H27.9143C28.1467 12.1633 28.3132 12.1633 28.3132 11.8849V9.60491C28.3132 9.2351 28.1887 9.18364 27.8811 9.01634V8.88142C28.2715 8.76269 28.7376 8.60396 28.7702 8.57856C28.8288 8.54491 28.8784 8.53602 28.9201 8.53602C28.9612 8.53602 28.9784 8.58682 28.9784 8.65444V11.8849C28.9784 12.1633 29.1613 12.1633 29.394 12.1633H29.5351V12.3821C29.2522 12.3821 28.9612 12.3653 28.6626 12.3653C28.3634 12.3653 28.0639 12.3735 27.7569 12.3821V12.1633H27.7568ZM28.646 7.24044C28.4296 7.24044 28.2389 7.03856 28.2389 6.8198C28.2389 6.60901 28.4384 6.41504 28.646 6.41504C28.8614 6.41504 29.0534 6.59253 29.0534 6.8198C29.0534 7.0471 28.8699 7.24044 28.646 7.24044Z" fill="#272E36"/>
<path d="M30.324 9.65518C30.324 9.34407 30.2321 9.26026 29.8423 9.10026V8.94061C30.1995 8.82283 30.5398 8.71331 30.939 8.53616C30.9638 8.53616 30.9882 8.55331 30.9882 8.62029V9.16756C31.4628 8.82283 31.8702 8.53613 32.4277 8.53613C33.1334 8.53613 33.3827 9.05801 33.3827 9.7142V11.885C33.3827 12.1634 33.5655 12.1634 33.7986 12.1634H33.9482V12.3822C33.6565 12.3822 33.3658 12.3654 33.0672 12.3654C32.7677 12.3654 32.4681 12.3736 32.1693 12.3822V12.1634H32.3186C32.5519 12.1634 32.7172 12.1634 32.7172 11.885V9.70626C32.7172 9.22594 32.4277 8.9907 31.9532 8.9907C31.6876 8.9907 31.2635 9.20947 30.9882 9.39483V11.885C30.9882 12.1634 31.1719 12.1634 31.405 12.1634H31.5543V12.3821C31.2635 12.3821 30.9722 12.3653 30.673 12.3653C30.3741 12.3653 30.0743 12.3736 29.7754 12.3821V12.1634H29.9253C30.158 12.1634 30.3239 12.1634 30.3239 11.885V9.65518H30.324Z" fill="#272E36"/>
<path d="M34.5803 10.0596C34.563 10.1355 34.563 10.2615 34.5803 10.5479C34.6293 11.3469 35.1376 12.0031 35.8015 12.0031C36.2591 12.0031 36.6173 11.7508 36.9243 11.4397L37.0403 11.5578C36.6577 12.0708 36.1841 12.5082 35.503 12.5082C34.181 12.5082 33.915 11.212 33.915 10.6739C33.915 9.02439 35.0121 8.53613 35.5936 8.53613C36.2672 8.53613 36.9908 8.96505 36.9986 9.85709C36.9986 9.9082 36.9986 9.95804 36.9908 10.0091L36.9155 10.0596H34.5803ZM36.0518 9.79013C36.2591 9.79013 36.2836 9.68061 36.2836 9.57997C36.2836 9.15074 36.0261 8.80566 35.5604 8.80566C35.0539 8.80566 34.7048 9.18375 34.605 9.79013H36.0518Z" fill="#272E36"/>
<path d="M37.1904 12.1635H37.415C37.647 12.1635 37.8133 12.1635 37.8133 11.885V9.52089C37.8133 9.26026 37.5062 9.20947 37.3811 9.14216V9.01645C37.988 8.75518 38.3207 8.53613 38.3963 8.53613C38.4455 8.53613 38.47 8.56153 38.47 8.64597V9.40312H38.4876C38.6949 9.07518 39.0446 8.53613 39.5511 8.53613C39.759 8.53613 40.0247 8.67899 40.0247 8.98216C40.0247 9.20947 39.8672 9.41201 39.6345 9.41201C39.3758 9.41201 39.3758 9.20947 39.0854 9.20947C38.9439 9.20947 38.4788 9.40312 38.4788 9.9082V11.885C38.4788 12.1634 38.6447 12.1634 38.8777 12.1634H39.3428V12.3822C38.8856 12.3736 38.5378 12.3654 38.1796 12.3654C37.839 12.3654 37.4896 12.3736 37.1905 12.3822V12.1635H37.1904Z" fill="#272E36"/>
<path d="M40.3902 11.212C40.4984 11.7675 40.8305 12.239 41.4377 12.239C41.9269 12.239 42.1101 11.9361 42.1101 11.6415C42.1101 10.6485 40.2986 10.9682 40.2986 9.61359C40.2986 9.14216 40.673 8.53613 41.5869 8.53613C41.8526 8.53613 42.2098 8.61232 42.5337 8.78089L42.5927 9.63839H42.4011C42.3183 9.10883 42.0276 8.80569 41.495 8.80569C41.1626 8.80569 40.8471 8.99937 40.8471 9.36093C40.8471 10.3463 42.7753 10.0425 42.7753 11.3635C42.7753 11.9187 42.3346 12.5082 41.3454 12.5082C41.013 12.5082 40.6225 12.3904 40.3318 12.2225L40.2402 11.2546L40.3902 11.212Z" fill="#272E36"/>
<path d="M50.2809 8.03119H50.0736C49.9155 7.04706 49.2256 6.65119 48.295 6.65119C47.3385 6.65119 45.9504 7.29878 45.9504 9.31817C45.9504 11.0191 47.1481 12.2388 48.4277 12.2388C49.2503 12.2388 49.9324 11.6667 50.0987 10.7829L50.2894 10.8331L50.0987 12.0616C49.7496 12.281 48.8103 12.508 48.2611 12.508C46.3167 12.508 45.0869 11.2373 45.0869 9.34389C45.0869 7.61881 46.6077 6.38135 48.2366 6.38135C48.9097 6.38135 49.558 6.60103 50.1981 6.82833L50.2809 8.03119Z" fill="#272E36"/>
<path d="M50.5811 12.1635H50.7386C50.9716 12.1635 51.1384 12.1635 51.1384 11.885V7.1987C51.1384 6.6514 51.0136 6.63454 50.6974 6.54216V6.40756C51.0299 6.29838 51.3789 6.14661 51.5537 6.04537C51.6443 5.99521 51.7114 5.95264 51.7358 5.95264C51.7867 5.95264 51.8033 6.00346 51.8033 6.07105V11.885C51.8033 12.1635 51.9858 12.1635 52.2188 12.1635H52.3591V12.3822C52.0777 12.3822 51.7867 12.3654 51.4871 12.3654C51.1883 12.3654 50.8891 12.3737 50.5811 12.3822V12.1635H50.5811Z" fill="#272E36"/>
<path d="M55.9181 11.9186C55.9181 12.0706 56.0091 12.0789 56.1502 12.0789C56.2502 12.0789 56.3744 12.0706 56.4829 12.0706V12.2478C56.1251 12.2811 55.4436 12.4579 55.2855 12.5081L55.2438 12.4827V11.8017C54.7458 12.2138 54.3628 12.5081 53.7723 12.5081C53.3235 12.5081 52.8581 12.2138 52.8581 11.5074V9.3525C52.8581 9.13377 52.8251 8.92326 52.3604 8.88139V8.72139C52.6599 8.71314 53.3235 8.66263 53.432 8.66263C53.5242 8.66263 53.5242 8.72139 53.5242 8.90647V11.0769C53.5242 11.33 53.5242 12.0534 54.2468 12.0534C54.5294 12.0534 54.9032 11.8347 55.252 11.541V9.27628C55.252 9.10866 54.8534 9.01628 54.5548 8.9318V8.78038C55.3019 8.72958 55.7682 8.6626 55.8507 8.6626C55.9181 8.6626 55.9181 8.72133 55.9181 8.81434V11.9186H55.9181Z" fill="#272E36"/>
<path d="M57.5718 9.14219C57.9039 8.85613 58.3526 8.53616 58.8102 8.53616C59.7746 8.53616 60.3558 9.38695 60.3558 10.3034C60.3558 11.4057 59.5582 12.5082 58.3689 12.5082C57.7542 12.5082 57.4302 12.306 57.2138 12.2139L56.9648 12.4069L56.7908 12.3149C56.8645 11.8184 56.9068 11.3301 56.9068 10.8171V7.19867C56.9068 6.6514 56.7814 6.63454 56.4658 6.54216V6.40756C56.7992 6.29838 57.1473 6.14661 57.322 6.04534C57.4136 5.99518 57.4798 5.95264 57.5055 5.95264C57.5551 5.95264 57.5717 6.00346 57.5717 6.07105V9.14216H57.5718V9.14219ZM57.5718 11.4308C57.5718 11.7508 57.8706 12.2898 58.4276 12.2898C59.317 12.2898 59.6909 11.4057 59.6909 10.6565C59.6909 9.74794 59.01 8.9908 58.3614 8.9908C58.0531 8.9908 57.7959 9.19302 57.5717 9.38695V11.4308H57.5718Z" fill="#272E36"/>
<path d="M21.7119 17.2744H21.7756C21.938 17.2744 22.1099 17.2522 22.1099 17.0138V14.615C22.1099 14.3763 21.938 14.3538 21.7756 14.3538H21.7119V14.2163C21.8885 14.2163 22.1598 14.2344 22.3821 14.2344C22.6079 14.2344 22.8789 14.2163 23.0915 14.2163V14.3538H23.0279C22.8657 14.3538 22.6936 14.3763 22.6936 14.615V17.0138C22.6936 17.2522 22.8657 17.2744 23.0279 17.2744H23.0915V17.4125C22.8745 17.4125 22.6026 17.3944 22.3771 17.3944C22.1554 17.3944 21.8885 17.4125 21.7119 17.4125V17.2744Z" fill="#272E36"/>
<path d="M23.0924 17.4322C22.8738 17.4322 22.6029 17.4138 22.3777 17.4138C22.1566 17.4138 21.8906 17.4322 21.7128 17.4322H21.6934V17.4125V17.2751V17.2551H21.7128H21.7762C21.9401 17.2512 22.0895 17.2379 22.091 17.0141V14.6153C22.0895 14.3915 21.9402 14.3766 21.7762 14.3734H21.6934V14.3541V14.1963H21.7128C21.8906 14.1963 22.1616 14.2144 22.3827 14.2144C22.6079 14.2144 22.8785 14.1963 23.0924 14.1963H23.1125V14.2172V14.3734H23.0924H23.0291C22.865 14.3766 22.7148 14.3915 22.7139 14.6153V17.0141C22.7148 17.2379 22.865 17.2512 23.0291 17.2551H23.1125V17.2751V17.4322H23.0924ZM23.073 17.3931V17.2953H23.0291C22.8676 17.2953 22.6753 17.2671 22.6743 17.0141V14.6153C22.6753 14.3623 22.8675 14.3337 23.0291 14.3337H23.073V14.2366C22.8641 14.2366 22.6022 14.2544 22.3827 14.2544C22.1678 14.2544 21.9078 14.2379 21.7328 14.2366V14.3337H21.7761C21.9373 14.3337 22.1302 14.3623 22.1302 14.6153V17.0141C22.1302 17.2671 21.9373 17.2953 21.7761 17.2953H21.7328V17.3931C21.9078 17.3912 22.1634 17.3747 22.3777 17.3747C22.5978 17.3747 22.8597 17.3918 23.073 17.3931Z" fill="#272E36"/>
<path d="M26.1992 16.51L26.2083 16.5011V14.7843C26.2083 14.4084 25.9502 14.3538 25.8147 14.3538H25.715V14.2163C25.9279 14.2163 26.1358 14.2344 26.3482 14.2344C26.5335 14.2344 26.7198 14.2163 26.9049 14.2163V14.3538H26.8371C26.6467 14.3538 26.4341 14.3903 26.4341 14.9351V17.0189C26.4341 17.1789 26.4388 17.3389 26.461 17.4808H26.2889L23.9602 14.8526V16.7392C23.9602 17.1376 24.0364 17.2745 24.3852 17.2745H24.4617V17.4126C24.2676 17.4126 24.0734 17.3945 23.8787 17.3945C23.6757 17.3945 23.4675 17.4126 23.2637 17.4126V17.2745H23.327C23.6391 17.2745 23.7338 17.0598 23.7338 16.6938V14.7653C23.7338 14.5091 23.5253 14.3538 23.3227 14.3538H23.2637V14.2164C23.4355 14.2164 23.6118 14.2344 23.7834 14.2344C23.9191 14.2344 24.0506 14.2164 24.186 14.2164L26.1992 16.51Z" fill="#272E36"/>
<path d="M26.4607 17.5009L26.2741 17.4939L23.979 14.9044V16.7393C23.9843 17.1374 24.0442 17.2505 24.3848 17.2549H24.4817V17.2746V17.432H24.4617C24.266 17.432 24.0712 17.4136 23.8783 17.4136C23.6757 17.4136 23.4681 17.432 23.263 17.432H23.2432V17.4123V17.2549H23.263H23.3266C23.6255 17.2533 23.7108 17.059 23.7143 16.6939V14.7657C23.7136 14.5219 23.516 14.3739 23.3222 14.3733H23.2432V14.353V14.1968H23.2629C23.4358 14.1968 23.6129 14.2142 23.7826 14.2142C23.9171 14.2142 24.0483 14.1968 24.2007 14.2034L26.1884 16.4686V14.7847C26.1859 14.4203 25.946 14.3765 25.8143 14.3733H25.6945V14.353V14.1968H25.7145C25.9281 14.1968 26.1364 14.2142 26.3477 14.2142C26.5318 14.2142 26.7172 14.1968 26.9041 14.1968H26.9239V14.2165V14.3733H26.9041H26.8367C26.6501 14.3787 26.4584 14.3952 26.4531 14.9352V17.0187C26.4531 17.1787 26.4578 17.3387 26.4798 17.4774L26.4842 17.5009H26.4607V17.5009ZM26.2889 17.4606H26.4385C26.4181 17.3231 26.4146 17.1707 26.4146 17.0187V14.9352C26.4146 14.3856 26.642 14.3336 26.8368 14.3336H26.8844V14.2364C26.7063 14.2377 26.5275 14.2542 26.3479 14.2542C26.1409 14.2542 25.9395 14.2377 25.7347 14.2364L25.7344 14.3336H25.8144C25.9533 14.3336 26.2277 14.3964 26.2277 14.7847L26.2215 16.5148L26.2124 16.5244L26.197 16.5387L24.1857 14.2364C24.0515 14.2364 23.9204 14.2542 23.7827 14.2542C23.6168 14.2542 23.4471 14.2377 23.2831 14.2364L23.2822 14.3336H23.3223C23.5346 14.3336 23.7526 14.4977 23.7526 14.7656V16.6939C23.7526 17.0599 23.6519 17.2942 23.3267 17.2954L23.2831 17.2942V17.3929C23.4791 17.391 23.6805 17.3745 23.8783 17.3745C24.0672 17.3745 24.255 17.391 24.4419 17.3929V17.2954H24.3849C24.0289 17.2942 23.9405 17.1374 23.9401 16.7393V14.8012L26.2889 17.4606ZM26.1988 16.5098L26.2133 16.4964L26.1988 16.5098ZM26.1885 16.5009V16.4993L26.1847 16.4961L26.1885 16.5009Z" fill="#272E36"/>
<path d="M27.5814 14.445C27.2418 14.445 27.2289 14.5276 27.1612 14.8615H27.0254C27.0433 14.7336 27.0658 14.6056 27.0796 14.4723C27.0978 14.344 27.1066 14.2164 27.1066 14.0837H27.2154C27.2518 14.2212 27.3647 14.2164 27.4874 14.2164H29.8204C29.9427 14.2164 30.0556 14.212 30.065 14.0742L30.1729 14.0926C30.1553 14.2164 30.1371 14.3399 30.1233 14.4637C30.1152 14.5872 30.1152 14.711 30.1152 14.8342L29.9791 14.8853C29.9697 14.7161 29.9471 14.445 29.6444 14.445H28.9027V16.8812C28.9027 17.2342 29.0611 17.2745 29.2775 17.2745H29.3637V17.4126C29.1875 17.4126 28.8704 17.3945 28.6267 17.3945C28.3555 17.3945 28.0384 17.4126 27.8618 17.4126V17.2745H27.948C28.1974 17.2745 28.3235 17.252 28.3235 16.8907V14.445H27.5814Z" fill="#272E36"/>
<path d="M29.3646 17.4323C29.1864 17.4323 28.8699 17.4139 28.6269 17.4139C28.3559 17.4139 28.0395 17.4323 27.8619 17.4323H27.8431V17.4129V17.2551H27.8619H27.9482C28.1975 17.2491 28.2979 17.2459 28.3035 16.891V14.4653H27.5816V14.4453V14.425H28.3428V16.891C28.3428 17.2583 28.1966 17.2954 27.9482 17.2957H27.8817V17.3923C28.0602 17.3913 28.3644 17.3748 28.6269 17.3748C28.8628 17.3748 29.1651 17.3913 29.3439 17.3923V17.2957H29.2777C29.0591 17.2954 28.8831 17.2411 28.8831 16.8815V14.425H29.6446C29.9482 14.4262 29.9877 14.6875 29.9978 14.8573L30.0953 14.8208C30.0953 14.7015 30.0959 14.5818 30.1041 14.4611C30.1173 14.3434 30.1339 14.2265 30.1508 14.1097L30.0818 14.098C30.0608 14.2313 29.9338 14.238 29.8199 14.2367H27.4875H27.464C27.3576 14.2367 27.2413 14.2316 27.2008 14.1037H27.1262C27.1255 14.2304 27.1167 14.3532 27.0995 14.4751C27.0863 14.6009 27.0656 14.7218 27.0487 14.8428H27.1456C27.2052 14.5237 27.2441 14.4202 27.5815 14.425V14.4453V14.4653C27.2472 14.4713 27.2541 14.5285 27.1804 14.8669L27.177 14.8824H27.1613H27.0029L27.0054 14.8586C27.0236 14.7304 27.0466 14.6027 27.06 14.4694C27.0788 14.3424 27.0876 14.2154 27.0876 14.084V14.064H27.1067H27.2309L27.2341 14.0783C27.2651 14.1938 27.3489 14.1945 27.464 14.1964H27.4875H29.8199C29.946 14.1945 30.0376 14.1926 30.0454 14.0729L30.0473 14.0513L30.0677 14.0557L30.1953 14.0761L30.1925 14.0961C30.1743 14.2186 30.1564 14.3424 30.1433 14.4653C30.1342 14.5872 30.1342 14.711 30.1342 14.8345V14.8488L30.1216 14.8538L29.9614 14.9129L29.9601 14.8862C29.9482 14.7141 29.9303 14.4652 29.6446 14.4652H28.9226V16.8814C28.9267 17.2268 29.0622 17.2506 29.2776 17.2551H29.3836V17.2748V17.4322L29.3646 17.4323Z" fill="#272E36"/>
<path d="M30.3174 17.2744H30.381C30.5435 17.2744 30.7157 17.2522 30.7157 17.0138V14.615C30.7157 14.3763 30.5435 14.3538 30.381 14.3538H30.3174V14.2163C30.5927 14.2163 31.0638 14.2344 31.443 14.2344C31.8237 14.2344 32.2932 14.2163 32.6005 14.2163C32.5931 14.4128 32.5971 14.7157 32.6106 14.9167L32.4741 14.9535C32.4525 14.656 32.3983 14.4182 31.9231 14.4182H31.295V15.6173H31.8325C32.1038 15.6173 32.1631 15.4621 32.1897 15.2142H32.3252C32.3165 15.3935 32.3117 15.5719 32.3117 15.7503C32.3117 15.9246 32.3164 16.0983 32.3252 16.2722L32.1897 16.2995C32.1631 16.0249 32.1493 15.8465 31.8369 15.8465H31.295V16.9128C31.295 17.2109 31.5562 17.2109 31.846 17.2109C32.3889 17.2109 32.6282 17.1738 32.764 16.6525L32.8907 16.684C32.8314 16.9271 32.7775 17.1694 32.7373 17.4125C32.4476 17.4125 31.9272 17.3944 31.5208 17.3944C31.113 17.3944 30.5752 17.4125 30.3174 17.4125V17.2744Z" fill="#272E36"/>
<path d="M32.7375 17.432C32.4471 17.432 31.9271 17.4133 31.521 17.4133C31.1136 17.4133 30.576 17.432 30.3179 17.432H30.2988V17.4127V17.2746V17.2549H30.3179H30.3813C30.5453 17.2523 30.694 17.2377 30.6962 17.0139V14.6152C30.694 14.3917 30.5453 14.3767 30.3813 14.3733H30.2988V14.3539V14.1968H30.3179C30.5939 14.1968 31.0644 14.2142 31.4435 14.2142C31.8239 14.2142 32.2931 14.1968 32.6011 14.1968H32.6215L32.6205 14.2171C32.6174 14.286 32.6162 14.3672 32.6162 14.4536C32.6162 14.612 32.6205 14.785 32.6297 14.9155L32.6303 14.932L32.6152 14.9365L32.4562 14.9784L32.4553 14.9549C32.4287 14.6578 32.3895 14.4422 31.9237 14.4378H31.3144L31.3137 15.5968H31.8331C32.0935 15.5943 32.1401 15.4593 32.1709 15.2127L32.1725 15.1946H32.19H32.3459L32.3456 15.2152C32.3369 15.3936 32.3311 15.572 32.3311 15.7504C32.3311 15.9238 32.3369 16.0974 32.3456 16.2717L32.3459 16.2879L32.3296 16.2917L32.1725 16.3234L32.1709 16.3019C32.1398 16.0225 32.1376 15.8695 31.8372 15.866L31.3143 15.8657V16.913C31.3147 17.1911 31.5518 17.1895 31.8466 17.1911C32.391 17.1879 32.6093 17.1613 32.7458 16.6469L32.7502 16.6285L32.7693 16.632L32.9142 16.6698L32.9098 16.6888C32.8515 16.9314 32.7972 17.1733 32.7567 17.4158L32.753 17.432H32.7375ZM32.721 17.392C32.7602 17.1612 32.8118 16.9295 32.8674 16.699L32.778 16.6761C32.6425 17.1885 32.3803 17.2342 31.8465 17.2307C31.5618 17.2307 31.2764 17.2307 31.2751 16.9129V15.8266H31.8372C32.1529 15.8231 32.1853 16.0161 32.2075 16.2767L32.3054 16.2561C32.2966 16.0875 32.2925 15.9183 32.2925 15.7504C32.2925 15.578 32.2966 15.4066 32.3054 15.2342H32.2075C32.1825 15.4726 32.1087 15.6402 31.8331 15.6371H31.2751V14.3977H31.9237C32.3942 14.3945 32.4722 14.6402 32.4923 14.9282L32.5899 14.9015C32.582 14.7723 32.5767 14.6066 32.5767 14.4536C32.5767 14.3752 32.5786 14.3012 32.5811 14.2364C32.2738 14.2377 31.8158 14.2542 31.4436 14.2542C31.0719 14.2542 30.6144 14.2377 30.3374 14.2364V14.3336H30.3813C30.5425 14.3336 30.7351 14.3621 30.7357 14.6152V17.0139C30.735 17.2663 30.5425 17.2942 30.3813 17.2955H30.3374V17.392C30.6012 17.3917 31.1237 17.3746 31.521 17.3746C31.9199 17.3746 32.4292 17.3917 32.721 17.392Z" fill="#272E36"/>
<path d="M33.5013 14.7017C33.5013 14.3677 33.3207 14.3541 33.1799 14.3541H33.0986V14.2163C33.2435 14.2163 33.5236 14.2347 33.7996 14.2347C34.0709 14.2347 34.2882 14.2163 34.5275 14.2163C35.097 14.2163 35.6042 14.3722 35.6042 15.023C35.6042 15.4341 35.3329 15.6862 34.9757 15.8287L35.7488 17.0001C35.8754 17.1938 35.9655 17.2481 36.1875 17.2747V17.4128C36.0382 17.4128 35.8933 17.3947 35.7443 17.3947C35.6042 17.3947 35.4589 17.4128 35.3193 17.4128C34.9712 16.9503 34.6721 16.4557 34.3782 15.9287H34.0806V16.909C34.0806 17.262 34.2427 17.2747 34.4506 17.2747H34.5322V17.4128C34.2738 17.4128 34.0126 17.3948 33.7544 17.3948C33.5371 17.3948 33.3244 17.4128 33.0986 17.4128V17.2747H33.1799C33.3479 17.2747 33.5013 17.1979 33.5013 17.0281V14.7017ZM34.0805 15.7639H34.3014C34.7539 15.7639 34.9976 15.59 34.9976 15.0496C34.9976 14.6427 34.7401 14.3814 34.3371 14.3814C34.2013 14.3814 34.1436 14.3957 34.0805 14.3998V15.7639H34.0805Z" fill="#272E36"/>
<path d="M36.1878 17.4321C36.0363 17.4321 35.8924 17.4137 35.7437 17.4137C35.6057 17.4137 35.4615 17.4321 35.3037 17.4245C34.9568 16.9638 34.6595 16.4721 34.3672 15.9489H34.1V16.9083C34.1047 17.2528 34.2415 17.2499 34.4506 17.255H34.5519V17.2747V17.4321H34.5318C34.2734 17.4321 34.0109 17.4137 33.7541 17.4137C33.538 17.4137 33.326 17.4321 33.0989 17.4321H33.0791V17.4124V17.255H33.0989H33.1801C33.3432 17.254 33.4806 17.1823 33.4812 17.028V14.7017C33.4778 14.3766 33.3207 14.3785 33.1801 14.3737H33.0791V14.3541V14.1963H33.0989C33.2454 14.1963 33.5245 14.2144 33.7998 14.2144C34.0698 14.2144 34.2872 14.1963 34.5281 14.1963C35.098 14.1976 35.623 14.3569 35.6245 15.0217C35.6245 15.4353 35.3545 15.6934 35.0054 15.8376L35.7653 16.9893C35.8918 17.1791 35.9705 17.2264 36.1906 17.255L36.2072 17.2575V17.2747V17.4321H36.1878V17.4321ZM34.0803 15.9089H34.3895L34.3948 15.9191C34.6896 16.4451 34.9866 16.9391 35.3197 17.393C35.4577 17.393 35.6029 17.3743 35.7437 17.3743C35.8883 17.3743 36.0275 17.3902 36.1683 17.3924V17.2921C35.956 17.2654 35.8566 17.2013 35.7331 17.0111L34.9462 15.819L34.9684 15.8098C35.3222 15.6689 35.5841 15.4241 35.5844 15.0216C35.5841 14.3863 35.0967 14.2391 34.5281 14.2365C34.2894 14.2365 34.0724 14.2546 33.7998 14.2546C33.5342 14.2546 33.2661 14.2378 33.118 14.2365V14.3337H33.1801C33.3206 14.334 33.5207 14.3575 33.5207 14.7016V17.0279C33.5207 17.2117 33.3504 17.2956 33.1801 17.2959H33.118V17.3924C33.3357 17.3917 33.5417 17.3743 33.7541 17.3743C34.0071 17.3743 34.2621 17.3917 34.5124 17.3924V17.2959H34.4506C34.2443 17.2955 34.0605 17.2695 34.0605 16.9083V15.9089H34.0802H34.0803ZM34.0803 15.7832H34.0605V14.3813L34.0777 14.3797C34.1395 14.375 34.2007 14.3619 34.3374 14.3619C34.7496 14.3619 35.0174 14.633 35.018 15.0504C35.0167 15.5971 34.7577 15.7828 34.3016 15.7831H34.0803V15.7832ZM34.3016 15.7438C34.7495 15.74 34.9747 15.5826 34.9794 15.0505C34.9769 14.6505 34.7313 14.4022 34.3374 14.4006C34.2151 14.4006 34.1577 14.4121 34.1 14.4172V15.7438H34.3016Z" fill="#272E36"/>
<path d="M39.2584 16.51L39.2666 16.5011V14.7843C39.2666 14.4084 39.0091 14.3538 38.8736 14.3538H38.7745V14.2163C38.9869 14.2163 39.1945 14.2344 39.4074 14.2344C39.5931 14.2344 39.7778 14.2163 39.9644 14.2163V14.3538H39.8964C39.7063 14.3538 39.4937 14.3903 39.4937 14.9351V17.0189C39.4937 17.1789 39.4981 17.3389 39.5203 17.4808H39.3488L37.0198 14.8526V16.7392C37.0198 17.1376 37.0966 17.2745 37.4448 17.2745H37.5216V17.4126C37.3275 17.4126 37.1327 17.3945 36.9386 17.3945C36.7344 17.3945 36.5265 17.4126 36.3232 17.4126V17.2745H36.386C36.6984 17.2745 36.7934 17.0598 36.7934 16.6938V14.7653C36.7934 14.5091 36.5854 14.3538 36.3822 14.3538H36.3232V14.2164C36.4945 14.2164 36.6717 14.2344 36.8432 14.2344C36.9781 14.2344 37.1098 14.2164 37.2456 14.2164L39.2584 16.51Z" fill="#272E36"/>
<path d="M39.5205 17.5007L39.3342 17.4944L37.0388 14.9045V16.7391C37.0442 17.1376 37.1038 17.2505 37.445 17.255H37.5406V17.2747V17.4322H37.5209C37.3252 17.4322 37.1313 17.4134 36.9375 17.4134C36.7356 17.4134 36.5267 17.4322 36.3231 17.4322H36.3027V17.4128V17.255H36.3231H36.3858C36.6844 17.2537 36.77 17.0591 36.7729 16.6928V14.7655C36.7725 14.5217 36.5753 14.3737 36.3821 14.3734H36.3027V14.3541V14.1963H36.3231C36.4956 14.1963 36.6725 14.2144 36.8431 14.2144C36.9761 14.2144 37.1072 14.1963 37.259 14.2026L39.2471 16.4687V14.7842C39.2458 14.4204 39.0049 14.3753 38.8735 14.3734H38.754V14.3541V14.1963H38.7738C38.9877 14.1963 39.1959 14.2144 39.4073 14.2144C39.5917 14.2144 39.7771 14.1963 39.9634 14.1963H39.9831V14.2169V14.3734H39.9634H39.8962C39.7096 14.3785 39.5174 14.3953 39.5127 14.9353V17.0188C39.5127 17.1788 39.5168 17.3375 39.5397 17.4785L39.5422 17.5007H39.5205ZM39.3487 17.4607H39.4973C39.4775 17.3232 39.4731 17.1709 39.4731 17.0188V14.9353C39.4734 14.3857 39.7024 14.335 39.8962 14.3334H39.9436V14.2366C39.7661 14.2378 39.587 14.2544 39.4073 14.2544C39.1997 14.2544 38.998 14.2378 38.7932 14.2366V14.3334H38.8735C39.0127 14.335 39.2869 14.3966 39.2869 14.7842L39.2806 16.515L39.2718 16.5245L39.258 16.5391L37.2452 14.2366C37.1109 14.2366 36.9798 14.2544 36.8431 14.2544C36.6757 14.2544 36.5066 14.2379 36.342 14.2366V14.3334H36.3821C36.5944 14.335 36.8124 14.4972 36.8124 14.7655V16.6928C36.8124 17.0604 36.7102 17.2944 36.3859 17.2956L36.342 17.2953V17.3921C36.5374 17.3912 36.739 17.3747 36.9375 17.3747C37.1273 17.3747 37.3152 17.3912 37.5021 17.3921V17.2956H37.445C37.0887 17.2953 36.9997 17.1376 36.999 16.7391V14.802L39.3487 17.4607ZM39.2583 16.5099L39.2721 16.4969L39.2583 16.5099ZM39.247 16.5013V16.4997L39.2436 16.4963L39.247 16.5013Z" fill="#272E36"/>
<path d="M40.692 16.7578C40.6462 16.913 40.5917 17.033 40.5917 17.1146C40.5917 17.2524 40.782 17.2746 40.9307 17.2746H40.9812V17.4127C40.7999 17.4028 40.6152 17.3946 40.433 17.3946C40.2702 17.3946 40.1084 17.4029 39.9453 17.4127V17.2746H39.9726C40.1488 17.2746 40.2985 17.1695 40.3652 16.9768L41.0897 14.8758C41.1481 14.7063 41.2302 14.4774 41.2576 14.3076C41.4015 14.2578 41.5827 14.1663 41.6684 14.1111C41.6825 14.1064 41.6903 14.1016 41.7045 14.1016C41.718 14.1016 41.7267 14.1016 41.7367 14.1158C41.7499 14.152 41.7631 14.1936 41.7775 14.2301L42.6096 16.6251C42.6638 16.7851 42.7174 16.9543 42.7761 17.092C42.8307 17.2203 42.926 17.2746 43.0756 17.2746H43.1023V17.4127C42.8988 17.4028 42.6949 17.3946 42.4785 17.3946C42.2568 17.3946 42.03 17.4029 41.7995 17.4127V17.2746H41.8497C41.9532 17.2746 42.1301 17.2568 42.1301 17.1422C42.1301 17.0828 42.0893 16.9593 42.0388 16.8124L41.8628 16.2812H40.8364L40.692 16.7578ZM41.3519 14.7292H41.3428L40.9222 16.0251H41.7674L41.3519 14.7292Z" fill="#272E36"/>
<path d="M43.1002 17.432C42.8967 17.4228 42.6931 17.4132 42.4777 17.4132C42.2559 17.4132 42.0308 17.4228 41.7993 17.432L41.7789 17.4333V17.4126V17.2542H41.7987H41.8486C41.9533 17.2542 42.1088 17.2301 42.1088 17.1422C42.1101 17.0901 42.0693 16.9644 42.0194 16.8187L41.8473 16.3009H40.8497L40.7091 16.7634C40.6633 16.9196 40.6091 17.0406 40.6094 17.1152C40.611 17.227 40.78 17.2542 40.9299 17.2542H40.9996V17.2749V17.4333L40.9792 17.432C40.7982 17.4228 40.6135 17.4132 40.4332 17.4132C40.271 17.4132 40.108 17.4228 39.9458 17.432L39.9248 17.4333V17.4126V17.2542H39.9445H39.9715C40.1399 17.2536 40.2805 17.1568 40.3457 16.9705L41.0698 14.8692C41.1292 14.6993 41.2107 14.4711 41.2499 14.2885C41.3916 14.24 41.5732 14.1479 41.6604 14.092C41.673 14.0879 41.6855 14.0816 41.704 14.0816C41.715 14.0812 41.7394 14.0841 41.7539 14.1083C41.7668 14.146 41.7808 14.1867 41.7946 14.2238L42.6277 16.6185C42.681 16.7791 42.7349 16.9483 42.7939 17.0835C42.8463 17.2058 42.9294 17.2537 43.0749 17.2543H43.121V17.2749V17.4333L43.1002 17.432ZM41.8184 17.3911C42.0424 17.3831 42.2616 17.3742 42.4777 17.3742C42.6878 17.3742 42.8844 17.3831 43.081 17.3911V17.2955H43.0748C42.9199 17.2964 42.8129 17.2349 42.7574 17.0999C42.6984 16.9609 42.6432 16.7911 42.5903 16.6307L41.7576 14.2365C41.7438 14.1999 41.7306 14.1584 41.7187 14.126C41.7149 14.1215 41.7159 14.1215 41.7121 14.1215H41.7039C41.6945 14.1215 41.6892 14.1244 41.6776 14.1276C41.5904 14.185 41.4088 14.2749 41.2749 14.3107C41.247 14.4841 41.1658 14.7126 41.1068 14.8822L40.3829 16.9838C40.314 17.1825 40.1556 17.2958 39.9715 17.2955H39.9643V17.3911C40.1192 17.3831 40.276 17.3742 40.4331 17.3742C40.6078 17.3742 40.7866 17.3831 40.9591 17.3911V17.2955H40.9299C40.7829 17.2936 40.5771 17.2767 40.5714 17.1152C40.5718 17.0237 40.6273 16.9066 40.6715 16.752L40.6912 16.758L40.6715 16.7513L40.8204 16.2618H41.8749L42.0564 16.806C42.1073 16.953 42.1483 17.0749 42.1483 17.1422C42.1421 17.2828 41.9511 17.2926 41.8485 17.2955H41.8184V17.3911H41.8184ZM40.8939 16.0447L41.327 14.7091H41.342H41.3515V14.7291L41.3464 14.7301L41.3515 14.7291V14.7091H41.3649L41.7943 16.0447H40.8939ZM40.9481 16.005H41.7397L41.3461 14.778L40.9481 16.005ZM41.3317 14.7349L41.342 14.7314L41.3317 14.7349Z" fill="#272E36"/>
<path d="M43.3009 14.445C42.9615 14.445 42.9481 14.5276 42.8799 14.8615H42.7441C42.762 14.7336 42.7849 14.6056 42.7991 14.4723C42.8172 14.344 42.8254 14.2164 42.8254 14.0837H42.9345C42.9706 14.2212 43.0842 14.2164 43.2055 14.2164H45.5399C45.6613 14.2164 45.7742 14.212 45.7836 14.0742L45.8917 14.0926C45.8745 14.2164 45.8566 14.3399 45.8428 14.4637C45.8331 14.5872 45.8331 14.711 45.8331 14.8342L45.6976 14.8853C45.6891 14.7161 45.6666 14.445 45.3633 14.445H44.6216V16.8812C44.6216 17.2342 44.7803 17.2745 44.9967 17.2745H45.0826V17.4126C44.9063 17.4126 44.5902 17.3945 44.3455 17.3945C44.0746 17.3945 43.7575 17.4126 43.5813 17.4126V17.2745H43.6669C43.9162 17.2745 44.0429 17.252 44.0429 16.8907V14.445H43.3009Z" fill="#272E36"/>
<path d="M45.0821 17.4323C44.9046 17.4323 44.5878 17.4138 44.3451 17.4138C44.0747 17.4138 43.7579 17.4323 43.5807 17.4323H43.5607V17.4129V17.2551H43.5807H43.6663C43.9156 17.2491 44.0158 17.2459 44.022 16.891L44.0214 14.4653H43.3003V14.4452V14.4249H44.0612V16.891C44.0612 17.2583 43.9147 17.2944 43.6663 17.2954H43.5999V17.3932C43.7789 17.3912 44.0825 17.3748 44.3451 17.3748C44.5812 17.3748 44.8836 17.3913 45.0623 17.3932V17.2954H44.9955C44.7781 17.2944 44.6019 17.2414 44.6013 16.8814V14.4249H45.3627C45.6663 14.4262 45.7061 14.6875 45.7147 14.8573L45.8134 14.8208C45.8134 14.7014 45.8138 14.5817 45.8225 14.4617C45.8351 14.344 45.852 14.2265 45.8686 14.1097L45.8003 14.0979C45.7796 14.2312 45.6519 14.2386 45.5393 14.2366H43.205H43.1821C43.0755 14.2379 42.9601 14.2316 42.9189 14.103H42.845C42.8437 14.23 42.8352 14.3532 42.8173 14.4751C42.8054 14.6011 42.7831 14.7224 42.7662 14.8427H42.8632C42.9231 14.5236 42.9623 14.4201 43.3003 14.4249V14.4452V14.4652C42.9651 14.471 42.9726 14.5284 42.8985 14.8668L42.8951 14.8824H42.8794H42.7207L42.7235 14.8595C42.7423 14.7303 42.7649 14.6027 42.7781 14.4703C42.7966 14.3423 42.8054 14.2154 42.8054 14.0839V14.0639H42.8248H42.9484L42.9522 14.0782C42.9838 14.1938 43.0663 14.1944 43.182 14.1963L43.2049 14.197H45.5393C45.6641 14.1944 45.7553 14.1925 45.7632 14.0732L45.7645 14.0513L45.7858 14.0557L45.9141 14.0761L45.9106 14.0961C45.8921 14.2186 45.8749 14.3424 45.8611 14.4653C45.852 14.5872 45.852 14.7113 45.852 14.8345V14.8488L45.8392 14.8538L45.6789 14.9129L45.678 14.8862C45.6663 14.7142 45.6485 14.4652 45.3627 14.4652H44.6405V16.8814C44.6452 17.2268 44.7803 17.2506 44.9955 17.2551H45.1015V17.2748V17.4322L45.0821 17.4323Z" fill="#272E36"/>
<path d="M46.0586 17.2744H46.122C46.2853 17.2744 46.4562 17.2522 46.4562 17.0138V14.615C46.4562 14.3763 46.2853 14.3538 46.122 14.3538H46.0586V14.2163C46.2352 14.2163 46.5062 14.2344 46.7272 14.2344C46.9543 14.2344 47.2256 14.2163 47.4382 14.2163V14.3538H47.3749C47.2121 14.3538 47.0396 14.3763 47.0396 14.615V17.0138C47.0396 17.2522 47.2121 17.2744 47.3749 17.2744H47.4382V17.4125C47.2209 17.4125 46.9493 17.3944 46.7238 17.3944C46.5018 17.3944 46.2352 17.4125 46.0586 17.4125V17.2744Z" fill="#272E36"/>
<path d="M47.4384 17.432C47.2199 17.432 46.9492 17.4133 46.7237 17.4133C46.5026 17.4133 46.2354 17.432 46.0588 17.432H46.0391V17.4127V17.2746V17.2549H46.0588H46.1222C46.2855 17.2523 46.4355 17.238 46.4361 17.0139V14.6152C46.4355 14.3917 46.2855 14.3764 46.1222 14.3733H46.0391V14.3539V14.1968H46.0588C46.2354 14.1968 46.507 14.2142 46.7274 14.2142C46.953 14.2142 47.2242 14.1968 47.4384 14.1968H47.4576V14.2164V14.3733H47.4384H47.3751C47.2098 14.3764 47.0614 14.3917 47.0593 14.6152V17.0139C47.0614 17.238 47.2098 17.2523 47.3751 17.2549H47.4576V17.2746V17.432H47.4384ZM47.4181 17.392V17.2952H47.3751C47.2129 17.2952 47.021 17.2663 47.021 17.0139V14.6152C47.021 14.3621 47.2129 14.3336 47.3751 14.3336H47.4181V14.2364C47.2092 14.2377 46.9479 14.2542 46.7274 14.2542C46.5132 14.2542 46.2539 14.2377 46.0786 14.2364V14.3336H46.1222C46.2831 14.3336 46.4757 14.3621 46.4763 14.6152V17.0139C46.4756 17.2663 46.2831 17.2952 46.1222 17.2952H46.0786V17.392C46.253 17.3901 46.5089 17.3745 46.7237 17.3745C46.9429 17.3745 47.2048 17.3911 47.418 17.392H47.4181Z" fill="#272E36"/>
<path d="M49.2414 14.1479C50.2055 14.1479 50.9738 14.753 50.9738 15.7279C50.9738 16.7813 50.2277 17.4813 49.2649 17.4813C48.3052 17.4813 47.5732 16.8219 47.5732 15.8375C47.5732 14.8854 48.3008 14.1479 49.2414 14.1479ZM49.3097 17.2797C50.1873 17.2797 50.34 16.4962 50.34 15.8286C50.34 15.1594 49.9838 14.3492 49.2326 14.3492C48.441 14.3492 48.2061 15.0635 48.2061 15.6765C48.2061 16.4962 48.5768 17.2797 49.3097 17.2797Z" fill="#272E36"/>
<path d="M47.5537 15.8375C47.5556 14.8743 48.292 14.1292 49.242 14.1279V14.1479V14.1673C48.3124 14.1673 47.5929 14.8952 47.592 15.8374C47.5942 16.8108 48.3159 17.4603 49.2655 17.4606C50.2189 17.4603 50.9544 16.7701 50.9559 15.727C50.955 14.7644 50.1982 14.1685 49.242 14.1673V14.1479V14.1279C50.2136 14.1286 50.9923 14.7397 50.9942 15.727C50.9933 16.7914 50.2374 17.4987 49.2655 17.5006C48.2983 17.4987 47.5556 16.8327 47.5538 15.8374H47.5537V15.8375ZM48.1873 15.6765C48.1885 15.0607 48.4262 14.3286 49.2335 14.3286C50.0013 14.3305 50.3597 15.1559 50.361 15.8286C50.3597 16.4962 50.2045 17.2988 49.3107 17.2988V17.2797V17.26C50.1707 17.2588 50.3196 16.4962 50.3218 15.8286C50.3218 15.1648 49.9686 14.3702 49.2335 14.3692C48.4576 14.3702 48.228 15.0667 48.2265 15.6765C48.2271 16.4921 48.5944 17.2581 49.3107 17.26V17.2797V17.2988C48.5599 17.2978 48.1885 16.501 48.1873 15.6765Z" fill="#272E36"/>
<path d="M54.0224 16.51L54.0316 16.5011V14.7843C54.0316 14.4084 53.7731 14.3538 53.6373 14.3538H53.5395V14.2163C53.7515 14.2163 53.9594 14.2344 54.1714 14.2344C54.3574 14.2344 54.5427 14.2163 54.7284 14.2163V14.3538H54.66C54.4706 14.3538 54.2577 14.3903 54.2577 14.9351V17.0189C54.2577 17.1789 54.2621 17.3389 54.285 17.4808H54.1134L51.7838 14.8526V16.7392C51.7838 17.1376 51.8603 17.2745 52.2084 17.2745H52.2859V17.4126C52.0911 17.4126 51.897 17.3945 51.7025 17.3945C51.499 17.3945 51.2905 17.4126 51.0869 17.4126V17.2745H51.1506C51.4633 17.2745 51.557 17.0598 51.557 16.6938V14.7653C51.557 14.5091 51.35 14.3538 51.1458 14.3538H51.0869V14.2164C51.2587 14.2164 51.4353 14.2344 51.6069 14.2344C51.7427 14.2344 51.8735 14.2164 52.0096 14.2164L54.0224 16.51Z" fill="#272E36"/>
<path d="M54.2849 17.5006L54.0977 17.4939L51.8029 14.9044V16.7393C51.8079 17.1374 51.8678 17.2501 52.2074 17.2542H52.3053V17.2749V17.432H52.2855C52.0895 17.432 51.8954 17.4136 51.7022 17.4136C51.4992 17.4136 51.2917 17.432 51.0862 17.432H51.0674V17.4123V17.2542H51.0862H51.1502C51.4485 17.2533 51.5341 17.059 51.5378 16.6939V14.7653C51.5372 14.5215 51.3399 14.3736 51.1455 14.3733H51.0674V14.3539V14.1968H51.0862C51.2597 14.1968 51.4359 14.2143 51.6065 14.2143C51.7408 14.2143 51.8712 14.1968 52.0243 14.2035L54.0114 16.4686V14.7847C54.0101 14.4203 53.7693 14.3765 53.6369 14.3733H53.5181V14.354V14.1968H53.5385C53.7514 14.1968 53.9599 14.2143 54.1704 14.2143C54.356 14.2143 54.5405 14.1968 54.728 14.1968H54.7474V14.2165V14.3733H54.728H54.6596C54.4736 14.3787 54.2811 14.3959 54.2773 14.9352V17.0187C54.2773 17.1787 54.2807 17.3384 54.3027 17.4784L54.3065 17.5006H54.2849V17.5006ZM54.1131 17.4606H54.2611C54.2414 17.3231 54.2379 17.1707 54.2379 17.0187V14.9352C54.2379 14.3847 54.4659 14.3348 54.6598 14.3333H54.7087V14.2364C54.5302 14.2377 54.3515 14.2542 54.1705 14.2542C53.9648 14.2542 53.7625 14.2377 53.5577 14.2364V14.3333H53.637C53.7772 14.3348 54.05 14.3974 54.05 14.7847L54.0451 16.5148L54.0366 16.5244L54.0222 16.539L52.0094 14.2365C51.8761 14.2365 51.744 14.2542 51.6067 14.2542C51.4401 14.2542 51.2704 14.2377 51.1058 14.2365V14.3333H51.1456C51.358 14.3349 51.5765 14.4971 51.5765 14.7653V16.6939C51.5765 17.06 51.4756 17.2942 51.1503 17.2955L51.1058 17.2952V17.392C51.3021 17.3911 51.5034 17.3746 51.7023 17.3746C51.8908 17.3746 52.078 17.3911 52.2659 17.392V17.2955H52.2075C51.8526 17.2952 51.7638 17.1374 51.7638 16.7393V14.8012L54.1131 17.4606ZM54.0221 16.5098L54.0365 16.4967L54.0221 16.5098ZM54.0115 16.5012V16.4996L54.0077 16.4961L54.0115 16.5012Z" fill="#272E36"/>
<path d="M55.4551 16.7578C55.4109 16.913 55.356 17.033 55.356 17.1146C55.356 17.2524 55.5464 17.2746 55.6948 17.2746H55.7452V17.4127C55.5643 17.4028 55.3786 17.3946 55.1977 17.3946C55.0342 17.3946 54.8721 17.4029 54.71 17.4127V17.2746H54.7357C54.9129 17.2746 55.0628 17.1695 55.1296 16.9768L55.8541 14.8758C55.9124 14.7063 55.9943 14.4774 56.0207 14.3076C56.1655 14.2578 56.3462 14.1663 56.433 14.1111C56.4459 14.1064 56.455 14.1016 56.4688 14.1016C56.4823 14.1016 56.4907 14.1016 56.4998 14.1158C56.5136 14.152 56.5278 14.1936 56.5412 14.2301L57.373 16.6251C57.4272 16.7851 57.4812 16.9543 57.5408 17.092C57.595 17.2203 57.6904 17.2746 57.839 17.2746H57.8667V17.4127C57.6628 17.4028 57.4593 17.3946 57.2419 17.3946C57.0208 17.3946 56.7944 17.4029 56.5635 17.4127V17.2746H56.6138C56.7169 17.2746 56.8944 17.2568 56.8944 17.1422C56.8944 17.0828 56.8533 16.9593 56.8028 16.8124L56.6272 16.2812H55.6004L55.4551 16.7578ZM56.1163 14.7292H56.1072L55.686 16.0251H56.5324L56.1163 14.7292Z" fill="#272E36"/>
<path d="M57.864 17.4323C57.6604 17.4241 57.4573 17.4139 57.2412 17.4139C57.0207 17.4139 56.7943 17.4241 56.5634 17.4323L56.5433 17.4336V17.4126V17.2552H56.5628H56.612C56.7174 17.2552 56.8733 17.2304 56.8736 17.1425C56.8745 17.0904 56.8337 16.9657 56.7833 16.819L56.6114 16.3012H55.6131L55.4732 16.7637C55.4281 16.9205 55.3741 17.0409 55.3751 17.1149C55.3751 17.2272 55.5444 17.2552 55.6941 17.2552H55.763V17.2749V17.4336L55.743 17.4323C55.562 17.4241 55.3769 17.4139 55.197 17.4139C55.0348 17.4139 54.8723 17.4241 54.7092 17.4323L54.6895 17.4336V17.4126V17.2552H54.7092H54.735C54.9037 17.2545 55.0448 17.1565 55.1107 16.9707L55.8345 14.8695C55.8922 14.6996 55.9737 14.4714 56.0139 14.2895C56.156 14.2396 56.3375 14.1482 56.4254 14.0923C56.4373 14.0882 56.4495 14.0828 56.468 14.0828C56.48 14.0815 56.5031 14.0844 56.5176 14.1094C56.5311 14.1453 56.5442 14.1869 56.5593 14.224L57.391 16.6187C57.445 16.7793 57.4992 16.9485 57.5579 17.0847C57.6108 17.206 57.6934 17.2539 57.8376 17.2552H57.8847V17.2749V17.4336L57.864 17.4323ZM56.5822 17.392C56.8058 17.3834 57.026 17.3745 57.2412 17.3745C57.4516 17.3745 57.6489 17.3834 57.8458 17.3913L57.8452 17.2958H57.8376C57.6846 17.2961 57.5777 17.2351 57.5215 17.1002C57.4619 16.9612 57.408 16.7913 57.354 16.6316L56.5216 14.2367C56.5082 14.2002 56.4944 14.1586 56.4834 14.1275C56.4796 14.1218 56.48 14.1218 56.4765 14.1218H56.468C56.4586 14.1218 56.4536 14.125 56.4426 14.1282C56.3545 14.1844 56.1732 14.2758 56.0393 14.311C56.0113 14.4844 55.9292 14.7126 55.8709 14.8824L55.1467 16.984C55.078 17.1828 54.92 17.2961 54.7349 17.2958H54.7283V17.3913C54.8839 17.3834 55.0394 17.3745 55.1969 17.3745C55.3722 17.3745 55.5506 17.3834 55.7247 17.3913V17.2958H55.694C55.5469 17.2938 55.3405 17.2777 55.3352 17.1148C55.3361 17.024 55.3923 16.9075 55.4359 16.7523L55.4544 16.7583L55.4359 16.7516L55.5848 16.2621H56.6396L56.8208 16.8062C56.8707 16.9536 56.9118 17.0751 56.9118 17.1424C56.9052 17.2831 56.7155 17.2929 56.6119 17.2958H56.5822V17.392H56.5822ZM55.6583 16.0447L56.092 14.7094H56.1058H56.1155V14.7294L56.1108 14.7304L56.1155 14.7294V14.7094H56.1297L56.5571 16.0447H55.6583ZM55.7125 16.0053H56.5035L56.1102 14.779L55.7125 16.0053ZM56.0967 14.7352L56.1058 14.7317L56.0967 14.7352Z" fill="#272E36"/>
<path d="M59.0063 16.9636C59.0063 17.1468 59.1318 17.2014 59.2767 17.2201C59.462 17.2341 59.6656 17.2341 59.8745 17.2109C60.0639 17.1878 60.227 17.0779 60.3079 16.9636C60.38 16.8627 60.4208 16.7344 60.4481 16.6338H60.5792C60.5296 16.8947 60.4663 17.1519 60.4117 17.4125C60.0146 17.4125 59.6157 17.3944 59.2183 17.3944C58.8197 17.3944 58.4224 17.4125 58.0244 17.4125V17.2744H58.0865C58.2502 17.2744 58.4271 17.2522 58.4271 16.9681V14.615C58.4271 14.3763 58.2502 14.3538 58.0865 14.3538H58.0244V14.2163C58.2634 14.2163 58.4989 14.2344 58.7382 14.2344C58.9696 14.2344 59.1955 14.2163 59.4263 14.2163V14.3538H59.3124C59.1412 14.3538 59.0063 14.3588 59.0063 14.6008V16.9636Z" fill="#272E36"/>
<path d="M60.4113 17.432C60.0127 17.432 59.6147 17.4136 59.218 17.4136C58.8196 17.4136 58.4217 17.432 58.0231 17.432H58.0039V17.4123V17.2548H58.0231H58.0861C58.2501 17.251 58.4051 17.2396 58.4069 16.9682V14.6142C58.405 14.3917 58.251 14.3765 58.0861 14.3733H58.0039V14.3539V14.1968H58.0231C58.2636 14.1968 58.4992 14.2142 58.7381 14.2142C58.9677 14.2142 59.1935 14.1968 59.4259 14.1968H59.4444V14.2165V14.3733H59.4259H59.3124C59.1371 14.3783 59.0279 14.3701 59.0245 14.6009V16.9638C59.0257 17.1342 59.1362 17.1803 59.2773 17.2003C59.3572 17.206 59.441 17.2095 59.5282 17.2095C59.6389 17.2095 59.754 17.2041 59.8707 17.1914C60.055 17.1695 60.2137 17.0619 60.2915 16.9527C60.3611 16.8549 60.4013 16.7292 60.4283 16.6292L60.4324 16.614H60.4474H60.6027L60.5986 16.6381C60.5475 16.9 60.4854 17.1559 60.4305 17.4165L60.4268 17.432H60.4114H60.4113V17.432ZM60.395 17.392C60.4474 17.1437 60.5067 16.9008 60.5553 16.6532H60.4624C60.4342 16.7529 60.394 16.8758 60.3229 16.9758C60.2385 17.0945 60.071 17.2062 59.875 17.2307C59.7565 17.2431 59.6391 17.2494 59.5282 17.2494C59.4406 17.2494 59.3557 17.2453 59.2738 17.2395C59.1267 17.223 58.984 17.1595 58.9846 16.9637V14.6008C58.9846 14.3466 59.1436 14.3335 59.3124 14.3335H59.4058V14.2364C59.1829 14.2377 58.9633 14.2545 58.7381 14.2545C58.5038 14.2545 58.2748 14.2377 58.0428 14.2364V14.3335H58.0861C58.2476 14.3335 58.4451 14.3621 58.4451 14.6142V16.9681C58.4451 17.2643 58.2485 17.2951 58.0861 17.2951H58.0428V17.392C58.4339 17.3916 58.825 17.3745 59.2179 17.3745C59.6109 17.3745 60.0036 17.3916 60.395 17.392Z" fill="#272E36"/>
<path d="M60.5243 14.0864C60.7968 14.0864 61.0004 14.2985 61.0004 14.5702C61.0004 14.8407 60.7968 15.0509 60.5243 15.0509C60.2517 15.0509 60.0479 14.8407 60.0479 14.5702C60.0478 14.2985 60.2517 14.0864 60.5243 14.0864ZM60.5243 14.961C60.7372 14.961 60.9009 14.7769 60.9009 14.5702C60.9009 14.3623 60.7397 14.1766 60.5243 14.1766C60.3101 14.1766 60.1463 14.3623 60.1463 14.5702C60.1463 14.7769 60.3101 14.961 60.5243 14.961ZM60.2871 14.8242V14.8004C60.3458 14.7921 60.3564 14.794 60.3564 14.7572V14.4004C60.3564 14.3503 60.3511 14.3331 60.2893 14.3356V14.3112H60.533C60.6171 14.3112 60.6939 14.3515 60.6939 14.4391C60.6939 14.5109 60.6468 14.5639 60.5813 14.5845L60.6594 14.695C60.6961 14.7451 60.7372 14.7921 60.7645 14.8086V14.8242H60.6717C60.6271 14.8242 60.5882 14.7293 60.5004 14.602H60.4477V14.7623C60.4477 14.794 60.4587 14.7921 60.5173 14.8004V14.8242H60.2871V14.8242ZM60.4477 14.5702H60.5039C60.5653 14.5702 60.5942 14.5229 60.5942 14.4471C60.5942 14.3702 60.5496 14.3432 60.5007 14.3432H60.4477V14.5702Z" fill="#272E36"/>
<path d="M11.6885 20C16.0087 20.0209 19.9519 16.4336 19.9519 12.0695C19.9519 7.29714 16.0087 3.99841 11.6885 4H7.97046C3.59853 3.99841 0 7.29813 0 12.0695C0 16.4346 3.59853 20.021 7.97046 20H11.6885Z" fill="#0079BE"/>
<path d="M7.98801 4.66113C3.99306 4.6624 0.755824 7.94018 0.754883 11.9856C0.755824 16.0303 3.99303 19.3078 7.98801 19.3091C11.9839 19.3078 15.2218 16.0303 15.2224 11.9856C15.2218 7.94018 11.9839 4.6624 7.98801 4.66113ZM3.40313 11.9856C3.40689 10.0088 4.62658 8.32307 6.3465 7.6532V16.317C4.62658 15.6475 3.40686 13.9627 3.40313 11.9856ZM9.62889 16.3189V7.65291C11.3494 8.32116 12.571 10.0078 12.5741 11.9856C12.571 13.964 11.3494 15.6494 9.62889 16.3189Z" fill="white"/>
<path d="M22.4854 7.44227C22.4854 6.68541 22.0956 6.73525 21.7217 6.72703V6.5083C22.0457 6.52449 22.3778 6.52449 22.7024 6.52449C23.0515 6.52449 23.5254 6.5083 24.1407 6.5083C26.2928 6.5083 27.4648 7.96354 27.4648 9.45367C27.4648 10.287 26.9831 12.3819 24.0407 12.3819C23.6169 12.3819 23.2259 12.3654 22.8354 12.3654C22.4616 12.3654 22.0956 12.3737 21.7217 12.3819V12.1635C22.2201 12.1127 22.4616 12.0959 22.4854 11.5235V7.44227H22.4854ZM23.3002 11.3892C23.3002 12.0372 23.7578 12.1127 24.1649 12.1127C25.9607 12.1127 26.5503 10.741 26.5503 9.487C26.5503 7.91398 25.5527 6.77811 23.9488 6.77811C23.6076 6.77811 23.4508 6.80287 23.3002 6.81179L23.3002 11.3892Z" fill="#272E36"/>
<path d="M27.7568 12.1633H27.9143C28.1467 12.1633 28.3132 12.1633 28.3132 11.8849V9.60491C28.3132 9.2351 28.1887 9.18364 27.8811 9.01634V8.88142C28.2715 8.76269 28.7376 8.60396 28.7702 8.57856C28.8288 8.54491 28.8784 8.53602 28.9201 8.53602C28.9612 8.53602 28.9784 8.58682 28.9784 8.65444V11.8849C28.9784 12.1633 29.1613 12.1633 29.394 12.1633H29.5351V12.3821C29.2522 12.3821 28.9612 12.3653 28.6626 12.3653C28.3634 12.3653 28.0639 12.3735 27.7569 12.3821V12.1633H27.7568ZM28.646 7.24044C28.4296 7.24044 28.2389 7.03856 28.2389 6.8198C28.2389 6.60901 28.4384 6.41504 28.646 6.41504C28.8614 6.41504 29.0534 6.59253 29.0534 6.8198C29.0534 7.0471 28.8699 7.24044 28.646 7.24044Z" fill="#272E36"/>
<path d="M30.324 9.65518C30.324 9.34407 30.2321 9.26026 29.8423 9.10026V8.94061C30.1995 8.82283 30.5398 8.71331 30.939 8.53616C30.9638 8.53616 30.9882 8.55331 30.9882 8.62029V9.16756C31.4628 8.82283 31.8702 8.53613 32.4277 8.53613C33.1334 8.53613 33.3827 9.05801 33.3827 9.7142V11.885C33.3827 12.1634 33.5655 12.1634 33.7986 12.1634H33.9482V12.3822C33.6565 12.3822 33.3658 12.3654 33.0672 12.3654C32.7677 12.3654 32.4681 12.3736 32.1693 12.3822V12.1634H32.3186C32.5519 12.1634 32.7172 12.1634 32.7172 11.885V9.70626C32.7172 9.22594 32.4277 8.9907 31.9532 8.9907C31.6876 8.9907 31.2635 9.20947 30.9882 9.39483V11.885C30.9882 12.1634 31.1719 12.1634 31.405 12.1634H31.5543V12.3821C31.2635 12.3821 30.9722 12.3653 30.673 12.3653C30.3741 12.3653 30.0743 12.3736 29.7754 12.3821V12.1634H29.9253C30.158 12.1634 30.3239 12.1634 30.3239 11.885V9.65518H30.324Z" fill="#272E36"/>
<path d="M34.5803 10.0596C34.563 10.1355 34.563 10.2615 34.5803 10.5479C34.6293 11.3469 35.1376 12.0031 35.8015 12.0031C36.2591 12.0031 36.6173 11.7508 36.9243 11.4397L37.0403 11.5578C36.6577 12.0708 36.1841 12.5082 35.503 12.5082C34.181 12.5082 33.915 11.212 33.915 10.6739C33.915 9.02439 35.0121 8.53613 35.5936 8.53613C36.2672 8.53613 36.9908 8.96505 36.9986 9.85709C36.9986 9.9082 36.9986 9.95804 36.9908 10.0091L36.9155 10.0596H34.5803ZM36.0518 9.79013C36.2591 9.79013 36.2836 9.68061 36.2836 9.57997C36.2836 9.15074 36.0261 8.80566 35.5604 8.80566C35.0539 8.80566 34.7048 9.18375 34.605 9.79013H36.0518Z" fill="#272E36"/>
<path d="M37.1904 12.1635H37.415C37.647 12.1635 37.8133 12.1635 37.8133 11.885V9.52089C37.8133 9.26026 37.5062 9.20947 37.3811 9.14216V9.01645C37.988 8.75518 38.3207 8.53613 38.3963 8.53613C38.4455 8.53613 38.47 8.56153 38.47 8.64597V9.40312H38.4876C38.6949 9.07518 39.0446 8.53613 39.5511 8.53613C39.759 8.53613 40.0247 8.67899 40.0247 8.98216C40.0247 9.20947 39.8672 9.41201 39.6345 9.41201C39.3758 9.41201 39.3758 9.20947 39.0854 9.20947C38.9439 9.20947 38.4788 9.40312 38.4788 9.9082V11.885C38.4788 12.1634 38.6447 12.1634 38.8777 12.1634H39.3428V12.3822C38.8856 12.3736 38.5378 12.3654 38.1796 12.3654C37.839 12.3654 37.4896 12.3736 37.1905 12.3822V12.1635H37.1904Z" fill="#272E36"/>
<path d="M40.3902 11.212C40.4984 11.7675 40.8305 12.239 41.4377 12.239C41.9269 12.239 42.1101 11.9361 42.1101 11.6415C42.1101 10.6485 40.2986 10.9682 40.2986 9.61359C40.2986 9.14216 40.673 8.53613 41.5869 8.53613C41.8526 8.53613 42.2098 8.61232 42.5337 8.78089L42.5927 9.63839H42.4011C42.3183 9.10883 42.0276 8.80569 41.495 8.80569C41.1626 8.80569 40.8471 8.99937 40.8471 9.36093C40.8471 10.3463 42.7753 10.0425 42.7753 11.3635C42.7753 11.9187 42.3346 12.5082 41.3454 12.5082C41.013 12.5082 40.6225 12.3904 40.3318 12.2225L40.2402 11.2546L40.3902 11.212Z" fill="#272E36"/>
<path d="M50.2809 8.03119H50.0736C49.9155 7.04706 49.2256 6.65119 48.295 6.65119C47.3385 6.65119 45.9504 7.29878 45.9504 9.31817C45.9504 11.0191 47.1481 12.2388 48.4277 12.2388C49.2503 12.2388 49.9324 11.6667 50.0987 10.7829L50.2894 10.8331L50.0987 12.0616C49.7496 12.281 48.8103 12.508 48.2611 12.508C46.3167 12.508 45.0869 11.2373 45.0869 9.34389C45.0869 7.61881 46.6077 6.38135 48.2366 6.38135C48.9097 6.38135 49.558 6.60103 50.1981 6.82833L50.2809 8.03119Z" fill="#272E36"/>
<path d="M50.5811 12.1635H50.7386C50.9716 12.1635 51.1384 12.1635 51.1384 11.885V7.1987C51.1384 6.6514 51.0136 6.63454 50.6974 6.54216V6.40756C51.0299 6.29838 51.3789 6.14661 51.5537 6.04537C51.6443 5.99521 51.7114 5.95264 51.7358 5.95264C51.7867 5.95264 51.8033 6.00346 51.8033 6.07105V11.885C51.8033 12.1635 51.9858 12.1635 52.2188 12.1635H52.3591V12.3822C52.0777 12.3822 51.7867 12.3654 51.4871 12.3654C51.1883 12.3654 50.8891 12.3737 50.5811 12.3822V12.1635H50.5811Z" fill="#272E36"/>
<path d="M55.9181 11.9186C55.9181 12.0706 56.0091 12.0789 56.1502 12.0789C56.2502 12.0789 56.3744 12.0706 56.4829 12.0706V12.2478C56.1251 12.2811 55.4436 12.4579 55.2855 12.5081L55.2438 12.4827V11.8017C54.7458 12.2138 54.3628 12.5081 53.7723 12.5081C53.3235 12.5081 52.8581 12.2138 52.8581 11.5074V9.3525C52.8581 9.13377 52.8251 8.92326 52.3604 8.88139V8.72139C52.6599 8.71314 53.3235 8.66263 53.432 8.66263C53.5242 8.66263 53.5242 8.72139 53.5242 8.90647V11.0769C53.5242 11.33 53.5242 12.0534 54.2468 12.0534C54.5294 12.0534 54.9032 11.8347 55.252 11.541V9.27628C55.252 9.10866 54.8534 9.01628 54.5548 8.9318V8.78038C55.3019 8.72958 55.7682 8.6626 55.8507 8.6626C55.9181 8.6626 55.9181 8.72133 55.9181 8.81434V11.9186H55.9181Z" fill="#272E36"/>
<path d="M57.5718 9.14219C57.9039 8.85613 58.3526 8.53616 58.8102 8.53616C59.7746 8.53616 60.3558 9.38695 60.3558 10.3034C60.3558 11.4057 59.5582 12.5082 58.3689 12.5082C57.7542 12.5082 57.4302 12.306 57.2138 12.2139L56.9648 12.4069L56.7908 12.3149C56.8645 11.8184 56.9068 11.3301 56.9068 10.8171V7.19867C56.9068 6.6514 56.7814 6.63454 56.4658 6.54216V6.40756C56.7992 6.29838 57.1473 6.14661 57.322 6.04534C57.4136 5.99518 57.4798 5.95264 57.5055 5.95264C57.5551 5.95264 57.5717 6.00346 57.5717 6.07105V9.14216H57.5718V9.14219ZM57.5718 11.4308C57.5718 11.7508 57.8706 12.2898 58.4276 12.2898C59.317 12.2898 59.6909 11.4057 59.6909 10.6565C59.6909 9.74794 59.01 8.9908 58.3614 8.9908C58.0531 8.9908 57.7959 9.19302 57.5717 9.38695V11.4308H57.5718Z" fill="#272E36"/>
<path d="M21.7119 17.2744H21.7756C21.938 17.2744 22.1099 17.2522 22.1099 17.0138V14.615C22.1099 14.3763 21.938 14.3538 21.7756 14.3538H21.7119V14.2163C21.8885 14.2163 22.1598 14.2344 22.3821 14.2344C22.6079 14.2344 22.8789 14.2163 23.0915 14.2163V14.3538H23.0279C22.8657 14.3538 22.6936 14.3763 22.6936 14.615V17.0138C22.6936 17.2522 22.8657 17.2744 23.0279 17.2744H23.0915V17.4125C22.8745 17.4125 22.6026 17.3944 22.3771 17.3944C22.1554 17.3944 21.8885 17.4125 21.7119 17.4125V17.2744Z" fill="#272E36"/>
<path d="M23.0924 17.4322C22.8738 17.4322 22.6029 17.4138 22.3777 17.4138C22.1566 17.4138 21.8906 17.4322 21.7128 17.4322H21.6934V17.4125V17.2751V17.2551H21.7128H21.7762C21.9401 17.2512 22.0895 17.2379 22.091 17.0141V14.6153C22.0895 14.3915 21.9402 14.3766 21.7762 14.3734H21.6934V14.3541V14.1963H21.7128C21.8906 14.1963 22.1616 14.2144 22.3827 14.2144C22.6079 14.2144 22.8785 14.1963 23.0924 14.1963H23.1125V14.2172V14.3734H23.0924H23.0291C22.865 14.3766 22.7148 14.3915 22.7139 14.6153V17.0141C22.7148 17.2379 22.865 17.2512 23.0291 17.2551H23.1125V17.2751V17.4322H23.0924ZM23.073 17.3931V17.2953H23.0291C22.8676 17.2953 22.6753 17.2671 22.6743 17.0141V14.6153C22.6753 14.3623 22.8675 14.3337 23.0291 14.3337H23.073V14.2366C22.8641 14.2366 22.6022 14.2544 22.3827 14.2544C22.1678 14.2544 21.9078 14.2379 21.7328 14.2366V14.3337H21.7761C21.9373 14.3337 22.1302 14.3623 22.1302 14.6153V17.0141C22.1302 17.2671 21.9373 17.2953 21.7761 17.2953H21.7328V17.3931C21.9078 17.3912 22.1634 17.3747 22.3777 17.3747C22.5978 17.3747 22.8597 17.3918 23.073 17.3931Z" fill="#272E36"/>
<path d="M26.1992 16.51L26.2083 16.5011V14.7843C26.2083 14.4084 25.9502 14.3538 25.8147 14.3538H25.715V14.2163C25.9279 14.2163 26.1358 14.2344 26.3482 14.2344C26.5335 14.2344 26.7198 14.2163 26.9049 14.2163V14.3538H26.8371C26.6467 14.3538 26.4341 14.3903 26.4341 14.9351V17.0189C26.4341 17.1789 26.4388 17.3389 26.461 17.4808H26.2889L23.9602 14.8526V16.7392C23.9602 17.1376 24.0364 17.2745 24.3852 17.2745H24.4617V17.4126C24.2676 17.4126 24.0734 17.3945 23.8787 17.3945C23.6757 17.3945 23.4675 17.4126 23.2637 17.4126V17.2745H23.327C23.6391 17.2745 23.7338 17.0598 23.7338 16.6938V14.7653C23.7338 14.5091 23.5253 14.3538 23.3227 14.3538H23.2637V14.2164C23.4355 14.2164 23.6118 14.2344 23.7834 14.2344C23.9191 14.2344 24.0506 14.2164 24.186 14.2164L26.1992 16.51Z" fill="#272E36"/>
<path d="M26.4607 17.5009L26.2741 17.4939L23.979 14.9044V16.7393C23.9843 17.1374 24.0442 17.2505 24.3848 17.2549H24.4817V17.2746V17.432H24.4617C24.266 17.432 24.0712 17.4136 23.8783 17.4136C23.6757 17.4136 23.4681 17.432 23.263 17.432H23.2432V17.4123V17.2549H23.263H23.3266C23.6255 17.2533 23.7108 17.059 23.7143 16.6939V14.7657C23.7136 14.5219 23.516 14.3739 23.3222 14.3733H23.2432V14.353V14.1968H23.2629C23.4358 14.1968 23.6129 14.2142 23.7826 14.2142C23.9171 14.2142 24.0483 14.1968 24.2007 14.2034L26.1884 16.4686V14.7847C26.1859 14.4203 25.946 14.3765 25.8143 14.3733H25.6945V14.353V14.1968H25.7145C25.9281 14.1968 26.1364 14.2142 26.3477 14.2142C26.5318 14.2142 26.7172 14.1968 26.9041 14.1968H26.9239V14.2165V14.3733H26.9041H26.8367C26.6501 14.3787 26.4584 14.3952 26.4531 14.9352V17.0187C26.4531 17.1787 26.4578 17.3387 26.4798 17.4774L26.4842 17.5009H26.4607V17.5009ZM26.2889 17.4606H26.4385C26.4181 17.3231 26.4146 17.1707 26.4146 17.0187V14.9352C26.4146 14.3856 26.642 14.3336 26.8368 14.3336H26.8844V14.2364C26.7063 14.2377 26.5275 14.2542 26.3479 14.2542C26.1409 14.2542 25.9395 14.2377 25.7347 14.2364L25.7344 14.3336H25.8144C25.9533 14.3336 26.2277 14.3964 26.2277 14.7847L26.2215 16.5148L26.2124 16.5244L26.197 16.5387L24.1857 14.2364C24.0515 14.2364 23.9204 14.2542 23.7827 14.2542C23.6168 14.2542 23.4471 14.2377 23.2831 14.2364L23.2822 14.3336H23.3223C23.5346 14.3336 23.7526 14.4977 23.7526 14.7656V16.6939C23.7526 17.0599 23.6519 17.2942 23.3267 17.2954L23.2831 17.2942V17.3929C23.4791 17.391 23.6805 17.3745 23.8783 17.3745C24.0672 17.3745 24.255 17.391 24.4419 17.3929V17.2954H24.3849C24.0289 17.2942 23.9405 17.1374 23.9401 16.7393V14.8012L26.2889 17.4606ZM26.1988 16.5098L26.2133 16.4964L26.1988 16.5098ZM26.1885 16.5009V16.4993L26.1847 16.4961L26.1885 16.5009Z" fill="#272E36"/>
<path d="M27.5814 14.445C27.2418 14.445 27.2289 14.5276 27.1612 14.8615H27.0254C27.0433 14.7336 27.0658 14.6056 27.0796 14.4723C27.0978 14.344 27.1066 14.2164 27.1066 14.0837H27.2154C27.2518 14.2212 27.3647 14.2164 27.4874 14.2164H29.8204C29.9427 14.2164 30.0556 14.212 30.065 14.0742L30.1729 14.0926C30.1553 14.2164 30.1371 14.3399 30.1233 14.4637C30.1152 14.5872 30.1152 14.711 30.1152 14.8342L29.9791 14.8853C29.9697 14.7161 29.9471 14.445 29.6444 14.445H28.9027V16.8812C28.9027 17.2342 29.0611 17.2745 29.2775 17.2745H29.3637V17.4126C29.1875 17.4126 28.8704 17.3945 28.6267 17.3945C28.3555 17.3945 28.0384 17.4126 27.8618 17.4126V17.2745H27.948C28.1974 17.2745 28.3235 17.252 28.3235 16.8907V14.445H27.5814Z" fill="#272E36"/>
<path d="M29.3646 17.4323C29.1864 17.4323 28.8699 17.4139 28.6269 17.4139C28.3559 17.4139 28.0395 17.4323 27.8619 17.4323H27.8431V17.4129V17.2551H27.8619H27.9482C28.1975 17.2491 28.2979 17.2459 28.3035 16.891V14.4653H27.5816V14.4453V14.425H28.3428V16.891C28.3428 17.2583 28.1966 17.2954 27.9482 17.2957H27.8817V17.3923C28.0602 17.3913 28.3644 17.3748 28.6269 17.3748C28.8628 17.3748 29.1651 17.3913 29.3439 17.3923V17.2957H29.2777C29.0591 17.2954 28.8831 17.2411 28.8831 16.8815V14.425H29.6446C29.9482 14.4262 29.9877 14.6875 29.9978 14.8573L30.0953 14.8208C30.0953 14.7015 30.0959 14.5818 30.1041 14.4611C30.1173 14.3434 30.1339 14.2265 30.1508 14.1097L30.0818 14.098C30.0608 14.2313 29.9338 14.238 29.8199 14.2367H27.4875H27.464C27.3576 14.2367 27.2413 14.2316 27.2008 14.1037H27.1262C27.1255 14.2304 27.1167 14.3532 27.0995 14.4751C27.0863 14.6009 27.0656 14.7218 27.0487 14.8428H27.1456C27.2052 14.5237 27.2441 14.4202 27.5815 14.425V14.4453V14.4653C27.2472 14.4713 27.2541 14.5285 27.1804 14.8669L27.177 14.8824H27.1613H27.0029L27.0054 14.8586C27.0236 14.7304 27.0466 14.6027 27.06 14.4694C27.0788 14.3424 27.0876 14.2154 27.0876 14.084V14.064H27.1067H27.2309L27.2341 14.0783C27.2651 14.1938 27.3489 14.1945 27.464 14.1964H27.4875H29.8199C29.946 14.1945 30.0376 14.1926 30.0454 14.0729L30.0473 14.0513L30.0677 14.0557L30.1953 14.0761L30.1925 14.0961C30.1743 14.2186 30.1564 14.3424 30.1433 14.4653C30.1342 14.5872 30.1342 14.711 30.1342 14.8345V14.8488L30.1216 14.8538L29.9614 14.9129L29.9601 14.8862C29.9482 14.7141 29.9303 14.4652 29.6446 14.4652H28.9226V16.8814C28.9267 17.2268 29.0622 17.2506 29.2776 17.2551H29.3836V17.2748V17.4322L29.3646 17.4323Z" fill="#272E36"/>
<path d="M30.3174 17.2744H30.381C30.5435 17.2744 30.7157 17.2522 30.7157 17.0138V14.615C30.7157 14.3763 30.5435 14.3538 30.381 14.3538H30.3174V14.2163C30.5927 14.2163 31.0638 14.2344 31.443 14.2344C31.8237 14.2344 32.2932 14.2163 32.6005 14.2163C32.5931 14.4128 32.5971 14.7157 32.6106 14.9167L32.4741 14.9535C32.4525 14.656 32.3983 14.4182 31.9231 14.4182H31.295V15.6173H31.8325C32.1038 15.6173 32.1631 15.4621 32.1897 15.2142H32.3252C32.3165 15.3935 32.3117 15.5719 32.3117 15.7503C32.3117 15.9246 32.3164 16.0983 32.3252 16.2722L32.1897 16.2995C32.1631 16.0249 32.1493 15.8465 31.8369 15.8465H31.295V16.9128C31.295 17.2109 31.5562 17.2109 31.846 17.2109C32.3889 17.2109 32.6282 17.1738 32.764 16.6525L32.8907 16.684C32.8314 16.9271 32.7775 17.1694 32.7373 17.4125C32.4476 17.4125 31.9272 17.3944 31.5208 17.3944C31.113 17.3944 30.5752 17.4125 30.3174 17.4125V17.2744Z" fill="#272E36"/>
<path d="M32.7375 17.432C32.4471 17.432 31.9271 17.4133 31.521 17.4133C31.1136 17.4133 30.576 17.432 30.3179 17.432H30.2988V17.4127V17.2746V17.2549H30.3179H30.3813C30.5453 17.2523 30.694 17.2377 30.6962 17.0139V14.6152C30.694 14.3917 30.5453 14.3767 30.3813 14.3733H30.2988V14.3539V14.1968H30.3179C30.5939 14.1968 31.0644 14.2142 31.4435 14.2142C31.8239 14.2142 32.2931 14.1968 32.6011 14.1968H32.6215L32.6205 14.2171C32.6174 14.286 32.6162 14.3672 32.6162 14.4536C32.6162 14.612 32.6205 14.785 32.6297 14.9155L32.6303 14.932L32.6152 14.9365L32.4562 14.9784L32.4553 14.9549C32.4287 14.6578 32.3895 14.4422 31.9237 14.4378H31.3144L31.3137 15.5968H31.8331C32.0935 15.5943 32.1401 15.4593 32.1709 15.2127L32.1725 15.1946H32.19H32.3459L32.3456 15.2152C32.3369 15.3936 32.3311 15.572 32.3311 15.7504C32.3311 15.9238 32.3369 16.0974 32.3456 16.2717L32.3459 16.2879L32.3296 16.2917L32.1725 16.3234L32.1709 16.3019C32.1398 16.0225 32.1376 15.8695 31.8372 15.866L31.3143 15.8657V16.913C31.3147 17.1911 31.5518 17.1895 31.8466 17.1911C32.391 17.1879 32.6093 17.1613 32.7458 16.6469L32.7502 16.6285L32.7693 16.632L32.9142 16.6698L32.9098 16.6888C32.8515 16.9314 32.7972 17.1733 32.7567 17.4158L32.753 17.432H32.7375ZM32.721 17.392C32.7602 17.1612 32.8118 16.9295 32.8674 16.699L32.778 16.6761C32.6425 17.1885 32.3803 17.2342 31.8465 17.2307C31.5618 17.2307 31.2764 17.2307 31.2751 16.9129V15.8266H31.8372C32.1529 15.8231 32.1853 16.0161 32.2075 16.2767L32.3054 16.2561C32.2966 16.0875 32.2925 15.9183 32.2925 15.7504C32.2925 15.578 32.2966 15.4066 32.3054 15.2342H32.2075C32.1825 15.4726 32.1087 15.6402 31.8331 15.6371H31.2751V14.3977H31.9237C32.3942 14.3945 32.4722 14.6402 32.4923 14.9282L32.5899 14.9015C32.582 14.7723 32.5767 14.6066 32.5767 14.4536C32.5767 14.3752 32.5786 14.3012 32.5811 14.2364C32.2738 14.2377 31.8158 14.2542 31.4436 14.2542C31.0719 14.2542 30.6144 14.2377 30.3374 14.2364V14.3336H30.3813C30.5425 14.3336 30.7351 14.3621 30.7357 14.6152V17.0139C30.735 17.2663 30.5425 17.2942 30.3813 17.2955H30.3374V17.392C30.6012 17.3917 31.1237 17.3746 31.521 17.3746C31.9199 17.3746 32.4292 17.3917 32.721 17.392Z" fill="#272E36"/>
<path d="M33.5013 14.7017C33.5013 14.3677 33.3207 14.3541 33.1799 14.3541H33.0986V14.2163C33.2435 14.2163 33.5236 14.2347 33.7996 14.2347C34.0709 14.2347 34.2882 14.2163 34.5275 14.2163C35.097 14.2163 35.6042 14.3722 35.6042 15.023C35.6042 15.4341 35.3329 15.6862 34.9757 15.8287L35.7488 17.0001C35.8754 17.1938 35.9655 17.2481 36.1875 17.2747V17.4128C36.0382 17.4128 35.8933 17.3947 35.7443 17.3947C35.6042 17.3947 35.4589 17.4128 35.3193 17.4128C34.9712 16.9503 34.6721 16.4557 34.3782 15.9287H34.0806V16.909C34.0806 17.262 34.2427 17.2747 34.4506 17.2747H34.5322V17.4128C34.2738 17.4128 34.0126 17.3948 33.7544 17.3948C33.5371 17.3948 33.3244 17.4128 33.0986 17.4128V17.2747H33.1799C33.3479 17.2747 33.5013 17.1979 33.5013 17.0281V14.7017ZM34.0805 15.7639H34.3014C34.7539 15.7639 34.9976 15.59 34.9976 15.0496C34.9976 14.6427 34.7401 14.3814 34.3371 14.3814C34.2013 14.3814 34.1436 14.3957 34.0805 14.3998V15.7639H34.0805Z" fill="#272E36"/>
<path d="M36.1878 17.4321C36.0363 17.4321 35.8924 17.4137 35.7437 17.4137C35.6057 17.4137 35.4615 17.4321 35.3037 17.4245C34.9568 16.9638 34.6595 16.4721 34.3672 15.9489H34.1V16.9083C34.1047 17.2528 34.2415 17.2499 34.4506 17.255H34.5519V17.2747V17.4321H34.5318C34.2734 17.4321 34.0109 17.4137 33.7541 17.4137C33.538 17.4137 33.326 17.4321 33.0989 17.4321H33.0791V17.4124V17.255H33.0989H33.1801C33.3432 17.254 33.4806 17.1823 33.4812 17.028V14.7017C33.4778 14.3766 33.3207 14.3785 33.1801 14.3737H33.0791V14.3541V14.1963H33.0989C33.2454 14.1963 33.5245 14.2144 33.7998 14.2144C34.0698 14.2144 34.2872 14.1963 34.5281 14.1963C35.098 14.1976 35.623 14.3569 35.6245 15.0217C35.6245 15.4353 35.3545 15.6934 35.0054 15.8376L35.7653 16.9893C35.8918 17.1791 35.9705 17.2264 36.1906 17.255L36.2072 17.2575V17.2747V17.4321H36.1878V17.4321ZM34.0803 15.9089H34.3895L34.3948 15.9191C34.6896 16.4451 34.9866 16.9391 35.3197 17.393C35.4577 17.393 35.6029 17.3743 35.7437 17.3743C35.8883 17.3743 36.0275 17.3902 36.1683 17.3924V17.2921C35.956 17.2654 35.8566 17.2013 35.7331 17.0111L34.9462 15.819L34.9684 15.8098C35.3222 15.6689 35.5841 15.4241 35.5844 15.0216C35.5841 14.3863 35.0967 14.2391 34.5281 14.2365C34.2894 14.2365 34.0724 14.2546 33.7998 14.2546C33.5342 14.2546 33.2661 14.2378 33.118 14.2365V14.3337H33.1801C33.3206 14.334 33.5207 14.3575 33.5207 14.7016V17.0279C33.5207 17.2117 33.3504 17.2956 33.1801 17.2959H33.118V17.3924C33.3357 17.3917 33.5417 17.3743 33.7541 17.3743C34.0071 17.3743 34.2621 17.3917 34.5124 17.3924V17.2959H34.4506C34.2443 17.2955 34.0605 17.2695 34.0605 16.9083V15.9089H34.0802H34.0803ZM34.0803 15.7832H34.0605V14.3813L34.0777 14.3797C34.1395 14.375 34.2007 14.3619 34.3374 14.3619C34.7496 14.3619 35.0174 14.633 35.018 15.0504C35.0167 15.5971 34.7577 15.7828 34.3016 15.7831H34.0803V15.7832ZM34.3016 15.7438C34.7495 15.74 34.9747 15.5826 34.9794 15.0505C34.9769 14.6505 34.7313 14.4022 34.3374 14.4006C34.2151 14.4006 34.1577 14.4121 34.1 14.4172V15.7438H34.3016Z" fill="#272E36"/>
<path d="M39.2584 16.51L39.2666 16.5011V14.7843C39.2666 14.4084 39.0091 14.3538 38.8736 14.3538H38.7745V14.2163C38.9869 14.2163 39.1945 14.2344 39.4074 14.2344C39.5931 14.2344 39.7778 14.2163 39.9644 14.2163V14.3538H39.8964C39.7063 14.3538 39.4937 14.3903 39.4937 14.9351V17.0189C39.4937 17.1789 39.4981 17.3389 39.5203 17.4808H39.3488L37.0198 14.8526V16.7392C37.0198 17.1376 37.0966 17.2745 37.4448 17.2745H37.5216V17.4126C37.3275 17.4126 37.1327 17.3945 36.9386 17.3945C36.7344 17.3945 36.5265 17.4126 36.3232 17.4126V17.2745H36.386C36.6984 17.2745 36.7934 17.0598 36.7934 16.6938V14.7653C36.7934 14.5091 36.5854 14.3538 36.3822 14.3538H36.3232V14.2164C36.4945 14.2164 36.6717 14.2344 36.8432 14.2344C36.9781 14.2344 37.1098 14.2164 37.2456 14.2164L39.2584 16.51Z" fill="#272E36"/>
<path d="M39.5205 17.5007L39.3342 17.4944L37.0388 14.9045V16.7391C37.0442 17.1376 37.1038 17.2505 37.445 17.255H37.5406V17.2747V17.4322H37.5209C37.3252 17.4322 37.1313 17.4134 36.9375 17.4134C36.7356 17.4134 36.5267 17.4322 36.3231 17.4322H36.3027V17.4128V17.255H36.3231H36.3858C36.6844 17.2537 36.77 17.0591 36.7729 16.6928V14.7655C36.7725 14.5217 36.5753 14.3737 36.3821 14.3734H36.3027V14.3541V14.1963H36.3231C36.4956 14.1963 36.6725 14.2144 36.8431 14.2144C36.9761 14.2144 37.1072 14.1963 37.259 14.2026L39.2471 16.4687V14.7842C39.2458 14.4204 39.0049 14.3753 38.8735 14.3734H38.754V14.3541V14.1963H38.7738C38.9877 14.1963 39.1959 14.2144 39.4073 14.2144C39.5917 14.2144 39.7771 14.1963 39.9634 14.1963H39.9831V14.2169V14.3734H39.9634H39.8962C39.7096 14.3785 39.5174 14.3953 39.5127 14.9353V17.0188C39.5127 17.1788 39.5168 17.3375 39.5397 17.4785L39.5422 17.5007H39.5205ZM39.3487 17.4607H39.4973C39.4775 17.3232 39.4731 17.1709 39.4731 17.0188V14.9353C39.4734 14.3857 39.7024 14.335 39.8962 14.3334H39.9436V14.2366C39.7661 14.2378 39.587 14.2544 39.4073 14.2544C39.1997 14.2544 38.998 14.2378 38.7932 14.2366V14.3334H38.8735C39.0127 14.335 39.2869 14.3966 39.2869 14.7842L39.2806 16.515L39.2718 16.5245L39.258 16.5391L37.2452 14.2366C37.1109 14.2366 36.9798 14.2544 36.8431 14.2544C36.6757 14.2544 36.5066 14.2379 36.342 14.2366V14.3334H36.3821C36.5944 14.335 36.8124 14.4972 36.8124 14.7655V16.6928C36.8124 17.0604 36.7102 17.2944 36.3859 17.2956L36.342 17.2953V17.3921C36.5374 17.3912 36.739 17.3747 36.9375 17.3747C37.1273 17.3747 37.3152 17.3912 37.5021 17.3921V17.2956H37.445C37.0887 17.2953 36.9997 17.1376 36.999 16.7391V14.802L39.3487 17.4607ZM39.2583 16.5099L39.2721 16.4969L39.2583 16.5099ZM39.247 16.5013V16.4997L39.2436 16.4963L39.247 16.5013Z" fill="#272E36"/>
<path d="M40.692 16.7578C40.6462 16.913 40.5917 17.033 40.5917 17.1146C40.5917 17.2524 40.782 17.2746 40.9307 17.2746H40.9812V17.4127C40.7999 17.4028 40.6152 17.3946 40.433 17.3946C40.2702 17.3946 40.1084 17.4029 39.9453 17.4127V17.2746H39.9726C40.1488 17.2746 40.2985 17.1695 40.3652 16.9768L41.0897 14.8758C41.1481 14.7063 41.2302 14.4774 41.2576 14.3076C41.4015 14.2578 41.5827 14.1663 41.6684 14.1111C41.6825 14.1064 41.6903 14.1016 41.7045 14.1016C41.718 14.1016 41.7267 14.1016 41.7367 14.1158C41.7499 14.152 41.7631 14.1936 41.7775 14.2301L42.6096 16.6251C42.6638 16.7851 42.7174 16.9543 42.7761 17.092C42.8307 17.2203 42.926 17.2746 43.0756 17.2746H43.1023V17.4127C42.8988 17.4028 42.6949 17.3946 42.4785 17.3946C42.2568 17.3946 42.03 17.4029 41.7995 17.4127V17.2746H41.8497C41.9532 17.2746 42.1301 17.2568 42.1301 17.1422C42.1301 17.0828 42.0893 16.9593 42.0388 16.8124L41.8628 16.2812H40.8364L40.692 16.7578ZM41.3519 14.7292H41.3428L40.9222 16.0251H41.7674L41.3519 14.7292Z" fill="#272E36"/>
<path d="M43.1002 17.432C42.8967 17.4228 42.6931 17.4132 42.4777 17.4132C42.2559 17.4132 42.0308 17.4228 41.7993 17.432L41.7789 17.4333V17.4126V17.2542H41.7987H41.8486C41.9533 17.2542 42.1088 17.2301 42.1088 17.1422C42.1101 17.0901 42.0693 16.9644 42.0194 16.8187L41.8473 16.3009H40.8497L40.7091 16.7634C40.6633 16.9196 40.6091 17.0406 40.6094 17.1152C40.611 17.227 40.78 17.2542 40.9299 17.2542H40.9996V17.2749V17.4333L40.9792 17.432C40.7982 17.4228 40.6135 17.4132 40.4332 17.4132C40.271 17.4132 40.108 17.4228 39.9458 17.432L39.9248 17.4333V17.4126V17.2542H39.9445H39.9715C40.1399 17.2536 40.2805 17.1568 40.3457 16.9705L41.0698 14.8692C41.1292 14.6993 41.2107 14.4711 41.2499 14.2885C41.3916 14.24 41.5732 14.1479 41.6604 14.092C41.673 14.0879 41.6855 14.0816 41.704 14.0816C41.715 14.0812 41.7394 14.0841 41.7539 14.1083C41.7668 14.146 41.7808 14.1867 41.7946 14.2238L42.6277 16.6185C42.681 16.7791 42.7349 16.9483 42.7939 17.0835C42.8463 17.2058 42.9294 17.2537 43.0749 17.2543H43.121V17.2749V17.4333L43.1002 17.432ZM41.8184 17.3911C42.0424 17.3831 42.2616 17.3742 42.4777 17.3742C42.6878 17.3742 42.8844 17.3831 43.081 17.3911V17.2955H43.0748C42.9199 17.2964 42.8129 17.2349 42.7574 17.0999C42.6984 16.9609 42.6432 16.7911 42.5903 16.6307L41.7576 14.2365C41.7438 14.1999 41.7306 14.1584 41.7187 14.126C41.7149 14.1215 41.7159 14.1215 41.7121 14.1215H41.7039C41.6945 14.1215 41.6892 14.1244 41.6776 14.1276C41.5904 14.185 41.4088 14.2749 41.2749 14.3107C41.247 14.4841 41.1658 14.7126 41.1068 14.8822L40.3829 16.9838C40.314 17.1825 40.1556 17.2958 39.9715 17.2955H39.9643V17.3911C40.1192 17.3831 40.276 17.3742 40.4331 17.3742C40.6078 17.3742 40.7866 17.3831 40.9591 17.3911V17.2955H40.9299C40.7829 17.2936 40.5771 17.2767 40.5714 17.1152C40.5718 17.0237 40.6273 16.9066 40.6715 16.752L40.6912 16.758L40.6715 16.7513L40.8204 16.2618H41.8749L42.0564 16.806C42.1073 16.953 42.1483 17.0749 42.1483 17.1422C42.1421 17.2828 41.9511 17.2926 41.8485 17.2955H41.8184V17.3911H41.8184ZM40.8939 16.0447L41.327 14.7091H41.342H41.3515V14.7291L41.3464 14.7301L41.3515 14.7291V14.7091H41.3649L41.7943 16.0447H40.8939ZM40.9481 16.005H41.7397L41.3461 14.778L40.9481 16.005ZM41.3317 14.7349L41.342 14.7314L41.3317 14.7349Z" fill="#272E36"/>
<path d="M43.3009 14.445C42.9615 14.445 42.9481 14.5276 42.8799 14.8615H42.7441C42.762 14.7336 42.7849 14.6056 42.7991 14.4723C42.8172 14.344 42.8254 14.2164 42.8254 14.0837H42.9345C42.9706 14.2212 43.0842 14.2164 43.2055 14.2164H45.5399C45.6613 14.2164 45.7742 14.212 45.7836 14.0742L45.8917 14.0926C45.8745 14.2164 45.8566 14.3399 45.8428 14.4637C45.8331 14.5872 45.8331 14.711 45.8331 14.8342L45.6976 14.8853C45.6891 14.7161 45.6666 14.445 45.3633 14.445H44.6216V16.8812C44.6216 17.2342 44.7803 17.2745 44.9967 17.2745H45.0826V17.4126C44.9063 17.4126 44.5902 17.3945 44.3455 17.3945C44.0746 17.3945 43.7575 17.4126 43.5813 17.4126V17.2745H43.6669C43.9162 17.2745 44.0429 17.252 44.0429 16.8907V14.445H43.3009Z" fill="#272E36"/>
<path d="M45.0821 17.4323C44.9046 17.4323 44.5878 17.4138 44.3451 17.4138C44.0747 17.4138 43.7579 17.4323 43.5807 17.4323H43.5607V17.4129V17.2551H43.5807H43.6663C43.9156 17.2491 44.0158 17.2459 44.022 16.891L44.0214 14.4653H43.3003V14.4452V14.4249H44.0612V16.891C44.0612 17.2583 43.9147 17.2944 43.6663 17.2954H43.5999V17.3932C43.7789 17.3912 44.0825 17.3748 44.3451 17.3748C44.5812 17.3748 44.8836 17.3913 45.0623 17.3932V17.2954H44.9955C44.7781 17.2944 44.6019 17.2414 44.6013 16.8814V14.4249H45.3627C45.6663 14.4262 45.7061 14.6875 45.7147 14.8573L45.8134 14.8208C45.8134 14.7014 45.8138 14.5817 45.8225 14.4617C45.8351 14.344 45.852 14.2265 45.8686 14.1097L45.8003 14.0979C45.7796 14.2312 45.6519 14.2386 45.5393 14.2366H43.205H43.1821C43.0755 14.2379 42.9601 14.2316 42.9189 14.103H42.845C42.8437 14.23 42.8352 14.3532 42.8173 14.4751C42.8054 14.6011 42.7831 14.7224 42.7662 14.8427H42.8632C42.9231 14.5236 42.9623 14.4201 43.3003 14.4249V14.4452V14.4652C42.9651 14.471 42.9726 14.5284 42.8985 14.8668L42.8951 14.8824H42.8794H42.7207L42.7235 14.8595C42.7423 14.7303 42.7649 14.6027 42.7781 14.4703C42.7966 14.3423 42.8054 14.2154 42.8054 14.0839V14.0639H42.8248H42.9484L42.9522 14.0782C42.9838 14.1938 43.0663 14.1944 43.182 14.1963L43.2049 14.197H45.5393C45.6641 14.1944 45.7553 14.1925 45.7632 14.0732L45.7645 14.0513L45.7858 14.0557L45.9141 14.0761L45.9106 14.0961C45.8921 14.2186 45.8749 14.3424 45.8611 14.4653C45.852 14.5872 45.852 14.7113 45.852 14.8345V14.8488L45.8392 14.8538L45.6789 14.9129L45.678 14.8862C45.6663 14.7142 45.6485 14.4652 45.3627 14.4652H44.6405V16.8814C44.6452 17.2268 44.7803 17.2506 44.9955 17.2551H45.1015V17.2748V17.4322L45.0821 17.4323Z" fill="#272E36"/>
<path d="M46.0586 17.2744H46.122C46.2853 17.2744 46.4562 17.2522 46.4562 17.0138V14.615C46.4562 14.3763 46.2853 14.3538 46.122 14.3538H46.0586V14.2163C46.2352 14.2163 46.5062 14.2344 46.7272 14.2344C46.9543 14.2344 47.2256 14.2163 47.4382 14.2163V14.3538H47.3749C47.2121 14.3538 47.0396 14.3763 47.0396 14.615V17.0138C47.0396 17.2522 47.2121 17.2744 47.3749 17.2744H47.4382V17.4125C47.2209 17.4125 46.9493 17.3944 46.7238 17.3944C46.5018 17.3944 46.2352 17.4125 46.0586 17.4125V17.2744Z" fill="#272E36"/>
<path d="M47.4384 17.432C47.2199 17.432 46.9492 17.4133 46.7237 17.4133C46.5026 17.4133 46.2354 17.432 46.0588 17.432H46.0391V17.4127V17.2746V17.2549H46.0588H46.1222C46.2855 17.2523 46.4355 17.238 46.4361 17.0139V14.6152C46.4355 14.3917 46.2855 14.3764 46.1222 14.3733H46.0391V14.3539V14.1968H46.0588C46.2354 14.1968 46.507 14.2142 46.7274 14.2142C46.953 14.2142 47.2242 14.1968 47.4384 14.1968H47.4576V14.2164V14.3733H47.4384H47.3751C47.2098 14.3764 47.0614 14.3917 47.0593 14.6152V17.0139C47.0614 17.238 47.2098 17.2523 47.3751 17.2549H47.4576V17.2746V17.432H47.4384ZM47.4181 17.392V17.2952H47.3751C47.2129 17.2952 47.021 17.2663 47.021 17.0139V14.6152C47.021 14.3621 47.2129 14.3336 47.3751 14.3336H47.4181V14.2364C47.2092 14.2377 46.9479 14.2542 46.7274 14.2542C46.5132 14.2542 46.2539 14.2377 46.0786 14.2364V14.3336H46.1222C46.2831 14.3336 46.4757 14.3621 46.4763 14.6152V17.0139C46.4756 17.2663 46.2831 17.2952 46.1222 17.2952H46.0786V17.392C46.253 17.3901 46.5089 17.3745 46.7237 17.3745C46.9429 17.3745 47.2048 17.3911 47.418 17.392H47.4181Z" fill="#272E36"/>
<path d="M49.2414 14.1479C50.2055 14.1479 50.9738 14.753 50.9738 15.7279C50.9738 16.7813 50.2277 17.4813 49.2649 17.4813C48.3052 17.4813 47.5732 16.8219 47.5732 15.8375C47.5732 14.8854 48.3008 14.1479 49.2414 14.1479ZM49.3097 17.2797C50.1873 17.2797 50.34 16.4962 50.34 15.8286C50.34 15.1594 49.9838 14.3492 49.2326 14.3492C48.441 14.3492 48.2061 15.0635 48.2061 15.6765C48.2061 16.4962 48.5768 17.2797 49.3097 17.2797Z" fill="#272E36"/>
<path d="M47.5537 15.8375C47.5556 14.8743 48.292 14.1292 49.242 14.1279V14.1479V14.1673C48.3124 14.1673 47.5929 14.8952 47.592 15.8374C47.5942 16.8108 48.3159 17.4603 49.2655 17.4606C50.2189 17.4603 50.9544 16.7701 50.9559 15.727C50.955 14.7644 50.1982 14.1685 49.242 14.1673V14.1479V14.1279C50.2136 14.1286 50.9923 14.7397 50.9942 15.727C50.9933 16.7914 50.2374 17.4987 49.2655 17.5006C48.2983 17.4987 47.5556 16.8327 47.5538 15.8374H47.5537V15.8375ZM48.1873 15.6765C48.1885 15.0607 48.4262 14.3286 49.2335 14.3286C50.0013 14.3305 50.3597 15.1559 50.361 15.8286C50.3597 16.4962 50.2045 17.2988 49.3107 17.2988V17.2797V17.26C50.1707 17.2588 50.3196 16.4962 50.3218 15.8286C50.3218 15.1648 49.9686 14.3702 49.2335 14.3692C48.4576 14.3702 48.228 15.0667 48.2265 15.6765C48.2271 16.4921 48.5944 17.2581 49.3107 17.26V17.2797V17.2988C48.5599 17.2978 48.1885 16.501 48.1873 15.6765Z" fill="#272E36"/>
<path d="M54.0224 16.51L54.0316 16.5011V14.7843C54.0316 14.4084 53.7731 14.3538 53.6373 14.3538H53.5395V14.2163C53.7515 14.2163 53.9594 14.2344 54.1714 14.2344C54.3574 14.2344 54.5427 14.2163 54.7284 14.2163V14.3538H54.66C54.4706 14.3538 54.2577 14.3903 54.2577 14.9351V17.0189C54.2577 17.1789 54.2621 17.3389 54.285 17.4808H54.1134L51.7838 14.8526V16.7392C51.7838 17.1376 51.8603 17.2745 52.2084 17.2745H52.2859V17.4126C52.0911 17.4126 51.897 17.3945 51.7025 17.3945C51.499 17.3945 51.2905 17.4126 51.0869 17.4126V17.2745H51.1506C51.4633 17.2745 51.557 17.0598 51.557 16.6938V14.7653C51.557 14.5091 51.35 14.3538 51.1458 14.3538H51.0869V14.2164C51.2587 14.2164 51.4353 14.2344 51.6069 14.2344C51.7427 14.2344 51.8735 14.2164 52.0096 14.2164L54.0224 16.51Z" fill="#272E36"/>
<path d="M54.2849 17.5006L54.0977 17.4939L51.8029 14.9044V16.7393C51.8079 17.1374 51.8678 17.2501 52.2074 17.2542H52.3053V17.2749V17.432H52.2855C52.0895 17.432 51.8954 17.4136 51.7022 17.4136C51.4992 17.4136 51.2917 17.432 51.0862 17.432H51.0674V17.4123V17.2542H51.0862H51.1502C51.4485 17.2533 51.5341 17.059 51.5378 16.6939V14.7653C51.5372 14.5215 51.3399 14.3736 51.1455 14.3733H51.0674V14.3539V14.1968H51.0862C51.2597 14.1968 51.4359 14.2143 51.6065 14.2143C51.7408 14.2143 51.8712 14.1968 52.0243 14.2035L54.0114 16.4686V14.7847C54.0101 14.4203 53.7693 14.3765 53.6369 14.3733H53.5181V14.354V14.1968H53.5385C53.7514 14.1968 53.9599 14.2143 54.1704 14.2143C54.356 14.2143 54.5405 14.1968 54.728 14.1968H54.7474V14.2165V14.3733H54.728H54.6596C54.4736 14.3787 54.2811 14.3959 54.2773 14.9352V17.0187C54.2773 17.1787 54.2807 17.3384 54.3027 17.4784L54.3065 17.5006H54.2849V17.5006ZM54.1131 17.4606H54.2611C54.2414 17.3231 54.2379 17.1707 54.2379 17.0187V14.9352C54.2379 14.3847 54.4659 14.3348 54.6598 14.3333H54.7087V14.2364C54.5302 14.2377 54.3515 14.2542 54.1705 14.2542C53.9648 14.2542 53.7625 14.2377 53.5577 14.2364V14.3333H53.637C53.7772 14.3348 54.05 14.3974 54.05 14.7847L54.0451 16.5148L54.0366 16.5244L54.0222 16.539L52.0094 14.2365C51.8761 14.2365 51.744 14.2542 51.6067 14.2542C51.4401 14.2542 51.2704 14.2377 51.1058 14.2365V14.3333H51.1456C51.358 14.3349 51.5765 14.4971 51.5765 14.7653V16.6939C51.5765 17.06 51.4756 17.2942 51.1503 17.2955L51.1058 17.2952V17.392C51.3021 17.3911 51.5034 17.3746 51.7023 17.3746C51.8908 17.3746 52.078 17.3911 52.2659 17.392V17.2955H52.2075C51.8526 17.2952 51.7638 17.1374 51.7638 16.7393V14.8012L54.1131 17.4606ZM54.0221 16.5098L54.0365 16.4967L54.0221 16.5098ZM54.0115 16.5012V16.4996L54.0077 16.4961L54.0115 16.5012Z" fill="#272E36"/>
<path d="M55.4551 16.7578C55.4109 16.913 55.356 17.033 55.356 17.1146C55.356 17.2524 55.5464 17.2746 55.6948 17.2746H55.7452V17.4127C55.5643 17.4028 55.3786 17.3946 55.1977 17.3946C55.0342 17.3946 54.8721 17.4029 54.71 17.4127V17.2746H54.7357C54.9129 17.2746 55.0628 17.1695 55.1296 16.9768L55.8541 14.8758C55.9124 14.7063 55.9943 14.4774 56.0207 14.3076C56.1655 14.2578 56.3462 14.1663 56.433 14.1111C56.4459 14.1064 56.455 14.1016 56.4688 14.1016C56.4823 14.1016 56.4907 14.1016 56.4998 14.1158C56.5136 14.152 56.5278 14.1936 56.5412 14.2301L57.373 16.6251C57.4272 16.7851 57.4812 16.9543 57.5408 17.092C57.595 17.2203 57.6904 17.2746 57.839 17.2746H57.8667V17.4127C57.6628 17.4028 57.4593 17.3946 57.2419 17.3946C57.0208 17.3946 56.7944 17.4029 56.5635 17.4127V17.2746H56.6138C56.7169 17.2746 56.8944 17.2568 56.8944 17.1422C56.8944 17.0828 56.8533 16.9593 56.8028 16.8124L56.6272 16.2812H55.6004L55.4551 16.7578ZM56.1163 14.7292H56.1072L55.686 16.0251H56.5324L56.1163 14.7292Z" fill="#272E36"/>
<path d="M57.864 17.4323C57.6604 17.4241 57.4573 17.4139 57.2412 17.4139C57.0207 17.4139 56.7943 17.4241 56.5634 17.4323L56.5433 17.4336V17.4126V17.2552H56.5628H56.612C56.7174 17.2552 56.8733 17.2304 56.8736 17.1425C56.8745 17.0904 56.8337 16.9657 56.7833 16.819L56.6114 16.3012H55.6131L55.4732 16.7637C55.4281 16.9205 55.3741 17.0409 55.3751 17.1149C55.3751 17.2272 55.5444 17.2552 55.6941 17.2552H55.763V17.2749V17.4336L55.743 17.4323C55.562 17.4241 55.3769 17.4139 55.197 17.4139C55.0348 17.4139 54.8723 17.4241 54.7092 17.4323L54.6895 17.4336V17.4126V17.2552H54.7092H54.735C54.9037 17.2545 55.0448 17.1565 55.1107 16.9707L55.8345 14.8695C55.8922 14.6996 55.9737 14.4714 56.0139 14.2895C56.156 14.2396 56.3375 14.1482 56.4254 14.0923C56.4373 14.0882 56.4495 14.0828 56.468 14.0828C56.48 14.0815 56.5031 14.0844 56.5176 14.1094C56.5311 14.1453 56.5442 14.1869 56.5593 14.224L57.391 16.6187C57.445 16.7793 57.4992 16.9485 57.5579 17.0847C57.6108 17.206 57.6934 17.2539 57.8376 17.2552H57.8847V17.2749V17.4336L57.864 17.4323ZM56.5822 17.392C56.8058 17.3834 57.026 17.3745 57.2412 17.3745C57.4516 17.3745 57.6489 17.3834 57.8458 17.3913L57.8452 17.2958H57.8376C57.6846 17.2961 57.5777 17.2351 57.5215 17.1002C57.4619 16.9612 57.408 16.7913 57.354 16.6316L56.5216 14.2367C56.5082 14.2002 56.4944 14.1586 56.4834 14.1275C56.4796 14.1218 56.48 14.1218 56.4765 14.1218H56.468C56.4586 14.1218 56.4536 14.125 56.4426 14.1282C56.3545 14.1844 56.1732 14.2758 56.0393 14.311C56.0113 14.4844 55.9292 14.7126 55.8709 14.8824L55.1467 16.984C55.078 17.1828 54.92 17.2961 54.7349 17.2958H54.7283V17.3913C54.8839 17.3834 55.0394 17.3745 55.1969 17.3745C55.3722 17.3745 55.5506 17.3834 55.7247 17.3913V17.2958H55.694C55.5469 17.2938 55.3405 17.2777 55.3352 17.1148C55.3361 17.024 55.3923 16.9075 55.4359 16.7523L55.4544 16.7583L55.4359 16.7516L55.5848 16.2621H56.6396L56.8208 16.8062C56.8707 16.9536 56.9118 17.0751 56.9118 17.1424C56.9052 17.2831 56.7155 17.2929 56.6119 17.2958H56.5822V17.392H56.5822ZM55.6583 16.0447L56.092 14.7094H56.1058H56.1155V14.7294L56.1108 14.7304L56.1155 14.7294V14.7094H56.1297L56.5571 16.0447H55.6583ZM55.7125 16.0053H56.5035L56.1102 14.779L55.7125 16.0053ZM56.0967 14.7352L56.1058 14.7317L56.0967 14.7352Z" fill="#272E36"/>
<path d="M59.0063 16.9636C59.0063 17.1468 59.1318 17.2014 59.2767 17.2201C59.462 17.2341 59.6656 17.2341 59.8745 17.2109C60.0639 17.1878 60.227 17.0779 60.3079 16.9636C60.38 16.8627 60.4208 16.7344 60.4481 16.6338H60.5792C60.5296 16.8947 60.4663 17.1519 60.4117 17.4125C60.0146 17.4125 59.6157 17.3944 59.2183 17.3944C58.8197 17.3944 58.4224 17.4125 58.0244 17.4125V17.2744H58.0865C58.2502 17.2744 58.4271 17.2522 58.4271 16.9681V14.615C58.4271 14.3763 58.2502 14.3538 58.0865 14.3538H58.0244V14.2163C58.2634 14.2163 58.4989 14.2344 58.7382 14.2344C58.9696 14.2344 59.1955 14.2163 59.4263 14.2163V14.3538H59.3124C59.1412 14.3538 59.0063 14.3588 59.0063 14.6008V16.9636Z" fill="#272E36"/>
<path d="M60.4113 17.432C60.0127 17.432 59.6147 17.4136 59.218 17.4136C58.8196 17.4136 58.4217 17.432 58.0231 17.432H58.0039V17.4123V17.2548H58.0231H58.0861C58.2501 17.251 58.4051 17.2396 58.4069 16.9682V14.6142C58.405 14.3917 58.251 14.3765 58.0861 14.3733H58.0039V14.3539V14.1968H58.0231C58.2636 14.1968 58.4992 14.2142 58.7381 14.2142C58.9677 14.2142 59.1935 14.1968 59.4259 14.1968H59.4444V14.2165V14.3733H59.4259H59.3124C59.1371 14.3783 59.0279 14.3701 59.0245 14.6009V16.9638C59.0257 17.1342 59.1362 17.1803 59.2773 17.2003C59.3572 17.206 59.441 17.2095 59.5282 17.2095C59.6389 17.2095 59.754 17.2041 59.8707 17.1914C60.055 17.1695 60.2137 17.0619 60.2915 16.9527C60.3611 16.8549 60.4013 16.7292 60.4283 16.6292L60.4324 16.614H60.4474H60.6027L60.5986 16.6381C60.5475 16.9 60.4854 17.1559 60.4305 17.4165L60.4268 17.432H60.4114H60.4113V17.432ZM60.395 17.392C60.4474 17.1437 60.5067 16.9008 60.5553 16.6532H60.4624C60.4342 16.7529 60.394 16.8758 60.3229 16.9758C60.2385 17.0945 60.071 17.2062 59.875 17.2307C59.7565 17.2431 59.6391 17.2494 59.5282 17.2494C59.4406 17.2494 59.3557 17.2453 59.2738 17.2395C59.1267 17.223 58.984 17.1595 58.9846 16.9637V14.6008C58.9846 14.3466 59.1436 14.3335 59.3124 14.3335H59.4058V14.2364C59.1829 14.2377 58.9633 14.2545 58.7381 14.2545C58.5038 14.2545 58.2748 14.2377 58.0428 14.2364V14.3335H58.0861C58.2476 14.3335 58.4451 14.3621 58.4451 14.6142V16.9681C58.4451 17.2643 58.2485 17.2951 58.0861 17.2951H58.0428V17.392C58.4339 17.3916 58.825 17.3745 59.2179 17.3745C59.6109 17.3745 60.0036 17.3916 60.395 17.392Z" fill="#272E36"/>
<path d="M60.5243 14.0864C60.7968 14.0864 61.0004 14.2985 61.0004 14.5702C61.0004 14.8407 60.7968 15.0509 60.5243 15.0509C60.2517 15.0509 60.0479 14.8407 60.0479 14.5702C60.0478 14.2985 60.2517 14.0864 60.5243 14.0864ZM60.5243 14.961C60.7372 14.961 60.9009 14.7769 60.9009 14.5702C60.9009 14.3623 60.7397 14.1766 60.5243 14.1766C60.3101 14.1766 60.1463 14.3623 60.1463 14.5702C60.1463 14.7769 60.3101 14.961 60.5243 14.961ZM60.2871 14.8242V14.8004C60.3458 14.7921 60.3564 14.794 60.3564 14.7572V14.4004C60.3564 14.3503 60.3511 14.3331 60.2893 14.3356V14.3112H60.533C60.6171 14.3112 60.6939 14.3515 60.6939 14.4391C60.6939 14.5109 60.6468 14.5639 60.5813 14.5845L60.6594 14.695C60.6961 14.7451 60.7372 14.7921 60.7645 14.8086V14.8242H60.6717C60.6271 14.8242 60.5882 14.7293 60.5004 14.602H60.4477V14.7623C60.4477 14.794 60.4587 14.7921 60.5173 14.8004V14.8242H60.2871V14.8242ZM60.4477 14.5702H60.5039C60.5653 14.5702 60.5942 14.5229 60.5942 14.4471C60.5942 14.3702 60.5496 14.3432 60.5007 14.3432H60.4477V14.5702Z" fill="#272E36"/>
</g>
<defs>
<clipPath id="clip0_7382_2710">
<rect width="61" height="24" fill="white"/>
</clipPath>
</defs>
</svg>
