<svg width="40" height="24" viewBox="0 0 40 24" fill="none" xmlns="http://www.w3.org/2000/svg">
<path d="M15.4281 6.2121L10.453 17.8185H7.20723L4.75901 8.55606C4.61038 7.98555 4.48114 7.77654 4.0291 7.53619C3.29107 7.14469 2.07231 6.77738 1 6.54941L1.07283 6.2121H6.29761C6.96359 6.2121 7.56229 6.64559 7.7135 7.3955L9.00648 14.1115L12.202 6.21191L15.4281 6.2121ZM28.1457 14.0291C28.1588 10.9658 23.8137 10.7971 23.8436 9.42865C23.8529 9.01219 24.2585 8.56941 25.1461 8.45639C25.5861 8.40008 26.7983 8.35712 28.1732 8.97581L28.7125 6.51458C27.9737 6.25235 27.0231 6 25.8404 6C22.8054 6 20.6694 7.5776 20.6514 9.8366C20.6318 11.5075 22.176 12.4399 23.3393 12.9951C24.5361 13.5637 24.9377 13.929 24.9331 14.4376C24.9246 15.2162 23.9786 15.5599 23.0945 15.5734C21.5512 15.5966 20.6556 15.1651 19.9417 14.8405L19.3852 17.3832C20.1026 17.7051 21.4269 17.9859 22.7998 18C26.0256 18 28.1358 16.4419 28.1457 14.0291ZM36.1601 17.8185H39L36.5211 6.2121H33.8999C33.3105 6.2121 32.8134 6.54767 32.5933 7.0636L27.9856 17.8185H31.2098L31.8499 16.0849H35.7894L36.1601 17.8185ZM32.734 13.7061L34.3502 9.34834L35.2804 13.7061H32.734ZM19.8152 6.2121L17.2762 17.8185H14.2057L16.7458 6.2121H19.8152Z" fill="#1434CB"/>
</svg>
