<svg width="40" height="24" viewBox="0 0 40 24" fill="none" xmlns="http://www.w3.org/2000/svg">
<path d="M24.0073 16.6479H16.3418V2.87207H24.0073V16.6479Z" fill="#6C6BBD"/>
<path d="M16.8282 9.76132C16.8282 6.96682 18.1366 4.47757 20.1741 2.87339C18.6841 1.70034 16.8037 1.00018 14.76 1.00018C9.92188 1.00018 6 4.92262 6 9.76132C6 14.6 9.92188 18.5225 14.76 18.5225C16.8037 18.5225 18.6841 17.8223 20.1741 16.6493C18.1366 15.0451 16.8282 12.5558 16.8282 9.76132Z" fill="#D32011"/>
<path d="M34.3485 9.76132C34.3485 14.6 30.4266 18.5225 25.5885 18.5225C23.5448 18.5225 21.6644 17.8223 20.1738 16.6493C22.2119 15.0451 23.5203 12.5558 23.5203 9.76132C23.5203 6.96682 22.2119 4.47757 20.1738 2.87339C21.6644 1.70034 23.5448 1.00018 25.5885 1.00018C30.4266 1.00018 34.3485 4.92262 34.3485 9.76132Z" fill="#0099DF"/>
<path d="M26.6006 20.5414C26.7026 20.5414 26.8491 20.5609 26.961 20.6049L26.8051 21.0817C26.6981 21.0377 26.5912 21.0232 26.4887 21.0232C26.1578 21.0232 25.9924 21.2371 25.9924 21.6214V22.9259H25.4861V20.5999H25.9874V20.8823C26.1188 20.6778 26.3088 20.5414 26.6006 20.5414ZM24.7302 21.0622H23.9031V22.1132C23.9031 22.3466 23.9855 22.5026 24.2389 22.5026C24.3704 22.5026 24.5358 22.4586 24.6862 22.3711L24.8321 22.8039C24.6717 22.9159 24.4189 22.9844 24.1999 22.9844C23.6012 22.9844 23.3923 22.663 23.3923 22.1227V21.0622H22.9199V20.5999H23.3923V19.8941H23.9031V20.5999H24.7302V21.0622ZM18.2528 21.5585C18.3068 21.2226 18.5107 20.9937 18.8711 20.9937C19.1969 20.9937 19.4064 21.1981 19.4598 21.5585H18.2528ZM19.9856 21.7629C19.9806 21.0377 19.5328 20.5414 18.8805 20.5414C18.1993 20.5414 17.7225 21.0377 17.7225 21.7629C17.7225 22.502 18.2188 22.9838 18.9151 22.9838C19.2654 22.9838 19.5863 22.8964 19.8687 22.658L19.6202 22.2831C19.4259 22.4391 19.1774 22.5265 18.944 22.5265C18.6182 22.5265 18.3213 22.3756 18.2483 21.9573H19.9756C19.9806 21.8938 19.9856 21.8308 19.9856 21.7629ZM22.2092 21.1936C22.0683 21.1056 21.7814 20.9937 21.4845 20.9937C21.2072 20.9937 21.0417 21.0962 21.0417 21.2666C21.0417 21.422 21.2166 21.466 21.4355 21.495L21.6739 21.5289C22.1802 21.6025 22.4866 21.8164 22.4866 22.2252C22.4866 22.668 22.0973 22.9844 21.4261 22.9844C21.0462 22.9844 20.6958 22.8869 20.4184 22.6825L20.6568 22.2881C20.8273 22.4196 21.0807 22.5316 21.4311 22.5316C21.7764 22.5316 21.9613 22.4296 21.9613 22.2492C21.9613 22.1183 21.8299 22.0447 21.5525 22.0063L21.3141 21.9723C20.7933 21.8988 20.5109 21.6654 20.5109 21.2861C20.5109 20.8238 20.8908 20.5414 21.4795 20.5414C21.8494 20.5414 22.1853 20.6244 22.4281 20.7848L22.2092 21.1936ZM28.4505 21.0221C28.3463 21.0221 28.2499 21.0405 28.1603 21.0767C28.0711 21.1134 27.9937 21.1647 27.9285 21.2304C27.8634 21.2961 27.8121 21.3752 27.7748 21.4671C27.7375 21.559 27.7191 21.6604 27.7191 21.7707C27.7191 21.8815 27.7375 21.9824 27.7748 22.0743C27.8121 22.1662 27.8634 22.2453 27.9285 22.311C27.9937 22.3767 28.0711 22.428 28.1603 22.4647C28.2499 22.5015 28.3463 22.5193 28.4505 22.5193C28.5546 22.5193 28.6515 22.5015 28.7407 22.4647C28.8303 22.428 28.9083 22.3767 28.9735 22.311C29.0398 22.2453 29.091 22.1662 29.1289 22.0743C29.1662 21.9824 29.1846 21.8815 29.1846 21.7707C29.1846 21.6604 29.1662 21.559 29.1289 21.4671C29.091 21.3752 29.0398 21.2961 28.9735 21.2304C28.9083 21.1647 28.8303 21.1134 28.7407 21.0767C28.6515 21.0405 28.5546 21.0221 28.4505 21.0221ZM28.4505 20.5414C28.6309 20.5414 28.798 20.5726 28.9518 20.6355C29.1055 20.6979 29.2386 20.7842 29.3506 20.894C29.4631 21.0037 29.5505 21.1335 29.614 21.2828C29.6775 21.4326 29.7093 21.5952 29.7093 21.7707C29.7093 21.9461 29.6775 22.1088 29.614 22.2586C29.5505 22.4079 29.4631 22.5382 29.3506 22.648C29.2386 22.7577 29.1055 22.8435 28.9518 22.9064C28.798 22.9688 28.6309 23 28.4505 23C28.27 23 28.1029 22.9688 27.9492 22.9064C27.7954 22.8435 27.6634 22.7577 27.552 22.648C27.4406 22.5382 27.3532 22.4079 27.2897 22.2586C27.2262 22.1088 27.1944 21.9461 27.1944 21.7707C27.1944 21.5952 27.2262 21.4326 27.2897 21.2828C27.3532 21.1335 27.4406 21.0037 27.552 20.894C27.6634 20.7842 27.7954 20.6979 27.9492 20.6355C28.1029 20.5726 28.27 20.5414 28.4505 20.5414ZM15.2962 21.7629C15.2962 21.354 15.5641 21.0182 16.0019 21.0182C16.4203 21.0182 16.7027 21.3396 16.7027 21.7629C16.7027 22.1862 16.4203 22.5071 16.0019 22.5071C15.5641 22.5071 15.2962 22.1717 15.2962 21.7629ZM17.1795 21.7629V20.5999H16.6737V20.8823C16.5127 20.6728 16.2699 20.5414 15.939 20.5414C15.2867 20.5414 14.776 21.0522 14.776 21.7629C14.776 22.4731 15.2867 22.9844 15.939 22.9844C16.2699 22.9844 16.5127 22.8529 16.6737 22.6435V22.9259H17.1795V21.7629ZM14.3281 22.9259V21.466C14.3281 20.9162 13.9778 20.5464 13.4135 20.5414C13.1167 20.5364 12.8097 20.6288 12.5959 20.9552C12.4354 20.6973 12.182 20.5414 11.8266 20.5414C11.5788 20.5414 11.3353 20.6143 11.1454 20.8867V20.5999H10.6396V22.9259H11.1504V21.6364C11.1504 21.2326 11.3743 21.0182 11.7197 21.0182C12.0556 21.0182 12.226 21.2371 12.226 21.6314V22.9259H12.7368V21.6364C12.7368 21.2326 12.9707 21.0182 13.306 21.0182C13.6519 21.0182 13.8174 21.2371 13.8174 21.6314V22.9259H14.3281Z" fill="#272E36"/>
</svg>
