<?xml version="1.0" encoding="UTF-8" standalone="no"?>
<svg
   width="210"
   height="21.999964"
   viewBox="0 0 210 21.999964"
   fill="none"
   version="1.1"
   id="svg93"
   sodipodi:docname="kartice.svg"
   inkscape:version="1.4.2 (f4327f4, 2025-05-13)"
   xmlns:inkscape="http://www.inkscape.org/namespaces/inkscape"
   xmlns:sodipodi="http://sodipodi.sourceforge.net/DTD/sodipodi-0.dtd"
   xmlns="http://www.w3.org/2000/svg"
   xmlns:svg="http://www.w3.org/2000/svg">
  <sodipodi:namedview
     id="namedview93"
     pagecolor="#ffffff"
     bordercolor="#000000"
     borderopacity="0.25"
     inkscape:showpageshadow="2"
     inkscape:pageopacity="0.0"
     inkscape:pagecheckerboard="0"
     inkscape:deskcolor="#d1d1d1"
     inkscape:zoom="6.7335766"
     inkscape:cx="98.758808"
     inkscape:cy="12.697561"
     inkscape:window-width="3840"
     inkscape:window-height="2137"
     inkscape:window-x="-8"
     inkscape:window-y="-8"
     inkscape:window-maximized="1"
     inkscape:current-layer="svg93" />
  <path
     d="M 14.4281,5.212163 9.453,16.818563 H 6.20723 L 3.75901,7.556123 C 3.61038,6.985613 3.48114,6.776603 3.0291,6.536253 2.29107,6.144753 1.07231,5.777443 0,5.549473 l 0.07283,-0.33731 h 5.22478 c 0.66598,0 1.26468,0.43349 1.41589,1.1834 l 1.29298,6.716 3.19552,-7.89959 z m 12.7176,7.817 c 0.0131,-3.0633 -4.332,-3.232 -4.3021,-4.60045 0.0093,-0.41646 0.4149,-0.85924 1.3025,-0.97226 0.44,-0.05631 1.6522,-0.09927 3.0271,0.51942 l 0.5393,-2.46123 c -0.7388,-0.26223 -1.6894,-0.51458 -2.8721,-0.51458 -3.035,0 -5.171,1.5776 -5.189,3.8366 -0.0196,1.6709 1.5246,2.6033 2.6879,3.1585 1.1968,0.5686 1.5984,0.9339 1.5938,1.4425 -0.0085,0.7786 -0.9545,1.1223 -1.8386,1.1358 -1.5433,0.0232 -2.4389,-0.4083 -3.1528,-0.7329 l -0.5565,2.5427 c 0.7174,0.3219 2.0417,0.6027 3.4146,0.6168 3.2258,0 5.336,-1.5581 5.3459,-3.9709 z m 8.0144,3.7894 H 38 l -2.4789,-11.6064 h -2.6212 c -0.5894,0 -1.0865,0.33557 -1.3066,0.8515 l -4.6077,10.7549 h 3.2242 l 0.6401,-1.7336 h 3.9395 z m -3.4261,-4.1124 1.6162,-4.35776 0.9302,4.35776 z m -12.9188,-7.494 -2.539,11.6064 h -3.0705 l 2.5401,-11.6064 z"
     fill="#90979f"
     id="path1" />
  <path
     d="m 59.8936,21.951763 v -1.46 c 0,-0.5585 -0.3242,-0.9243 -0.8809,-0.9243 -0.2783,0 -0.5809,0.0964 -0.789,0.414 -0.1621,-0.2665 -0.3945,-0.414 -0.7431,-0.414 -0.2324,0 -0.4648,0.0737 -0.6485,0.3402 v -0.292 h -0.4864 v 2.3361 h 0.4864 v -1.2899 c 0,-0.414 0.2081,-0.6096 0.5323,-0.6096 0.3243,0 0.4864,0.2183 0.4864,0.6096 v 1.2899 h 0.4864 v -1.2899 c 0,-0.414 0.2324,-0.6096 0.5323,-0.6096 0.3243,0 0.4864,0.2183 0.4864,0.6096 v 1.2899 z m 7.2148,-2.3361 h -0.789 v -0.7059 H 65.833 v 0.7059 h -0.4405 v 0.4621 h 0.4405 v 1.0717 c 0,0.5358 0.2081,0.8505 0.7647,0.8505 0.2081,0 0.4405,-0.0737 0.6026,-0.1701 l -0.1405,-0.4394 c -0.1405,0.0964 -0.3027,0.1219 -0.4189,0.1219 -0.2323,0 -0.3242,-0.1474 -0.3242,-0.3884 v -1.0462 h 0.789 v -0.4621 z m 4.1289,-0.051 c -0.2783,0 -0.4648,0.1474 -0.5809,0.3402 v -0.292 H 70.17 v 2.3361 h 0.4864 v -1.3155 c 0,-0.3884 0.1621,-0.6095 0.4647,-0.6095 0.0919,0 0.2081,0.0255 0.3027,0.0482 l 0.1405,-0.4877 c -0.0973,-0.0198 -0.2351,-0.0198 -0.327,-0.0198 z m -6.2393,0.2438 c -0.2324,-0.1701 -0.5566,-0.2438 -0.9052,-0.2438 -0.5566,0 -0.9268,0.292 -0.9268,0.7541 0,0.3884 0.2783,0.6096 0.7647,0.6804 l 0.2324,0.0256 c 0.254,0.0481 0.3945,0.1219 0.3945,0.2438 0,0.1701 -0.1865,0.292 -0.5107,0.292 -0.3243,0 -0.581,-0.1219 -0.7431,-0.2438 l -0.2324,0.3884 c 0.254,0.1956 0.6026,0.292 0.9511,0.292 0.6486,0 1.0215,-0.3175 1.0215,-0.7541 0,-0.414 -0.3027,-0.6323 -0.7647,-0.706 l -0.2324,-0.0255 c -0.2081,-0.0255 -0.3702,-0.0737 -0.3702,-0.2183 0,-0.1701 0.1621,-0.2665 0.4188,-0.2665 0.2783,0 0.5566,0.1219 0.6972,0.1956 z m 12.9407,-0.2438 c -0.2783,0 -0.4648,0.1474 -0.581,0.3402 v -0.292 h -0.4864 v 2.3361 h 0.4864 v -1.3155 c 0,-0.3884 0.1621,-0.6095 0.4648,-0.6095 0.0919,0 0.2081,0.0255 0.3026,0.0482 l 0.1405,-0.482 c -0.0945,-0.0255 -0.2323,-0.0255 -0.3269,-0.0255 z m -6.215,1.2191 c 0,0.7059 0.4648,1.2162 1.1836,1.2162 0.3242,0 0.5566,-0.0737 0.789,-0.2665 l -0.2324,-0.4139 c -0.1865,0.1474 -0.3702,0.2183 -0.581,0.2183 -0.3945,0 -0.6728,-0.292 -0.6728,-0.7541 0,-0.4395 0.2783,-0.7315 0.6728,-0.7541 0.2081,0 0.3945,0.0737 0.581,0.2183 l 0.2324,-0.414 c -0.2324,-0.1956 -0.4648,-0.2665 -0.789,-0.2665 -0.7188,-0.0028 -1.1836,0.5103 -1.1836,1.2163 z m 4.4991,0 v -1.1681 h -0.4864 v 0.292 c -0.1621,-0.2183 -0.3945,-0.3402 -0.6971,-0.3402 -0.6269,0 -1.1133,0.5103 -1.1133,1.2163 0,0.7059 0.4864,1.2162 1.1133,1.2162 0.3242,0 0.5566,-0.1219 0.6971,-0.3402 v 0.292 h 0.4864 z m -1.7861,0 c 0,-0.4139 0.254,-0.7541 0.6728,-0.7541 0.3945,0 0.6729,0.3175 0.6729,0.7541 0,0.4139 -0.2784,0.7541 -0.6729,0.7541 -0.4161,-0.0255 -0.6728,-0.343 -0.6728,-0.7541 z m -5.8205,-1.2191 c -0.6485,0 -1.1133,0.4876 -1.1133,1.2162 0,0.7315 0.4648,1.2163 1.1376,1.2163 0.3243,0 0.6486,-0.0964 0.9053,-0.3175 l -0.2324,-0.3658 c -0.1865,0.1475 -0.4189,0.2438 -0.6485,0.2438 -0.3027,0 -0.6026,-0.1474 -0.6729,-0.5585 h 1.6456 c 0,-0.0737 0,-0.1219 0,-0.1956 0.0217,-0.7513 -0.3972,-1.2389 -1.0214,-1.2389 z m 0,0.4394 c 0.3027,0 0.5107,0.1957 0.5567,0.5585 h -1.1593 c 0.046,-0.3147 0.254,-0.5585 0.6026,-0.5585 z m 12.0841,0.7797 v -2.0923 h -0.4864 v 1.2162 c -0.1621,-0.2183 -0.3945,-0.3402 -0.6972,-0.3402 -0.6269,0 -1.1132,0.5103 -1.1132,1.2163 0,0.7059 0.4863,1.2162 1.1132,1.2162 0.3243,0 0.5567,-0.1219 0.6972,-0.3402 v 0.292 h 0.4864 z m -1.7861,0 c 0,-0.4139 0.254,-0.7541 0.6728,-0.7541 0.3945,0 0.6728,0.3175 0.6728,0.7541 0,0.4139 -0.2783,0.7541 -0.6728,0.7541 -0.4188,-0.0255 -0.6728,-0.343 -0.6728,-0.7541 z m -16.2833,0 v -1.1681 h -0.4864 v 0.292 c -0.1621,-0.2183 -0.3945,-0.3402 -0.6971,-0.3402 -0.6269,0 -1.1133,0.5103 -1.1133,1.2163 0,0.7059 0.4864,1.2162 1.1133,1.2162 0.3242,0 0.5566,-0.1219 0.6971,-0.3402 v 0.292 h 0.4864 z m -1.8077,0 c 0,-0.4139 0.254,-0.7541 0.6728,-0.7541 0.3945,0 0.6729,0.3175 0.6729,0.7541 0,0.4139 -0.2784,0.7541 -0.6729,0.7541 -0.4188,-0.0255 -0.6728,-0.343 -0.6728,-0.7541 z"
     fill="#d3dae2"
     id="path2" />
  <path
     d="m 72.1426,1.874083 h -7.3067 v 13.77268 h 7.3067 z"
     fill="#7c838b"
     id="path3" />
  <path
     d="m 65.3223,8.760373 c 0,-2.7982 1.2538,-5.2817 3.1777,-6.88634 C 67.0841,0.705993 65.2979,6.3e-5 63.3497,6.3e-5 58.7344,6.3e-5 55,3.918103 55,8.760373 c 0,4.84229 3.7344,8.76029 8.3497,8.76029 1.9482,0 3.7344,-0.7059 5.1503,-1.8739 -1.9266,-1.582 -3.1777,-4.0882 -3.1777,-6.88639 z"
     fill="#444b53"
     id="path4" />
  <path
     d="m 82,8.760373 c 0,4.84229 -3.7344,8.76029 -8.3497,8.76029 -1.9482,0 -3.7344,-0.7059 -5.1503,-1.8739 1.9483,-1.6075 3.1777,-4.0882 3.1777,-6.88639 0,-2.7982 -1.2538,-5.2817 -3.1777,-6.88634 1.4132,-1.16804 3.1994,-1.87397 5.1476,-1.87397 4.618,0 8.3524,3.94356 8.3524,8.76031 z"
     fill="#a5acb4"
     id="path5" />
  <path
     d="m 123.007,15.647763 h -7.665 V 1.871893 h 7.665 z"
     fill="#6f767e"
     id="path6" />
  <path
     d="m 115.828,8.761143 c 0,-2.7945 1.309,-5.28376 3.346,-6.88793 C 117.684,0.700153 115.804,0 113.76,0 108.922,0 105,3.922433 105,8.761143 c 0,4.83872 3.922,8.76112 8.76,8.76112 2.044,0 3.924,-0.7001 5.414,-1.8732 -2.037,-1.6042 -3.346,-4.0934 -3.346,-6.88792 z"
     fill="#4e555d"
     id="path7" />
  <path
     d="m 133.349,8.761143 c 0,4.83872 -3.922,8.76112 -8.76,8.76112 -2.044,0 -3.924,-0.7001 -5.415,-1.8732 2.038,-1.6042 3.347,-4.0934 3.347,-6.88792 0,-2.7945 -1.309,-5.28376 -3.347,-6.88793 C 120.665,0.700153 122.545,0 124.589,0 c 4.838,0 8.76,3.922433 8.76,8.761143 z"
     fill="#6d747c"
     id="path8" />
  <path
     d="m 125.601,19.541163 c 0.102,0 0.248,0.0195 0.36,0.0635 l -0.156,0.4768 c -0.107,-0.044 -0.214,-0.0585 -0.316,-0.0585 -0.331,0 -0.497,0.2139 -0.497,0.5983 v 1.3045 h -0.506 v -2.3261 h 0.501 v 0.2824 c 0.132,-0.2044 0.322,-0.3409 0.614,-0.3409 z m -1.871,0.5208 h -0.827 v 1.0511 c 0,0.2334 0.083,0.3893 0.336,0.3893 0.131,0 0.297,-0.044 0.447,-0.1314 l 0.146,0.4328 c -0.16,0.1119 -0.413,0.1805 -0.632,0.1805 -0.599,0 -0.808,-0.3214 -0.808,-0.8617 v -1.0606 h -0.472 v -0.4623 h 0.472 v -0.7057 h 0.511 v 0.7057 h 0.827 z m -6.477,0.4963 c 0.054,-0.3358 0.258,-0.5648 0.618,-0.5648 0.326,0 0.535,0.2044 0.589,0.5648 z m 1.733,0.2044 c -0.005,-0.7252 -0.453,-1.2215 -1.105,-1.2215 -0.682,0 -1.158,0.4963 -1.158,1.2215 0,0.7392 0.496,1.221 1.192,1.221 0.35,0 0.671,-0.0874 0.954,-0.3258 l -0.249,-0.3749 c -0.194,0.156 -0.443,0.2434 -0.676,0.2434 -0.326,0 -0.623,-0.1509 -0.696,-0.5693 h 1.728 c 0.005,-0.0635 0.01,-0.1264 0.01,-0.1944 z m 2.223,-0.5692 c -0.141,-0.088 -0.428,-0.2 -0.724,-0.2 -0.278,0 -0.443,0.1025 -0.443,0.273 0,0.1554 0.175,0.1994 0.394,0.2283 l 0.238,0.034 c 0.506,0.0735 0.813,0.2874 0.813,0.6963 0,0.4428 -0.39,0.7592 -1.061,0.7592 -0.38,0 -0.73,-0.0975 -1.008,-0.3019 l 0.239,-0.3944 c 0.17,0.1315 0.424,0.2434 0.774,0.2434 0.345,0 0.53,-0.1019 0.53,-0.2824 0,-0.1309 -0.131,-0.2044 -0.408,-0.2428 l -0.239,-0.034 c -0.521,-0.0735 -0.803,-0.3069 -0.803,-0.6862 0,-0.4624 0.38,-0.7448 0.969,-0.7448 0.369,0 0.705,0.083 0.948,0.2434 z m 6.241,-0.1716 c -0.104,0 -0.2,0.0184 -0.29,0.0546 -0.089,0.0368 -0.166,0.088 -0.231,0.1537 -0.066,0.0658 -0.117,0.1449 -0.154,0.2368 -0.038,0.0919 -0.056,0.1933 -0.056,0.3035 0,0.1109 0.018,0.2117 0.056,0.3036 0.037,0.0919 0.088,0.171 0.154,0.2367 0.065,0.0658 0.142,0.117 0.231,0.1538 0.09,0.0367 0.186,0.0546 0.29,0.0546 0.105,0 0.202,-0.0179 0.291,-0.0546 0.089,-0.0368 0.167,-0.088 0.232,-0.1538 0.067,-0.0657 0.118,-0.1448 0.156,-0.2367 0.037,-0.0919 0.056,-0.1927 0.056,-0.3036 0,-0.1102 -0.019,-0.2116 -0.056,-0.3035 -0.038,-0.0919 -0.089,-0.171 -0.156,-0.2368 -0.065,-0.0657 -0.143,-0.1169 -0.232,-0.1537 -0.089,-0.0362 -0.186,-0.0546 -0.291,-0.0546 z m 0,-0.4807 c 0.181,0 0.348,0.0312 0.502,0.0942 0.153,0.0624 0.287,0.1487 0.399,0.2584 0.112,0.1097 0.2,0.2395 0.263,0.3888 0.064,0.1498 0.095,0.3125 0.095,0.4879 0,0.1755 -0.031,0.3381 -0.095,0.488 -0.063,0.1493 -0.151,0.2796 -0.263,0.3893 -0.112,0.1098 -0.246,0.1955 -0.399,0.2585 -0.154,0.0624 -0.321,0.0936 -0.502,0.0936 -0.18,0 -0.347,-0.0312 -0.501,-0.0936 -0.154,-0.063 -0.286,-0.1487 -0.397,-0.2585 -0.111,-0.1097 -0.199,-0.24 -0.262,-0.3893 -0.064,-0.1499 -0.096,-0.3125 -0.096,-0.488 0,-0.1754 0.032,-0.3381 0.096,-0.4879 0.063,-0.1493 0.151,-0.2791 0.262,-0.3888 0.111,-0.1097 0.243,-0.196 0.397,-0.2584 0.154,-0.063 0.321,-0.0942 0.501,-0.0942 z m -13.154,1.2215 c 0,-0.4088 0.268,-0.7447 0.706,-0.7447 0.418,0 0.701,0.3214 0.701,0.7447 0,0.4234 -0.283,0.7442 -0.701,0.7442 -0.438,0 -0.706,-0.3353 -0.706,-0.7442 z m 1.883,0 v -1.163 h -0.505 v 0.2824 c -0.161,-0.2094 -0.404,-0.3409 -0.735,-0.3409 -0.652,0 -1.163,0.5108 -1.163,1.2215 0,0.7102 0.511,1.2216 1.163,1.2216 0.331,0 0.574,-0.1315 0.735,-0.3409 v 0.2824 h 0.505 z m -2.851,1.1631 v -1.4599 c 0,-0.5498 -0.35,-0.9197 -0.914,-0.9247 -0.297,-0.005 -0.604,0.0875 -0.818,0.4139 -0.161,-0.2579 -0.414,-0.4139 -0.769,-0.4139 -0.248,0 -0.492,0.073 -0.682,0.3454 v -0.2869 h -0.505 v 2.3261 h 0.51 v -1.2895 c 0,-0.4038 0.224,-0.6183 0.57,-0.6183 0.336,0 0.506,0.2189 0.506,0.6133 v 1.2945 h 0.511 v -1.2895 c 0,-0.4038 0.234,-0.6183 0.569,-0.6183 0.346,0 0.511,0.2189 0.511,0.6133 v 1.2945 z"
     fill="#d3dae2"
     id="path9"
     inkscape:label="path9" />
  <g
     clip-path="url(#clip0_8014_2014)"
     id="g87"
     transform="translate(-1,-0.999937)">
    <path
       d="m 161.688,20 c 4.321,0.0209 8.264,-3.5664 8.264,-7.9305 0,-4.77236 -3.943,-8.07109 -8.264,-8.0695 H 157.97 C 153.599,3.99841 150,7.29813 150,12.0695 c 0,4.3651 3.599,7.9515 7.97,7.9305 z"
       fill="#0079be"
       id="path10" />
    <path
       d="m 157.988,4.66138 c -3.995,0.00127 -7.232,3.27904 -7.233,7.32452 0.001,4.0447 3.238,7.3221 7.233,7.3234 3.996,-0.0013 7.234,-3.2787 7.234,-7.3234 0,-4.04548 -3.238,-7.32325 -7.234,-7.32452 z m -4.585,7.32452 c 0.004,-1.9769 1.224,-3.66259 2.943,-4.33246 v 8.66386 c -1.719,-0.6695 -2.939,-2.3543 -2.943,-4.3314 z m 6.226,4.3333 V 7.65315 c 1.72,0.66826 2.942,2.35495 2.945,4.33275 -0.003,1.9783 -1.225,3.6637 -2.945,4.3333 z"
       fill="#ffffff"
       id="path11" />
    <path
       d="m 172.485,7.44227 c 0,-0.75686 -0.389,-0.70702 -0.763,-0.71524 V 6.5083 c 0.324,0.01619 0.656,0.01619 0.98,0.01619 0.35,0 0.823,-0.01619 1.439,-0.01619 2.152,0 3.324,1.45524 3.324,2.94537 0,0.83333 -0.482,2.92823 -3.424,2.92823 -0.424,0 -0.815,-0.0165 -1.206,-0.0165 -0.373,0 -0.739,0.0083 -1.113,0.0165 v -0.2184 c 0.498,-0.0508 0.74,-0.0676 0.763,-0.64 z m 0.815,3.94693 c 0,0.648 0.458,0.7235 0.865,0.7235 1.796,0 2.385,-1.3717 2.385,-2.6257 0,-1.57302 -0.997,-2.70889 -2.601,-2.70889 -0.341,0 -0.498,0.02476 -0.649,0.03368 z"
       fill="#bec5cd"
       id="path12" />
    <path
       d="m 177.757,12.1636 h 0.157 c 0.232,0 0.399,0 0.399,-0.2785 V 9.60516 c 0,-0.36981 -0.125,-0.42127 -0.432,-0.58858 V 8.88166 c 0.39,-0.11873 0.856,-0.27746 0.889,-0.30285 0.059,-0.03365 0.108,-0.04254 0.15,-0.04254 0.041,0 0.058,0.05079 0.058,0.11841 v 3.23042 c 0,0.2785 0.183,0.2785 0.416,0.2785 h 0.141 v 0.2187 c -0.283,0 -0.574,-0.0168 -0.873,-0.0168 -0.299,0 -0.598,0.0083 -0.905,0.0168 z m 0.889,-4.92292 c -0.217,0 -0.407,-0.20187 -0.407,-0.42063 0,-0.2108 0.199,-0.40477 0.407,-0.40477 0.215,0 0.407,0.1775 0.407,0.40477 0,0.2273 -0.183,0.42063 -0.407,0.42063 z"
       fill="#bec5cd"
       id="path13" />
    <path
       d="m 180.324,9.65518 c 0,-0.31111 -0.091,-0.39492 -0.481,-0.55492 V 8.94061 c 0.357,-0.11778 0.697,-0.2273 1.096,-0.40445 0.025,0 0.05,0.01715 0.05,0.08413 v 0.54727 c 0.474,-0.34473 0.882,-0.63143 1.439,-0.63143 0.706,0 0.955,0.52188 0.955,1.17807 v 2.1708 c 0,0.2784 0.183,0.2784 0.416,0.2784 h 0.15 v 0.2188 c -0.292,0 -0.583,-0.0168 -0.881,-0.0168 -0.3,0 -0.599,0.0082 -0.898,0.0168 v -0.2188 h 0.149 c 0.233,0 0.399,0 0.399,-0.2784 V 9.70626 c 0,-0.48032 -0.29,-0.71556 -0.764,-0.71556 -0.266,0 -0.69,0.21877 -0.965,0.40413 V 11.885 c 0,0.2784 0.183,0.2784 0.417,0.2784 h 0.149 v 0.2187 c -0.291,0 -0.582,-0.0168 -0.881,-0.0168 -0.299,0 -0.599,0.0083 -0.898,0.0168 v -0.2187 h 0.15 c 0.233,0 0.398,0 0.398,-0.2784 z"
       fill="#bec5cd"
       id="path14" />
    <path
       d="m 184.581,10.0596 c -0.018,0.0759 -0.018,0.2019 0,0.4883 0.049,0.799 0.557,1.4552 1.221,1.4552 0.457,0 0.816,-0.2523 1.123,-0.5634 l 0.116,0.1181 c -0.383,0.513 -0.857,0.9504 -1.538,0.9504 -1.322,0 -1.588,-1.2962 -1.588,-1.8343 0,-1.64951 1.097,-2.13777 1.679,-2.13777 0.673,0 1.397,0.42892 1.405,1.32096 0,0.05111 0,0.10095 -0.008,0.15201 l -0.075,0.0505 z m 1.471,-0.26947 c 0.207,0 0.232,-0.10952 0.232,-0.21016 0,-0.42923 -0.258,-0.77431 -0.723,-0.77431 -0.507,0 -0.856,0.37809 -0.956,0.98447 z"
       fill="#bec5cd"
       id="path15" />
    <path
       d="m 187.19,12.1635 h 0.225 c 0.232,0 0.398,0 0.398,-0.2785 V 9.52089 c 0,-0.26063 -0.307,-0.31142 -0.432,-0.37873 V 9.01645 c 0.607,-0.26127 0.939,-0.48032 1.015,-0.48032 0.049,0 0.074,0.0254 0.074,0.10984 v 0.75715 h 0.017 c 0.208,-0.32794 0.557,-0.86699 1.064,-0.86699 0.208,0 0.473,0.14286 0.473,0.44603 0,0.22731 -0.157,0.42985 -0.39,0.42985 -0.258,0 -0.258,-0.20254 -0.549,-0.20254 -0.141,0 -0.606,0.19365 -0.606,0.69873 v 1.9768 c 0,0.2784 0.165,0.2784 0.398,0.2784 h 0.466 v 0.2188 c -0.458,-0.0086 -0.805,-0.0168 -1.164,-0.0168 -0.34,0 -0.69,0.0082 -0.989,0.0168 z"
       fill="#bec5cd"
       id="path16" />
    <path
       d="m 190.39,11.212 c 0.109,0.5555 0.441,1.027 1.048,1.027 0.489,0 0.672,-0.3029 0.672,-0.5975 0,-0.993 -1.811,-0.6733 -1.811,-2.02791 0,-0.47143 0.374,-1.07746 1.288,-1.07746 0.266,0 0.623,0.07619 0.947,0.24476 l 0.059,0.8575 h -0.192 c -0.082,-0.52956 -0.373,-0.8327 -0.906,-0.8327 -0.332,0 -0.648,0.19368 -0.648,0.55524 0,0.98537 1.929,0.68157 1.929,2.00257 0,0.5552 -0.441,1.1447 -1.43,1.1447 -0.333,0 -0.723,-0.1178 -1.014,-0.2857 l -0.092,-0.9679 z"
       fill="#bec5cd"
       id="path17" />
    <path
       d="m 200.281,8.03143 h -0.207 c -0.158,-0.98412 -0.848,-1.38 -1.779,-1.38 -0.957,0 -2.345,0.64759 -2.345,2.66699 0,1.70098 1.198,2.92058 2.478,2.92058 0.822,0 1.504,-0.572 1.671,-1.4558 l 0.19,0.0501 -0.19,1.2286 c -0.349,0.2193 -1.289,0.4464 -1.838,0.4464 -1.944,0 -3.174,-1.2708 -3.174,-3.16417 0,-1.72508 1.521,-2.96254 3.15,-2.96254 0.673,0 1.321,0.21968 1.961,0.44699 z"
       fill="#bec5cd"
       id="path18" />
    <path
       d="m 200.581,12.1635 h 0.157 c 0.233,0 0.4,0 0.4,-0.2785 V 7.1987 c 0,-0.5473 -0.125,-0.56416 -0.441,-0.65654 v -0.1346 c 0.333,-0.10918 0.682,-0.26095 0.856,-0.36219 0.091,-0.05016 0.158,-0.09273 0.183,-0.09273 0.05,0 0.067,0.05082 0.067,0.11841 V 11.885 c 0,0.2785 0.183,0.2785 0.416,0.2785 h 0.14 v 0.2187 c -0.282,0 -0.573,-0.0168 -0.872,-0.0168 -0.299,0 -0.598,0.0083 -0.906,0.0168 z"
       fill="#bec5cd"
       id="path19" />
    <path
       d="m 205.918,11.9188 c 0,0.1521 0.091,0.1603 0.232,0.1603 0.1,0 0.224,-0.0082 0.332,-0.0082 v 0.1771 c -0.357,0.0333 -1.039,0.2102 -1.197,0.2603 l -0.042,-0.0254 V 11.802 c -0.498,0.412 -0.881,0.7063 -1.471,0.7063 -0.449,0 -0.914,-0.2943 -0.914,-1.0006 V 9.35275 c 0,-0.21873 -0.033,-0.42924 -0.498,-0.47111 v -0.16 c 0.299,-0.00826 0.963,-0.05877 1.072,-0.05877 0.092,0 0.092,0.05877 0.092,0.24384 v 2.17049 c 0,0.253 0,0.9765 0.722,0.9765 0.283,0 0.657,-0.2188 1.006,-0.5124 V 9.27652 c 0,-0.16761 -0.399,-0.26 -0.698,-0.34447 V 8.78062 c 0.747,-0.05079 1.214,-0.11778 1.296,-0.11778 0.068,0 0.068,0.05873 0.068,0.15175 z"
       fill="#bec5cd"
       id="path20" />
    <path
       d="m 207.572,9.14219 c 0.332,-0.28606 0.78,-0.60603 1.238,-0.60603 0.964,0 1.546,0.85079 1.546,1.76724 0,1.1023 -0.798,2.2048 -1.987,2.2048 -0.615,0 -0.939,-0.2022 -1.155,-0.2943 l -0.249,0.193 -0.174,-0.092 c 0.073,-0.4965 0.116,-0.9848 0.116,-1.4978 V 7.19867 c 0,-0.54727 -0.126,-0.56413 -0.441,-0.65651 v -0.1346 c 0.333,-0.10918 0.681,-0.26095 0.856,-0.36222 0.091,-0.05016 0.158,-0.0927 0.183,-0.0927 0.05,0 0.066,0.05082 0.066,0.11841 v 3.07111 h 0.001 z m 0,2.28861 c 0,0.32 0.298,0.859 0.855,0.859 0.89,0 1.264,-0.8841 1.264,-1.6333 0,-0.90856 -0.681,-1.6657 -1.33,-1.6657 -0.308,0 -0.565,0.20222 -0.79,0.39615 v 2.04385 z"
       fill="#bec5cd"
       id="path21" />
    <path
       d="m 171.712,17.2746 h 0.064 c 0.162,0 0.334,-0.0221 0.334,-0.2606 v -2.3987 c 0,-0.2388 -0.172,-0.2613 -0.334,-0.2613 h -0.064 v -0.1374 c 0.177,0 0.448,0.018 0.67,0.018 0.226,0 0.497,-0.018 0.71,-0.018 v 0.1374 h -0.064 c -0.162,0 -0.334,0.0226 -0.334,0.2613 v 2.3987 c 0,0.2385 0.172,0.2606 0.334,0.2606 h 0.064 v 0.1382 c -0.217,0 -0.489,-0.0181 -0.715,-0.0181 -0.221,0 -0.488,0.0181 -0.665,0.0181 z"
       fill="#bec5cd"
       id="path22" />
    <path
       d="m 173.092,17.4322 c -0.219,0 -0.49,-0.0184 -0.715,-0.0184 -0.221,0 -0.487,0.0184 -0.665,0.0184 h -0.019 v -0.0197 -0.1374 -0.02 h 0.019 0.064 c 0.164,-0.0039 0.313,-0.0172 0.315,-0.241 v -2.3988 c -0.002,-0.2238 -0.151,-0.2387 -0.315,-0.2419 h -0.083 v -0.0193 -0.1578 h 0.019 c 0.178,0 0.449,0.0181 0.67,0.0181 0.225,0 0.496,-0.0181 0.71,-0.0181 h 0.02 v 0.0209 0.1562 h -0.02 -0.063 c -0.164,0.0032 -0.315,0.0181 -0.316,0.2419 v 2.3988 c 0.001,0.2238 0.152,0.2371 0.316,0.241 h 0.083 v 0.02 0.1571 z m -0.02,-0.0391 v -0.0978 h -0.043 c -0.162,0 -0.354,-0.0282 -0.355,-0.2812 v -2.3988 c 0.001,-0.253 0.193,-0.2816 0.355,-0.2816 h 0.043 v -0.0971 c -0.208,0 -0.47,0.0178 -0.69,0.0178 -0.215,0 -0.475,-0.0165 -0.65,-0.0178 v 0.0971 h 0.044 c 0.161,0 0.354,0.0286 0.354,0.2816 v 2.3988 c 0,0.253 -0.193,0.2812 -0.354,0.2812 h -0.044 v 0.0978 c 0.175,-0.0019 0.431,-0.0184 0.645,-0.0184 0.22,0 0.482,0.0171 0.695,0.0184 z"
       fill="#bec5cd"
       id="path23" />
    <path
       d="m 176.199,16.5102 0.009,-0.0089 v -1.7168 c 0,-0.3759 -0.258,-0.4305 -0.394,-0.4305 h -0.099 v -0.1374 c 0.213,0 0.421,0.018 0.633,0.018 0.185,0 0.372,-0.018 0.557,-0.018 v 0.1374 h -0.068 c -0.191,0 -0.403,0.0365 -0.403,0.5813 v 2.0838 c 0,0.1601 0.005,0.32 0.027,0.462 h -0.172 l -2.329,-2.6283 v 1.8867 c 0,0.3984 0.076,0.5352 0.425,0.5352 h 0.076 v 0.1381 c -0.194,0 -0.388,-0.0181 -0.583,-0.0181 -0.203,0 -0.411,0.0181 -0.615,0.0181 v -0.1381 h 0.064 c 0.312,0 0.407,-0.2146 0.407,-0.5806 v -1.9286 c 0,-0.2562 -0.209,-0.4114 -0.412,-0.4114 h -0.059 v -0.1375 c 0.172,0 0.349,0.0181 0.52,0.0181 0.136,0 0.267,-0.0181 0.403,-0.0181 z"
       fill="#bec5cd"
       id="path24" />
    <path
       d="m 176.461,17.5009 -0.187,-0.007 -2.295,-2.5895 v 1.8349 c 0.005,0.3981 0.065,0.5112 0.406,0.5156 h 0.097 v 0.0197 0.1574 h -0.02 c -0.196,0 -0.391,-0.0184 -0.584,-0.0184 -0.202,0 -0.41,0.0184 -0.615,0.0184 h -0.02 v -0.0197 -0.1574 h 0.02 0.064 c 0.299,-0.0016 0.384,-0.1959 0.387,-0.561 v -1.9282 c 0,-0.2438 -0.198,-0.3918 -0.392,-0.3924 h -0.079 V 14.353 14.1968 h 0.02 c 0.173,0 0.35,0.0174 0.52,0.0174 0.134,0 0.265,-0.0174 0.418,-0.0108 l 1.987,2.2652 v -1.6839 c -0.002,-0.3644 -0.242,-0.4082 -0.374,-0.4114 h -0.12 V 14.353 14.1968 h 0.021 c 0.213,0 0.421,0.0174 0.633,0.0174 0.184,0 0.369,-0.0174 0.556,-0.0174 h 0.02 v 0.0197 0.1568 h -0.02 -0.067 c -0.187,0.0054 -0.379,0.0219 -0.384,0.5619 v 2.0835 c 0,0.16 0.005,0.32 0.027,0.4587 l 0.004,0.0235 z m -0.172,-0.0403 h 0.149 c -0.02,-0.1375 -0.023,-0.2899 -0.023,-0.4419 v -2.0835 c 0,-0.5496 0.227,-0.6016 0.422,-0.6016 h 0.047 v -0.0972 c -0.178,0.0013 -0.356,0.0178 -0.536,0.0178 -0.207,0 -0.408,-0.0165 -0.613,-0.0178 l -0.001,0.0972 h 0.08 c 0.139,0 0.414,0.0628 0.414,0.4511 l -0.007,1.7301 -0.009,0.0096 -0.015,0.0143 -2.011,-2.3023 c -0.134,0 -0.266,0.0178 -0.403,0.0178 -0.166,0 -0.336,-0.0165 -0.5,-0.0178 l -10e-4,0.0972 h 0.04 c 0.213,0 0.431,0.1641 0.431,0.432 v 1.9283 c 0,0.366 -0.101,0.6003 -0.426,0.6015 l -0.044,-0.0012 v 0.0987 c 0.196,-0.0019 0.397,-0.0184 0.595,-0.0184 0.189,0 0.377,0.0165 0.564,0.0184 v -0.0975 h -0.057 c -0.356,-0.0012 -0.445,-0.158 -0.445,-0.5561 v -1.9381 z m -0.09,-0.9508 0.014,-0.0134 z m -0.011,-0.0089 v -0.0016 l -0.003,-0.0032 z"
       fill="#bec5cd"
       id="path25" />
    <path
       d="m 177.582,14.445 c -0.34,0 -0.353,0.0826 -0.421,0.4165 h -0.135 c 0.018,-0.1279 0.04,-0.2559 0.054,-0.3892 0.018,-0.1283 0.027,-0.2559 0.027,-0.3886 h 0.109 c 0.036,0.1375 0.149,0.1327 0.272,0.1327 h 2.333 c 0.122,0 0.235,-0.0044 0.244,-0.1422 l 0.108,0.0184 c -0.017,0.1238 -0.036,0.2473 -0.049,0.3711 -0.009,0.1235 -0.009,0.2473 -0.009,0.3705 l -0.136,0.0511 c -0.009,-0.1692 -0.032,-0.4403 -0.334,-0.4403 h -0.742 v 2.4362 c 0,0.353 0.158,0.3933 0.375,0.3933 h 0.086 v 0.1381 c -0.176,0 -0.493,-0.0181 -0.737,-0.0181 -0.271,0 -0.588,0.0181 -0.765,0.0181 v -0.1381 h 0.086 c 0.25,0 0.376,-0.0225 0.376,-0.3838 V 14.445 Z"
       fill="#bec5cd"
       id="path26" />
    <path
       d="m 179.365,17.432 c -0.178,0 -0.495,-0.0184 -0.738,-0.0184 -0.271,0 -0.587,0.0184 -0.765,0.0184 h -0.019 v -0.0193 -0.1578 h 0.019 0.086 c 0.25,-0.006 0.35,-0.0092 0.356,-0.3642 v -2.4256 h -0.722 V 14.445 14.4247 h 0.761 v 2.466 c 0,0.3673 -0.146,0.4045 -0.395,0.4048 h -0.066 v 0.0965 c 0.178,-9e-4 0.483,-0.0175 0.745,-0.0175 0.236,0 0.538,0.0166 0.717,0.0175 v -0.0965 h -0.066 c -0.219,-3e-4 -0.395,-0.0546 -0.395,-0.4143 v -2.4565 h 0.762 c 0.303,0.0013 0.343,0.2625 0.353,0.4324 l 0.098,-0.0365 c 0,-0.1194 0,-0.2391 0.008,-0.3597 0.013,-0.1178 0.03,-0.2346 0.047,-0.3514 l -0.069,-0.0118 c -0.021,0.1334 -0.148,0.14 -0.262,0.1388 h -2.332 -0.024 c -0.106,0 -0.222,-0.0051 -0.263,-0.133 h -0.075 c 0,0.1266 -0.009,0.2495 -0.026,0.3714 -0.013,0.1257 -0.034,0.2467 -0.051,0.3676 h 0.097 c 0.059,-0.3191 0.098,-0.4226 0.436,-0.4178 v 0.0204 0.02 c -0.335,0.006 -0.328,0.0631 -0.401,0.4015 l -0.004,0.0156 h -0.015 -0.159 l 0.003,-0.0238 c 0.018,-0.1283 0.041,-0.2559 0.054,-0.3892 0.019,-0.127 0.028,-0.254 0.028,-0.3854 v -0.02 h 0.019 0.124 l 0.003,0.0142 c 0.031,0.1156 0.115,0.1162 0.23,0.1181 h 0.024 2.332 c 0.126,-0.0019 0.218,-0.0038 0.226,-0.1235 l 0.002,-0.0216 0.02,0.0045 0.128,0.0203 -0.003,0.02 c -0.018,0.1226 -0.036,0.2464 -0.05,0.3692 -0.009,0.1219 -0.009,0.2457 -0.009,0.3692 v 0.0143 l -0.012,0.0051 -0.16,0.059 -0.002,-0.0267 c -0.012,-0.172 -0.029,-0.4209 -0.315,-0.4209 h -0.722 v 2.4162 c 0.004,0.3454 0.139,0.3692 0.355,0.3736 h 0.106 v 0.0197 0.1575 z"
       fill="#bec5cd"
       id="path27" />
    <path
       d="m 180.318,17.2746 h 0.064 c 0.162,0 0.334,-0.0221 0.334,-0.2606 v -2.3987 c 0,-0.2388 -0.172,-0.2613 -0.334,-0.2613 h -0.064 v -0.1374 c 0.275,0 0.746,0.018 1.125,0.018 0.381,0 0.851,-0.018 1.158,-0.018 -0.007,0.1965 -0.003,0.4993 0.01,0.7003 l -0.136,0.0368 c -0.022,-0.2974 -0.076,-0.5352 -0.551,-0.5352 h -0.629 v 1.199 h 0.538 c 0.271,0 0.331,-0.1552 0.357,-0.4031 h 0.136 c -0.009,0.1793 -0.014,0.3578 -0.014,0.5362 0,0.1743 0.005,0.3479 0.014,0.5219 l -0.136,0.0273 c -0.026,-0.2746 -0.04,-0.4531 -0.353,-0.4531 h -0.542 v 1.0664 c 0,0.2981 0.262,0.2981 0.552,0.2981 0.542,0 0.782,-0.0372 0.917,-0.5584 l 0.127,0.0314 c -0.059,0.2432 -0.113,0.4854 -0.153,0.7286 -0.29,0 -0.81,-0.0181 -1.217,-0.0181 -0.407,0 -0.945,0.0181 -1.203,0.0181 z"
       fill="#bec5cd"
       id="path28" />
    <path
       d="m 182.737,17.432 c -0.29,0 -0.81,-0.0187 -1.216,-0.0187 -0.408,0 -0.945,0.0187 -1.203,0.0187 h -0.019 v -0.0193 -0.1381 -0.0197 h 0.019 0.063 c 0.164,-0.0026 0.313,-0.0172 0.315,-0.241 v -2.3987 c -0.002,-0.2235 -0.151,-0.2385 -0.315,-0.2419 h -0.082 v -0.0194 -0.1571 h 0.019 c 0.276,0 0.746,0.0174 1.125,0.0174 0.381,0 0.85,-0.0174 1.158,-0.0174 h 0.02 l -0.001,0.0203 c -0.003,0.0689 -0.004,0.1501 -0.004,0.2365 0,0.1584 0.004,0.3314 0.013,0.4619 l 0.001,0.0165 -0.015,0.0045 -0.159,0.0419 -10e-4,-0.0235 c -0.027,-0.2971 -0.066,-0.5127 -0.531,-0.5171 h -0.61 l -0.001,1.159 h 0.52 c 0.26,-0.0025 0.307,-0.1375 0.338,-0.3841 l 0.001,-0.0181 h 0.018 0.156 l -0.001,0.0206 c -0.008,0.1784 -0.014,0.3568 -0.014,0.5352 0,0.1734 0.006,0.347 0.014,0.5213 l 0.001,0.0162 -0.017,0.0038 -0.157,0.0317 -0.001,-0.0215 c -0.031,-0.2794 -0.034,-0.4324 -0.334,-0.4359 l -0.523,-3e-4 v 1.0473 c 0,0.2781 0.238,0.2765 0.532,0.2781 0.545,-0.0032 0.763,-0.0298 0.9,-0.5442 l 0.004,-0.0184 0.019,0.0035 0.145,0.0378 -0.004,0.019 c -0.059,0.2426 -0.113,0.4845 -0.154,0.727 l -0.003,0.0162 z m -0.016,-0.04 c 0.039,-0.2308 0.091,-0.4625 0.146,-0.693 l -0.089,-0.0229 c -0.136,0.5124 -0.398,0.5581 -0.932,0.5546 -0.284,0 -0.57,0 -0.571,-0.3178 v -1.0863 h 0.562 c 0.316,-0.0035 0.348,0.1895 0.37,0.4501 l 0.098,-0.0206 c -0.009,-0.1686 -0.013,-0.3378 -0.013,-0.5057 0,-0.1724 0.004,-0.3438 0.013,-0.5162 h -0.098 c -0.025,0.2384 -0.099,0.406 -0.374,0.4029 h -0.558 v -1.2394 h 0.649 c 0.47,-0.0032 0.548,0.2425 0.568,0.5305 l 0.098,-0.0267 c -0.008,-0.1292 -0.014,-0.2949 -0.014,-0.4479 0,-0.0784 0.002,-0.1524 0.005,-0.2172 -0.307,0.0013 -0.765,0.0178 -1.138,0.0178 -0.371,0 -0.829,-0.0165 -1.106,-0.0178 v 0.0972 h 0.044 c 0.161,0 0.354,0.0285 0.354,0.2816 v 2.3987 c 0,0.2524 -0.193,0.2803 -0.354,0.2816 h -0.044 v 0.0965 c 0.264,-3e-4 0.786,-0.0174 1.184,-0.0174 0.399,0 0.908,0.0171 1.2,0.0174 z"
       fill="#bec5cd"
       id="path29" />
    <path
       d="m 183.502,14.7017 c 0,-0.334 -0.181,-0.3476 -0.322,-0.3476 h -0.081 v -0.1378 c 0.145,0 0.425,0.0184 0.701,0.0184 0.271,0 0.488,-0.0184 0.728,-0.0184 0.569,0 1.076,0.1559 1.076,0.8067 0,0.4111 -0.271,0.6632 -0.628,0.8057 l 0.773,1.1714 c 0.127,0.1937 0.217,0.248 0.439,0.2746 v 0.1381 c -0.15,0 -0.294,-0.0181 -0.443,-0.0181 -0.141,0 -0.286,0.0181 -0.425,0.0181 -0.349,-0.4625 -0.648,-0.9571 -0.942,-1.4841 h -0.297 v 0.9803 c 0,0.353 0.162,0.3657 0.37,0.3657 h 0.081 v 0.1381 c -0.258,0 -0.519,-0.018 -0.777,-0.018 -0.218,0 -0.43,0.018 -0.656,0.018 v -0.1381 h 0.081 c 0.168,0 0.322,-0.0768 0.322,-0.2466 z m 0.579,1.0622 h 0.221 c 0.452,0 0.696,-0.1739 0.696,-0.7143 0,-0.4069 -0.258,-0.6682 -0.661,-0.6682 -0.135,0 -0.193,0.0143 -0.256,0.0184 z"
       fill="#bec5cd"
       id="path30" />
    <path
       d="m 186.188,17.4321 c -0.152,0 -0.296,-0.0184 -0.445,-0.0184 -0.138,0 -0.282,0.0184 -0.44,0.0108 -0.346,-0.4607 -0.644,-0.9524 -0.936,-1.4756 H 184.1 v 0.9594 c 0.004,0.3445 0.141,0.3416 0.35,0.3467 h 0.102 v 0.0197 0.1574 h -0.02 c -0.259,0 -0.521,-0.0184 -0.778,-0.0184 -0.216,0 -0.428,0.0184 -0.655,0.0184 h -0.02 V 17.4124 17.255 h 0.02 0.081 c 0.163,-10e-4 0.3,-0.0727 0.301,-0.227 v -2.3263 c -0.003,-0.3251 -0.161,-0.3232 -0.301,-0.328 h -0.101 v -0.0196 -0.1578 h 0.02 c 0.146,0 0.425,0.0181 0.701,0.0181 0.27,0 0.487,-0.0181 0.728,-0.0181 0.57,0.0013 1.095,0.1606 1.096,0.8254 0,0.4136 -0.27,0.6717 -0.619,0.8159 l 0.76,1.1517 c 0.127,0.1898 0.205,0.2371 0.425,0.2657 l 0.017,0.0025 v 0.0172 0.1574 z m -2.108,-1.5232 h 0.309 l 0.006,0.0102 c 0.294,0.526 0.591,1.02 0.924,1.4739 0.138,0 0.284,-0.0187 0.424,-0.0187 0.145,0 0.284,0.0159 0.425,0.0181 v -0.1003 c -0.212,-0.0267 -0.312,-0.0908 -0.435,-0.281 l -0.787,-1.1921 0.022,-0.0092 c 0.354,-0.1409 0.616,-0.3857 0.616,-0.7882 0,-0.6353 -0.488,-0.7825 -1.056,-0.7851 -0.239,0 -0.456,0.0181 -0.728,0.0181 -0.266,0 -0.534,-0.0168 -0.682,-0.0181 v 0.0972 h 0.062 c 0.14,3e-4 0.34,0.0238 0.34,0.3679 v 2.3263 c 0,0.1838 -0.17,0.2677 -0.34,0.268 h -0.062 v 0.0965 c 0.217,-7e-4 0.423,-0.0181 0.636,-0.0181 0.253,0 0.508,0.0174 0.758,0.0181 v -0.0965 h -0.062 c -0.206,-4e-4 -0.39,-0.0264 -0.39,-0.3876 v -0.9994 z m 0,-0.1257 h -0.02 v -1.4019 l 0.017,-0.0016 c 0.062,-0.0047 0.123,-0.0178 0.26,-0.0178 0.412,0 0.68,0.2711 0.681,0.6885 -0.002,0.5467 -0.261,0.7324 -0.717,0.7327 h -0.221 z m 0.221,-0.0394 c 0.448,-0.0038 0.673,-0.1612 0.678,-0.6933 -0.002,-0.4 -0.248,-0.6483 -0.642,-0.6499 -0.122,0 -0.18,0.0115 -0.237,0.0166 v 1.3266 z"
       fill="#bec5cd"
       id="path31" />
    <path
       d="m 189.258,16.5102 0.009,-0.0089 v -1.7168 c 0,-0.3759 -0.258,-0.4305 -0.393,-0.4305 h -0.099 v -0.1374 c 0.212,0 0.42,0.018 0.632,0.018 0.186,0 0.371,-0.018 0.557,-0.018 v 0.1374 h -0.068 c -0.19,0 -0.402,0.0365 -0.402,0.5813 v 2.0838 c 0,0.1601 0.004,0.32 0.026,0.462 h -0.171 l -2.329,-2.6283 v 1.8867 c 0,0.3984 0.077,0.5352 0.425,0.5352 h 0.077 v 0.1381 c -0.195,0 -0.389,-0.0181 -0.583,-0.0181 -0.205,0 -0.413,0.0181 -0.616,0.0181 v -0.1381 h 0.063 c 0.312,0 0.407,-0.2146 0.407,-0.5806 v -1.9286 c 0,-0.2562 -0.208,-0.4114 -0.411,-0.4114 h -0.059 v -0.1375 c 0.172,0 0.349,0.0181 0.52,0.0181 0.135,0 0.267,-0.0181 0.403,-0.0181 z"
       fill="#bec5cd"
       id="path32" />
    <path
       d="m 189.52,17.5007 -0.186,-0.0063 -2.295,-2.5899 v 1.8346 c 0.005,0.3985 0.065,0.5114 0.406,0.5159 h 0.096 v 0.0197 0.1575 h -0.02 c -0.196,0 -0.39,-0.0188 -0.583,-0.0188 -0.202,0 -0.411,0.0188 -0.615,0.0188 h -0.02 V 17.4128 17.255 h 0.02 0.063 c 0.298,-0.0013 0.384,-0.1959 0.387,-0.5622 v -1.9273 c 0,-0.2438 -0.198,-0.3918 -0.391,-0.3921 h -0.079 v -0.0193 -0.1578 h 0.02 c 0.173,0 0.35,0.0181 0.52,0.0181 0.133,0 0.264,-0.0181 0.416,-0.0118 l 1.988,2.2661 v -1.6845 c -0.001,-0.3638 -0.242,-0.4089 -0.373,-0.4108 h -0.12 v -0.0193 -0.1578 h 0.02 c 0.214,0 0.422,0.0181 0.633,0.0181 0.185,0 0.37,-0.0181 0.556,-0.0181 h 0.02 v 0.0206 0.1565 h -0.02 -0.067 c -0.186,0.0051 -0.379,0.0219 -0.383,0.5619 v 2.0835 c 0,0.16 0.004,0.3187 0.027,0.4597 l 0.002,0.0222 z m -0.171,-0.04 h 0.148 c -0.019,-0.1375 -0.024,-0.2898 -0.024,-0.4419 v -2.0835 c 0,-0.5496 0.229,-0.6003 0.423,-0.6019 h 0.048 v -0.0968 c -0.178,0.0012 -0.357,0.0178 -0.537,0.0178 -0.207,0 -0.409,-0.0166 -0.614,-0.0178 v 0.0968 h 0.081 c 0.139,0.0016 0.413,0.0632 0.413,0.4508 l -0.006,1.7308 -0.009,0.0095 -0.014,0.0146 -2.013,-2.3025 c -0.134,0 -0.265,0.0178 -0.402,0.0178 -0.167,0 -0.336,-0.0165 -0.501,-0.0178 v 0.0968 h 0.04 c 0.212,0.0016 0.43,0.1638 0.43,0.4321 v 1.9273 c 0,0.3676 -0.102,0.6016 -0.426,0.6028 l -0.044,-3e-4 v 0.0968 c 0.195,-9e-4 0.397,-0.0174 0.596,-0.0174 0.189,0 0.377,0.0165 0.564,0.0174 v -0.0965 h -0.057 c -0.356,-3e-4 -0.445,-0.158 -0.446,-0.5565 V 14.802 Z m -0.091,-0.9508 0.014,-0.013 z m -0.011,-0.0086 v -0.0016 l -0.003,-0.0034 z"
       fill="#bec5cd"
       id="path33" />
    <path
       d="m 190.692,16.7578 c -0.046,0.1552 -0.101,0.2752 -0.101,0.3568 0,0.1378 0.191,0.16 0.339,0.16 h 0.051 v 0.1381 c -0.182,-0.0099 -0.366,-0.0181 -0.549,-0.0181 -0.162,0 -0.324,0.0083 -0.487,0.0181 v -0.1381 h 0.027 c 0.176,0 0.326,-0.1051 0.393,-0.2978 l 0.724,-2.101 c 0.059,-0.1695 0.141,-0.3984 0.168,-0.5682 0.144,-0.0498 0.325,-0.1413 0.411,-0.1965 0.014,-0.0047 0.022,-0.0095 0.036,-0.0095 0.013,0 0.022,0 0.032,0.0142 0.013,0.0362 0.027,0.0778 0.041,0.1143 l 0.832,2.395 c 0.054,0.16 0.108,0.3292 0.167,0.4669 0.054,0.1283 0.15,0.1826 0.299,0.1826 h 0.027 v 0.1381 c -0.204,-0.0099 -0.408,-0.0181 -0.624,-0.0181 -0.222,0 -0.449,0.0083 -0.679,0.0181 v -0.1381 h 0.05 c 0.104,0 0.281,-0.0178 0.281,-0.1324 0,-0.0594 -0.041,-0.1829 -0.092,-0.3298 l -0.176,-0.5312 h -1.026 z m 0.659,-2.0286 h -0.009 l -0.42,1.2959 h 0.845 z"
       fill="#bec5cd"
       id="path34" />
    <path
       d="m 193.1,17.432 c -0.203,-0.0092 -0.407,-0.0188 -0.622,-0.0188 -0.222,0 -0.447,0.0096 -0.678,0.0188 l -0.021,0.0013 v -0.0207 -0.1584 h 0.02 0.05 c 0.105,0 0.26,-0.0241 0.26,-0.112 0.001,-0.0521 -0.039,-0.1778 -0.089,-0.3235 l -0.172,-0.5178 h -0.998 l -0.141,0.4625 c -0.045,0.1562 -0.1,0.2772 -0.099,0.3518 10e-4,0.1118 0.17,0.139 0.32,0.139 H 191 v 0.0207 0.1584 l -0.021,-0.0013 c -0.181,-0.0092 -0.365,-0.0188 -0.546,-0.0188 -0.162,0 -0.325,0.0096 -0.487,0.0188 l -0.021,0.0013 v -0.0207 -0.1584 h 0.02 0.027 c 0.168,-6e-4 0.309,-0.0974 0.374,-0.2837 l 0.724,-2.1013 c 0.059,-0.1699 0.141,-0.3981 0.18,-0.5807 0.142,-0.0485 0.323,-0.1406 0.411,-0.1965 0.012,-0.0041 0.025,-0.0104 0.043,-0.0104 0.011,-4e-4 0.036,0.0025 0.05,0.0267 0.013,0.0377 0.027,0.0784 0.041,0.1155 l 0.833,2.3947 c 0.053,0.1606 0.107,0.3298 0.166,0.465 0.053,0.1223 0.136,0.1702 0.281,0.1708 h 0.046 v 0.0206 0.1584 z m -1.281,-0.0409 c 0.224,-0.008 0.443,-0.0169 0.659,-0.0169 0.21,0 0.407,0.0089 0.603,0.0169 v -0.0956 h -0.006 c -0.155,9e-4 -0.262,-0.0606 -0.317,-0.1956 -0.059,-0.139 -0.115,-0.3088 -0.167,-0.4692 l -0.833,-2.3942 c -0.014,-0.0366 -0.027,-0.0781 -0.039,-0.1105 -0.004,-0.0045 -0.003,-0.0045 -0.007,-0.0045 h -0.008 c -0.009,0 -0.015,0.0029 -0.026,0.0061 -0.087,0.0574 -0.269,0.1473 -0.403,0.1831 -0.028,0.1734 -0.109,0.4019 -0.168,0.5715 l -0.724,2.1016 c -0.069,0.1987 -0.227,0.312 -0.411,0.3117 h -0.007 v 0.0956 c 0.154,-0.008 0.311,-0.0169 0.468,-0.0169 0.175,0 0.354,0.0089 0.526,0.0169 v -0.0956 h -0.029 c -0.147,-0.0019 -0.353,-0.0188 -0.358,-0.1803 0,-0.0915 0.056,-0.2086 0.1,-0.3632 l 0.019,0.006 -0.019,-0.0067 0.149,-0.4895 h 1.054 l 0.182,0.5442 c 0.051,0.147 0.092,0.2689 0.092,0.3362 -0.007,0.1406 -0.198,0.1504 -0.3,0.1533 h -0.03 z m -0.925,-1.3464 0.433,-1.3356 h 0.015 0.01 v 0.02 l -0.005,10e-4 0.005,-10e-4 v -0.02 h 0.013 l 0.43,1.3356 z m 0.054,-0.0397 h 0.792 l -0.394,-1.227 z m 0.384,-1.2701 0.01,-0.0035 z"
       fill="#bec5cd"
       id="path35" />
    <path
       d="m 193.301,14.445 c -0.34,0 -0.353,0.0826 -0.421,0.4165 h -0.136 c 0.018,-0.1279 0.041,-0.2559 0.055,-0.3892 0.018,-0.1283 0.026,-0.2559 0.026,-0.3886 h 0.109 c 0.036,0.1375 0.15,0.1327 0.271,0.1327 h 2.335 c 0.121,0 0.234,-0.0044 0.243,-0.1422 l 0.108,0.0184 c -0.017,0.1238 -0.035,0.2473 -0.048,0.3711 -0.01,0.1235 -0.01,0.2473 -0.01,0.3705 l -0.136,0.0511 c -0.008,-0.1692 -0.031,-0.4403 -0.334,-0.4403 h -0.742 v 2.4362 c 0,0.353 0.159,0.3933 0.375,0.3933 h 0.086 v 0.1381 c -0.176,0 -0.492,-0.0181 -0.737,-0.0181 -0.271,0 -0.588,0.0181 -0.764,0.0181 v -0.1381 h 0.086 c 0.249,0 0.376,-0.0225 0.376,-0.3838 V 14.445 Z"
       fill="#bec5cd"
       id="path36" />
    <path
       d="m 195.082,17.432 c -0.177,0 -0.494,-0.0184 -0.737,-0.0184 -0.27,0 -0.587,0.0184 -0.764,0.0184 h -0.02 v -0.0194 -0.1577 h 0.02 0.086 c 0.249,-0.0061 0.349,-0.0092 0.355,-0.3642 V 14.465 h -0.721 v -0.02 -0.0203 h 0.76 v 2.466 c 0,0.3673 -0.146,0.4035 -0.394,0.4045 H 193.6 v 0.0977 c 0.179,-0.0019 0.483,-0.0184 0.745,-0.0184 0.236,0 0.539,0.0166 0.718,0.0184 v -0.0977 h -0.067 c -0.218,-0.001 -0.394,-0.054 -0.394,-0.414 v -2.4565 h 0.761 c 0.304,0.0012 0.343,0.2625 0.352,0.4324 l 0.099,-0.0366 c 0,-0.1193 0,-0.239 0.009,-0.359 0.012,-0.1178 0.029,-0.2352 0.046,-0.3521 l -0.068,-0.0117 c -0.021,0.1333 -0.149,0.1406 -0.261,0.1387 h -2.335 -0.023 c -0.106,0.0013 -0.222,-0.0051 -0.263,-0.1337 h -0.074 c -0.001,0.127 -0.01,0.2502 -0.027,0.3721 -0.012,0.1261 -0.035,0.2473 -0.052,0.3677 h 0.097 c 0.06,-0.3191 0.099,-0.4226 0.438,-0.4178 v 0.0203 0.02 c -0.336,0.0057 -0.328,0.0632 -0.402,0.4016 l -0.004,0.0155 h -0.015 -0.159 l 0.003,-0.0229 c 0.019,-0.1291 0.041,-0.2568 0.054,-0.3892 0.019,-0.1279 0.028,-0.2549 0.028,-0.3863 v -0.02 h 0.019 0.124 l 0.003,0.0143 c 0.032,0.1155 0.115,0.1162 0.23,0.1181 l 0.023,6e-4 h 2.335 c 0.124,-0.0025 0.216,-0.0044 0.223,-0.1238 l 0.002,-0.0219 0.021,0.0045 0.128,0.0203 -0.003,0.02 c -0.019,0.1226 -0.036,0.2464 -0.05,0.3692 -0.009,0.1219 -0.009,0.2461 -0.009,0.3692 v 0.0143 l -0.013,0.0051 -0.16,0.059 -0.001,-0.0267 c -0.011,-0.172 -0.029,-0.4209 -0.315,-0.4209 h -0.722 v 2.4162 c 0.004,0.3454 0.14,0.3692 0.355,0.3736 h 0.106 v 0.0197 0.1575 z"
       fill="#bec5cd"
       id="path37" />
    <path
       d="m 196.059,17.2746 h 0.063 c 0.163,0 0.334,-0.0221 0.334,-0.2606 v -2.3987 c 0,-0.2388 -0.171,-0.2613 -0.334,-0.2613 h -0.063 v -0.1374 c 0.176,0 0.447,0.018 0.668,0.018 0.227,0 0.499,-0.018 0.711,-0.018 v 0.1374 h -0.063 c -0.163,0 -0.335,0.0226 -0.335,0.2613 v 2.3987 c 0,0.2385 0.172,0.2606 0.335,0.2606 h 0.063 v 0.1382 c -0.217,0 -0.489,-0.0181 -0.714,-0.0181 -0.222,0 -0.489,0.0181 -0.665,0.0181 z"
       fill="#bec5cd"
       id="path38" />
    <path
       d="m 197.438,17.432 c -0.218,0 -0.489,-0.0187 -0.714,-0.0187 -0.221,0 -0.489,0.0187 -0.665,0.0187 h -0.02 v -0.0193 -0.1381 -0.0197 h 0.02 0.063 c 0.164,-0.0026 0.313,-0.0169 0.314,-0.241 v -2.3987 c -0.001,-0.2235 -0.15,-0.2388 -0.314,-0.2419 h -0.083 v -0.0194 -0.1571 h 0.02 c 0.176,0 0.448,0.0174 0.668,0.0174 0.226,0 0.497,-0.0174 0.711,-0.0174 h 0.02 v 0.0196 0.1569 h -0.02 -0.063 c -0.165,0.0031 -0.314,0.0184 -0.316,0.2419 v 2.3987 c 0.002,0.2241 0.151,0.2384 0.316,0.241 h 0.083 v 0.0197 0.1574 z m -0.02,-0.04 v -0.0968 h -0.043 c -0.162,0 -0.354,-0.0289 -0.354,-0.2813 v -2.3987 c 0,-0.2531 0.192,-0.2816 0.354,-0.2816 h 0.043 v -0.0972 c -0.209,0.0013 -0.47,0.0178 -0.691,0.0178 -0.214,0 -0.473,-0.0165 -0.648,-0.0178 v 0.0972 h 0.043 c 0.161,0 0.354,0.0285 0.354,0.2816 v 2.3987 c 0,0.2524 -0.193,0.2813 -0.354,0.2813 h -0.043 v 0.0968 c 0.174,-0.0019 0.43,-0.0175 0.645,-0.0175 0.219,0 0.481,0.0166 0.694,0.0175 z"
       fill="#bec5cd"
       id="path39" />
    <path
       d="m 199.242,14.1479 c 0.964,0 1.732,0.6051 1.732,1.58 0,1.0534 -0.746,1.7534 -1.709,1.7534 -0.959,0 -1.691,-0.6594 -1.691,-1.6438 0,-0.9521 0.727,-1.6896 1.668,-1.6896 z m 0.068,3.1318 c 0.878,0 1.03,-0.7835 1.03,-1.4511 0,-0.6692 -0.356,-1.4794 -1.107,-1.4794 -0.791,0 -1.026,0.7143 -1.026,1.3273 0,0.8197 0.37,1.6032 1.103,1.6032 z"
       fill="#bec5cd"
       id="path40" />
    <path
       d="m 197.553,15.8375 c 0.002,-0.9632 0.739,-1.7083 1.689,-1.7096 v 0.02 0.0194 c -0.93,0 -1.649,0.7279 -1.65,1.6701 0.002,0.9734 0.724,1.6229 1.673,1.6232 0.954,-3e-4 1.689,-0.6905 1.691,-1.7336 -10e-4,-0.9626 -0.758,-1.5585 -1.714,-1.5597 v -0.0194 -0.02 c 0.971,7e-4 1.75,0.6118 1.752,1.5991 -0.001,1.0644 -0.757,1.7717 -1.729,1.7736 -0.967,-0.0019 -1.71,-0.6679 -1.711,-1.6632 h -0.001 z m 0.634,-0.161 c 10e-4,-0.6158 0.239,-1.3479 1.046,-1.3479 0.768,0.0019 1.126,0.8273 1.128,1.5 -0.002,0.6676 -0.157,1.4702 -1.051,1.4702 V 17.2797 17.26 c 0.86,-0.0012 1.009,-0.7638 1.012,-1.4314 0,-0.6638 -0.354,-1.4584 -1.089,-1.4594 -0.776,0.001 -1.005,0.6975 -1.007,1.3073 0.001,0.8156 0.368,1.5816 1.084,1.5835 v 0.0197 0.0191 c -0.75,-0.001 -1.122,-0.7978 -1.123,-1.6223 z"
       fill="#bec5cd"
       id="path41" />
    <path
       d="m 204.022,16.5102 0.009,-0.0089 v -1.7168 c 0,-0.3759 -0.258,-0.4305 -0.394,-0.4305 h -0.098 v -0.1374 c 0.212,0 0.42,0.018 0.632,0.018 0.186,0 0.372,-0.018 0.557,-0.018 v 0.1374 h -0.068 c -0.19,0 -0.403,0.0365 -0.403,0.5813 v 2.0838 c 0,0.1601 0.005,0.32 0.028,0.462 h -0.172 l -2.329,-2.6283 v 1.8867 c 0,0.3984 0.076,0.5352 0.424,0.5352 h 0.078 v 0.1381 c -0.195,0 -0.389,-0.0181 -0.584,-0.0181 -0.203,0 -0.412,0.0181 -0.615,0.0181 v -0.1381 h 0.063 c 0.313,0 0.407,-0.2146 0.407,-0.5806 v -1.9286 c 0,-0.2562 -0.207,-0.4114 -0.411,-0.4114 h -0.059 v -0.1375 c 0.172,0 0.348,0.0181 0.52,0.0181 0.135,0 0.266,-0.0181 0.402,-0.0181 z"
       fill="#bec5cd"
       id="path42" />
    <path
       d="m 204.285,17.5006 -0.187,-0.0067 -2.295,-2.5895 v 1.8349 c 0.005,0.3981 0.065,0.5108 0.404,0.5149 h 0.098 v 0.0207 0.1571 h -0.019 c -0.196,0 -0.391,-0.0184 -0.584,-0.0184 -0.203,0 -0.41,0.0184 -0.616,0.0184 h -0.019 v -0.0197 -0.1581 h 0.019 0.064 c 0.298,-9e-4 0.384,-0.1952 0.388,-0.5603 v -1.9286 c -0.001,-0.2438 -0.198,-0.3917 -0.393,-0.392 h -0.078 v -0.0194 -0.1571 h 0.019 c 0.174,0 0.35,0.0175 0.521,0.0175 0.134,0 0.264,-0.0175 0.417,-0.0108 l 1.987,2.2651 v -1.6839 c -0.001,-0.3644 -0.242,-0.4082 -0.374,-0.4114 h -0.119 V 14.354 14.1968 h 0.02 c 0.213,0 0.422,0.0175 0.632,0.0175 0.186,0 0.37,-0.0175 0.558,-0.0175 h 0.019 v 0.0197 0.1568 h -0.019 -0.068 c -0.186,0.0054 -0.379,0.0226 -0.383,0.5619 v 2.0835 c 0,0.16 0.004,0.3197 0.026,0.4597 l 0.003,0.0222 z m -0.172,-0.04 h 0.148 c -0.02,-0.1375 -0.023,-0.2899 -0.023,-0.4419 v -2.0835 c 0,-0.5505 0.228,-0.6004 0.422,-0.6019 h 0.049 v -0.0969 c -0.179,0.0013 -0.358,0.0178 -0.538,0.0178 -0.206,0 -0.409,-0.0165 -0.613,-0.0178 v 0.0969 h 0.079 c 0.14,0.0015 0.413,0.0641 0.413,0.4514 l -0.005,1.7301 -0.008,0.0096 -0.015,0.0146 -2.013,-2.3025 c -0.133,0 -0.265,0.0177 -0.402,0.0177 -0.167,0 -0.337,-0.0165 -0.501,-0.0177 v 0.0968 h 0.04 c 0.212,0.0016 0.431,0.1638 0.431,0.432 v 1.9286 c 0,0.3661 -0.101,0.6003 -0.427,0.6016 l -0.044,-3e-4 v 0.0968 c 0.196,-9e-4 0.397,-0.0174 0.596,-0.0174 0.189,0 0.376,0.0165 0.564,0.0174 v -0.0965 h -0.058 c -0.355,-3e-4 -0.444,-0.1581 -0.444,-0.5562 v -1.9381 z m -0.091,-0.9508 0.015,-0.0131 z m -0.011,-0.0086 v -0.0016 l -0.003,-0.0035 z"
       fill="#bec5cd"
       id="path43" />
    <path
       d="m 205.455,16.7578 c -0.044,0.1552 -0.099,0.2752 -0.099,0.3568 0,0.1378 0.19,0.16 0.339,0.16 h 0.05 v 0.1381 c -0.181,-0.0099 -0.367,-0.0181 -0.548,-0.0181 -0.163,0 -0.325,0.0083 -0.487,0.0181 v -0.1381 h 0.025 c 0.178,0 0.328,-0.1051 0.394,-0.2978 l 0.725,-2.101 c 0.058,-0.1695 0.14,-0.3984 0.166,-0.5682 0.145,-0.0498 0.326,-0.1413 0.413,-0.1965 0.013,-0.0047 0.022,-0.0095 0.036,-0.0095 0.013,0 0.021,0 0.031,0.0142 0.013,0.0362 0.028,0.0778 0.041,0.1143 l 0.832,2.395 c 0.054,0.16 0.108,0.3292 0.168,0.4669 0.054,0.1283 0.149,0.1826 0.298,0.1826 h 0.027 v 0.1381 c -0.203,-0.0099 -0.407,-0.0181 -0.624,-0.0181 -0.221,0 -0.448,0.0083 -0.679,0.0181 v -0.1381 h 0.051 c 0.103,0 0.28,-0.0178 0.28,-0.1324 0,-0.0594 -0.041,-0.1829 -0.091,-0.3298 l -0.176,-0.5312 H 205.6 Z m 0.661,-2.0286 h -0.009 l -0.421,1.2959 h 0.846 z"
       fill="#bec5cd"
       id="path44" />
    <path
       d="m 207.864,17.4321 c -0.203,-0.0083 -0.406,-0.0184 -0.622,-0.0184 -0.221,0 -0.447,0.0101 -0.678,0.0184 l -0.02,0.0012 v -0.0209 -0.1575 h 0.019 0.049 c 0.106,0 0.262,-0.0247 0.262,-0.1127 0.001,-0.0521 -0.04,-0.1768 -0.09,-0.3235 l -0.172,-0.5177 h -0.998 l -0.14,0.4625 c -0.045,0.1568 -0.099,0.2771 -0.098,0.3511 0,0.1124 0.169,0.1403 0.319,0.1403 h 0.069 v 0.0197 0.1587 l -0.021,-0.0012 c -0.181,-0.0083 -0.366,-0.0184 -0.546,-0.0184 -0.162,0 -0.324,0.0101 -0.487,0.0184 l -0.02,0.0012 v -0.0209 -0.1575 h 0.02 0.025 c 0.169,-6e-4 0.31,-0.0987 0.376,-0.2844 l 0.724,-2.1013 c 0.058,-0.1698 0.139,-0.3981 0.179,-0.58 0.142,-0.0498 0.324,-0.1412 0.412,-0.1972 0.012,-0.0041 0.024,-0.0095 0.043,-0.0095 0.011,-0.0012 0.035,0.0016 0.049,0.0267 0.014,0.0359 0.027,0.0774 0.042,0.1146 l 0.832,2.3946 c 0.053,0.1607 0.108,0.3299 0.166,0.4661 0.053,0.1212 0.136,0.1692 0.28,0.1704 h 0.047 v 0.0197 0.1587 z m -1.281,-0.0404 c 0.223,-0.0085 0.444,-0.0174 0.659,-0.0174 0.21,0 0.407,0.0089 0.604,0.0168 v -0.0956 h -0.008 c -0.153,4e-4 -0.26,-0.0606 -0.316,-0.1955 -0.06,-0.1391 -0.113,-0.3089 -0.167,-0.4686 l -0.833,-2.3949 c -0.013,-0.0365 -0.027,-0.0781 -0.038,-0.1092 -0.004,-0.0057 -0.004,-0.0057 -0.007,-0.0057 h -0.008 c -0.01,0 -0.015,0.0031 -0.026,0.0063 -0.088,0.0562 -0.269,0.1476 -0.403,0.1829 -0.028,0.1733 -0.11,0.4016 -0.169,0.5714 l -0.724,2.1016 c -0.068,0.1987 -0.227,0.3121 -0.412,0.3117 h -0.006 v 0.0956 c 0.155,-0.0079 0.311,-0.0168 0.468,-0.0168 0.176,0 0.354,0.0089 0.528,0.0168 v -0.0956 h -0.031 c -0.147,-0.0019 -0.353,-0.0181 -0.358,-0.1809 10e-4,-0.0908 0.057,-0.2073 0.1,-0.3626 l 0.019,0.006 -0.019,-0.0066 0.149,-0.4895 h 1.055 l 0.181,0.5441 c 0.05,0.1473 0.091,0.2689 0.091,0.3362 -0.006,0.1406 -0.196,0.1504 -0.3,0.1533 h -0.029 z m -0.924,-1.3472 0.434,-1.3353 h 0.013 0.01 v 0.02 l -0.005,9e-4 0.005,-9e-4 v -0.02 h 0.014 l 0.428,1.3353 z m 0.054,-0.0394 h 0.791 l -0.393,-1.2264 z m 0.384,-1.2702 0.009,-0.0035 z"
       fill="#bec5cd"
       id="path45" />
    <path
       d="m 209.006,16.9639 c 0,0.1832 0.126,0.2377 0.27,0.2565 0.186,0.0139 0.389,0.0139 0.598,-0.0092 0.19,-0.0232 0.353,-0.133 0.434,-0.2473 0.072,-0.101 0.113,-0.2293 0.14,-0.3299 h 0.131 c -0.05,0.261 -0.113,0.5181 -0.168,0.7787 -0.397,0 -0.795,-0.0181 -1.193,-0.0181 -0.399,0 -0.796,0.0181 -1.194,0.0181 v -0.1381 h 0.062 c 0.164,0 0.341,-0.0222 0.341,-0.3063 v -2.353 c 0,-0.2388 -0.177,-0.2613 -0.341,-0.2613 h -0.062 v -0.1374 c 0.239,0 0.475,0.018 0.714,0.018 0.231,0 0.457,-0.018 0.688,-0.018 v 0.1374 h -0.114 c -0.171,0 -0.306,0.0051 -0.306,0.247 z"
       fill="#bec5cd"
       id="path46" />
    <path
       d="m 210.411,17.432 c -0.398,0 -0.796,-0.0184 -1.193,-0.0184 -0.398,0 -0.796,0.0184 -1.195,0.0184 h -0.019 v -0.0197 -0.1575 h 0.019 0.063 c 0.164,-0.0038 0.319,-0.0152 0.321,-0.2866 v -2.354 c -0.002,-0.2225 -0.156,-0.2377 -0.321,-0.2409 h -0.082 v -0.0194 -0.1571 h 0.019 c 0.241,0 0.476,0.0174 0.715,0.0174 0.23,0 0.456,-0.0174 0.688,-0.0174 h 0.018 v 0.0197 0.1568 h -0.018 -0.114 c -0.175,0.005 -0.284,-0.0032 -0.288,0.2276 v 2.3629 c 0.002,0.1704 0.112,0.2165 0.253,0.2365 0.08,0.0057 0.164,0.0092 0.251,0.0092 0.111,0 0.226,-0.0054 0.343,-0.0181 0.184,-0.0219 0.343,-0.1295 0.421,-0.2387 0.069,-0.0978 0.109,-0.2235 0.136,-0.3235 l 0.004,-0.0152 h 0.015 0.156 l -0.004,0.0241 c -0.052,0.2619 -0.114,0.5178 -0.169,0.7784 l -0.003,0.0155 h -0.016 z m -0.016,-0.04 c 0.052,-0.2483 0.112,-0.4912 0.16,-0.7388 h -0.093 c -0.028,0.0997 -0.068,0.2226 -0.139,0.3226 -0.085,0.1187 -0.252,0.2304 -0.448,0.2549 -0.119,0.0124 -0.236,0.0187 -0.347,0.0187 -0.087,0 -0.172,-0.0041 -0.254,-0.0099 -0.147,-0.0165 -0.29,-0.08 -0.289,-0.2758 v -2.3629 c 0,-0.2542 0.159,-0.2673 0.327,-0.2673 h 0.094 v -0.0971 c -0.223,0.0013 -0.443,0.0181 -0.668,0.0181 -0.234,0 -0.463,-0.0168 -0.695,-0.0181 v 0.0971 h 0.043 c 0.162,0 0.359,0.0286 0.359,0.2807 v 2.3539 c 0,0.2962 -0.196,0.327 -0.359,0.327 h -0.043 v 0.0969 c 0.391,-4e-4 0.782,-0.0175 1.175,-0.0175 0.393,0 0.786,0.0171 1.177,0.0175 z"
       fill="#bec5cd"
       id="path47" />
    <path
       d="m 210.524,14.0864 c 0.273,0 0.476,0.2121 0.476,0.4838 0,0.2705 -0.203,0.4807 -0.476,0.4807 -0.273,0 -0.476,-0.2102 -0.476,-0.4807 0,-0.2717 0.203,-0.4838 0.476,-0.4838 z m 0,0.8746 c 0.213,0 0.377,-0.1841 0.377,-0.3908 0,-0.2079 -0.162,-0.3936 -0.377,-0.3936 -0.214,0 -0.378,0.1857 -0.378,0.3936 0,0.2067 0.164,0.3908 0.378,0.3908 z m -0.237,-0.1368 v -0.0238 c 0.059,-0.0083 0.069,-0.0064 0.069,-0.0432 v -0.3568 c 0,-0.0501 -0.005,-0.0673 -0.067,-0.0648 v -0.0244 h 0.244 c 0.084,0 0.161,0.0403 0.161,0.1279 0,0.0718 -0.047,0.1248 -0.113,0.1454 l 0.078,0.1105 c 0.037,0.0501 0.078,0.0971 0.105,0.1136 v 0.0156 h -0.093 c -0.044,0 -0.083,-0.0949 -0.171,-0.2222 h -0.053 v 0.1603 c 0,0.0317 0.011,0.0298 0.07,0.0381 v 0.0238 z m 0.16,-0.254 h 0.057 c 0.061,0 0.09,-0.0473 0.09,-0.1231 0,-0.0769 -0.045,-0.1039 -0.094,-0.1039 h -0.053 z"
       fill="#bec5cd"
       id="path48" />
    <path
       d="m 161.688,20 c 4.321,0.0209 8.264,-3.5664 8.264,-7.9305 0,-4.77236 -3.943,-8.07109 -8.264,-8.0695 H 157.97 C 153.599,3.99841 150,7.29813 150,12.0695 c 0,4.3651 3.599,7.9515 7.97,7.9305 z"
       fill="#575e66"
       id="path49" />
    <path
       d="m 157.988,4.66138 c -3.995,0.00127 -7.232,3.27904 -7.233,7.32452 0.001,4.0447 3.238,7.3221 7.233,7.3234 3.996,-0.0013 7.234,-3.2787 7.234,-7.3234 0,-4.04548 -3.238,-7.32325 -7.234,-7.32452 z m -4.585,7.32452 c 0.004,-1.9769 1.224,-3.66259 2.943,-4.33246 v 8.66386 c -1.719,-0.6695 -2.939,-2.3543 -2.943,-4.3314 z m 6.226,4.3333 V 7.65315 c 1.72,0.66826 2.942,2.35495 2.945,4.33275 -0.003,1.9783 -1.225,3.6637 -2.945,4.3333 z"
       fill="#ffffff"
       id="path50" />
    <path
       d="m 172.485,7.44227 c 0,-0.75686 -0.389,-0.70702 -0.763,-0.71524 V 6.5083 c 0.324,0.01619 0.656,0.01619 0.98,0.01619 0.35,0 0.823,-0.01619 1.439,-0.01619 2.152,0 3.324,1.45524 3.324,2.94537 0,0.83333 -0.482,2.92823 -3.424,2.92823 -0.424,0 -0.815,-0.0165 -1.206,-0.0165 -0.373,0 -0.739,0.0083 -1.113,0.0165 v -0.2184 c 0.498,-0.0508 0.74,-0.0676 0.763,-0.64 z m 0.815,3.94693 c 0,0.648 0.458,0.7235 0.865,0.7235 1.796,0 2.385,-1.3717 2.385,-2.6257 0,-1.57302 -0.997,-2.70889 -2.601,-2.70889 -0.341,0 -0.498,0.02476 -0.649,0.03368 z"
       fill="#bec5cd"
       id="path51" />
    <path
       d="m 177.757,12.1636 h 0.157 c 0.232,0 0.399,0 0.399,-0.2785 V 9.60516 c 0,-0.36981 -0.125,-0.42127 -0.432,-0.58858 V 8.88166 c 0.39,-0.11873 0.856,-0.27746 0.889,-0.30285 0.059,-0.03365 0.108,-0.04254 0.15,-0.04254 0.041,0 0.058,0.05079 0.058,0.11841 v 3.23042 c 0,0.2785 0.183,0.2785 0.416,0.2785 h 0.141 v 0.2187 c -0.283,0 -0.574,-0.0168 -0.873,-0.0168 -0.299,0 -0.598,0.0083 -0.905,0.0168 z m 0.889,-4.92292 c -0.217,0 -0.407,-0.20187 -0.407,-0.42063 0,-0.2108 0.199,-0.40477 0.407,-0.40477 0.215,0 0.407,0.1775 0.407,0.40477 0,0.2273 -0.183,0.42063 -0.407,0.42063 z"
       fill="#bec5cd"
       id="path52" />
    <path
       d="m 180.324,9.65518 c 0,-0.31111 -0.091,-0.39492 -0.481,-0.55492 V 8.94061 c 0.357,-0.11778 0.697,-0.2273 1.096,-0.40445 0.025,0 0.05,0.01715 0.05,0.08413 v 0.54727 c 0.474,-0.34473 0.882,-0.63143 1.439,-0.63143 0.706,0 0.955,0.52188 0.955,1.17807 v 2.1708 c 0,0.2784 0.183,0.2784 0.416,0.2784 h 0.15 v 0.2188 c -0.292,0 -0.583,-0.0168 -0.881,-0.0168 -0.3,0 -0.599,0.0082 -0.898,0.0168 v -0.2188 h 0.149 c 0.233,0 0.399,0 0.399,-0.2784 V 9.70626 c 0,-0.48032 -0.29,-0.71556 -0.764,-0.71556 -0.266,0 -0.69,0.21877 -0.965,0.40413 V 11.885 c 0,0.2784 0.183,0.2784 0.417,0.2784 h 0.149 v 0.2187 c -0.291,0 -0.582,-0.0168 -0.881,-0.0168 -0.299,0 -0.599,0.0083 -0.898,0.0168 v -0.2187 h 0.15 c 0.233,0 0.398,0 0.398,-0.2784 z"
       fill="#bec5cd"
       id="path53" />
    <path
       d="m 184.581,10.0596 c -0.018,0.0759 -0.018,0.2019 0,0.4883 0.049,0.799 0.557,1.4552 1.221,1.4552 0.457,0 0.816,-0.2523 1.123,-0.5634 l 0.116,0.1181 c -0.383,0.513 -0.857,0.9504 -1.538,0.9504 -1.322,0 -1.588,-1.2962 -1.588,-1.8343 0,-1.64951 1.097,-2.13777 1.679,-2.13777 0.673,0 1.397,0.42892 1.405,1.32096 0,0.05111 0,0.10095 -0.008,0.15201 l -0.075,0.0505 z m 1.471,-0.26947 c 0.207,0 0.232,-0.10952 0.232,-0.21016 0,-0.42923 -0.258,-0.77431 -0.723,-0.77431 -0.507,0 -0.856,0.37809 -0.956,0.98447 z"
       fill="#bec5cd"
       id="path54" />
    <path
       d="m 187.19,12.1635 h 0.225 c 0.232,0 0.398,0 0.398,-0.2785 V 9.52089 c 0,-0.26063 -0.307,-0.31142 -0.432,-0.37873 V 9.01645 c 0.607,-0.26127 0.939,-0.48032 1.015,-0.48032 0.049,0 0.074,0.0254 0.074,0.10984 v 0.75715 h 0.017 c 0.208,-0.32794 0.557,-0.86699 1.064,-0.86699 0.208,0 0.473,0.14286 0.473,0.44603 0,0.22731 -0.157,0.42985 -0.39,0.42985 -0.258,0 -0.258,-0.20254 -0.549,-0.20254 -0.141,0 -0.606,0.19365 -0.606,0.69873 v 1.9768 c 0,0.2784 0.165,0.2784 0.398,0.2784 h 0.466 v 0.2188 c -0.458,-0.0086 -0.805,-0.0168 -1.164,-0.0168 -0.34,0 -0.69,0.0082 -0.989,0.0168 z"
       fill="#bec5cd"
       id="path55" />
    <path
       d="m 190.39,11.212 c 0.109,0.5555 0.441,1.027 1.048,1.027 0.489,0 0.672,-0.3029 0.672,-0.5975 0,-0.993 -1.811,-0.6733 -1.811,-2.02791 0,-0.47143 0.374,-1.07746 1.288,-1.07746 0.266,0 0.623,0.07619 0.947,0.24476 l 0.059,0.8575 h -0.192 c -0.082,-0.52956 -0.373,-0.8327 -0.906,-0.8327 -0.332,0 -0.648,0.19368 -0.648,0.55524 0,0.98537 1.929,0.68157 1.929,2.00257 0,0.5552 -0.441,1.1447 -1.43,1.1447 -0.333,0 -0.723,-0.1178 -1.014,-0.2857 l -0.092,-0.9679 z"
       fill="#bec5cd"
       id="path56" />
    <path
       d="m 200.281,8.03143 h -0.207 c -0.158,-0.98412 -0.848,-1.38 -1.779,-1.38 -0.957,0 -2.345,0.64759 -2.345,2.66699 0,1.70098 1.198,2.92058 2.478,2.92058 0.822,0 1.504,-0.572 1.671,-1.4558 l 0.19,0.0501 -0.19,1.2286 c -0.349,0.2193 -1.289,0.4464 -1.838,0.4464 -1.944,0 -3.174,-1.2708 -3.174,-3.16417 0,-1.72508 1.521,-2.96254 3.15,-2.96254 0.673,0 1.321,0.21968 1.961,0.44699 z"
       fill="#bec5cd"
       id="path57" />
    <path
       d="m 200.581,12.1635 h 0.157 c 0.233,0 0.4,0 0.4,-0.2785 V 7.1987 c 0,-0.5473 -0.125,-0.56416 -0.441,-0.65654 v -0.1346 c 0.333,-0.10918 0.682,-0.26095 0.856,-0.36219 0.091,-0.05016 0.158,-0.09273 0.183,-0.09273 0.05,0 0.067,0.05082 0.067,0.11841 V 11.885 c 0,0.2785 0.183,0.2785 0.416,0.2785 h 0.14 v 0.2187 c -0.282,0 -0.573,-0.0168 -0.872,-0.0168 -0.299,0 -0.598,0.0083 -0.906,0.0168 z"
       fill="#bec5cd"
       id="path58" />
    <path
       d="m 205.918,11.9188 c 0,0.1521 0.091,0.1603 0.232,0.1603 0.1,0 0.224,-0.0082 0.332,-0.0082 v 0.1771 c -0.357,0.0333 -1.039,0.2102 -1.197,0.2603 l -0.042,-0.0254 V 11.802 c -0.498,0.412 -0.881,0.7063 -1.471,0.7063 -0.449,0 -0.914,-0.2943 -0.914,-1.0006 V 9.35275 c 0,-0.21873 -0.033,-0.42924 -0.498,-0.47111 v -0.16 c 0.299,-0.00826 0.963,-0.05877 1.072,-0.05877 0.092,0 0.092,0.05877 0.092,0.24384 v 2.17049 c 0,0.253 0,0.9765 0.722,0.9765 0.283,0 0.657,-0.2188 1.006,-0.5124 V 9.27652 c 0,-0.16761 -0.399,-0.26 -0.698,-0.34447 V 8.78062 c 0.747,-0.05079 1.214,-0.11778 1.296,-0.11778 0.068,0 0.068,0.05873 0.068,0.15175 z"
       fill="#bec5cd"
       id="path59" />
    <path
       d="m 207.572,9.14219 c 0.332,-0.28606 0.78,-0.60603 1.238,-0.60603 0.964,0 1.546,0.85079 1.546,1.76724 0,1.1023 -0.798,2.2048 -1.987,2.2048 -0.615,0 -0.939,-0.2022 -1.155,-0.2943 l -0.249,0.193 -0.174,-0.092 c 0.073,-0.4965 0.116,-0.9848 0.116,-1.4978 V 7.19867 c 0,-0.54727 -0.126,-0.56413 -0.441,-0.65651 v -0.1346 c 0.333,-0.10918 0.681,-0.26095 0.856,-0.36222 0.091,-0.05016 0.158,-0.0927 0.183,-0.0927 0.05,0 0.066,0.05082 0.066,0.11841 v 3.07111 h 0.001 z m 0,2.28861 c 0,0.32 0.298,0.859 0.855,0.859 0.89,0 1.264,-0.8841 1.264,-1.6333 0,-0.90856 -0.681,-1.6657 -1.33,-1.6657 -0.308,0 -0.565,0.20222 -0.79,0.39615 v 2.04385 z"
       fill="#bec5cd"
       id="path60" />
    <path
       d="m 171.712,17.2746 h 0.064 c 0.162,0 0.334,-0.0221 0.334,-0.2606 v -2.3987 c 0,-0.2388 -0.172,-0.2613 -0.334,-0.2613 h -0.064 v -0.1374 c 0.177,0 0.448,0.018 0.67,0.018 0.226,0 0.497,-0.018 0.71,-0.018 v 0.1374 h -0.064 c -0.162,0 -0.334,0.0226 -0.334,0.2613 v 2.3987 c 0,0.2385 0.172,0.2606 0.334,0.2606 h 0.064 v 0.1382 c -0.217,0 -0.489,-0.0181 -0.715,-0.0181 -0.221,0 -0.488,0.0181 -0.665,0.0181 z"
       fill="#bec5cd"
       id="path61" />
    <path
       d="m 173.092,17.4322 c -0.219,0 -0.49,-0.0184 -0.715,-0.0184 -0.221,0 -0.487,0.0184 -0.665,0.0184 h -0.019 v -0.0197 -0.1374 -0.02 h 0.019 0.064 c 0.164,-0.0039 0.313,-0.0172 0.315,-0.241 v -2.3988 c -0.002,-0.2238 -0.151,-0.2387 -0.315,-0.2419 h -0.083 v -0.0193 -0.1578 h 0.019 c 0.178,0 0.449,0.0181 0.67,0.0181 0.225,0 0.496,-0.0181 0.71,-0.0181 h 0.02 v 0.0209 0.1562 h -0.02 -0.063 c -0.164,0.0032 -0.315,0.0181 -0.316,0.2419 v 2.3988 c 0.001,0.2238 0.152,0.2371 0.316,0.241 h 0.083 v 0.02 0.1571 z m -0.02,-0.0391 v -0.0978 h -0.043 c -0.162,0 -0.354,-0.0282 -0.355,-0.2812 v -2.3988 c 0.001,-0.253 0.193,-0.2816 0.355,-0.2816 h 0.043 v -0.0971 c -0.208,0 -0.47,0.0178 -0.69,0.0178 -0.215,0 -0.475,-0.0165 -0.65,-0.0178 v 0.0971 h 0.044 c 0.161,0 0.354,0.0286 0.354,0.2816 v 2.3988 c 0,0.253 -0.193,0.2812 -0.354,0.2812 h -0.044 v 0.0978 c 0.175,-0.0019 0.431,-0.0184 0.645,-0.0184 0.22,0 0.482,0.0171 0.695,0.0184 z"
       fill="#bec5cd"
       id="path62" />
    <path
       d="m 176.199,16.5102 0.009,-0.0089 v -1.7168 c 0,-0.3759 -0.258,-0.4305 -0.394,-0.4305 h -0.099 v -0.1374 c 0.213,0 0.421,0.018 0.633,0.018 0.185,0 0.372,-0.018 0.557,-0.018 v 0.1374 h -0.068 c -0.191,0 -0.403,0.0365 -0.403,0.5813 v 2.0838 c 0,0.1601 0.005,0.32 0.027,0.462 h -0.172 l -2.329,-2.6283 v 1.8867 c 0,0.3984 0.076,0.5352 0.425,0.5352 h 0.076 v 0.1381 c -0.194,0 -0.388,-0.0181 -0.583,-0.0181 -0.203,0 -0.411,0.0181 -0.615,0.0181 v -0.1381 h 0.064 c 0.312,0 0.407,-0.2146 0.407,-0.5806 v -1.9286 c 0,-0.2562 -0.209,-0.4114 -0.412,-0.4114 h -0.059 v -0.1375 c 0.172,0 0.349,0.0181 0.52,0.0181 0.136,0 0.267,-0.0181 0.403,-0.0181 z"
       fill="#bec5cd"
       id="path63" />
    <path
       d="m 176.461,17.5009 -0.187,-0.007 -2.295,-2.5895 v 1.8349 c 0.005,0.3981 0.065,0.5112 0.406,0.5156 h 0.097 v 0.0197 0.1574 h -0.02 c -0.196,0 -0.391,-0.0184 -0.584,-0.0184 -0.202,0 -0.41,0.0184 -0.615,0.0184 h -0.02 v -0.0197 -0.1574 h 0.02 0.064 c 0.299,-0.0016 0.384,-0.1959 0.387,-0.561 v -1.9282 c 0,-0.2438 -0.198,-0.3918 -0.392,-0.3924 h -0.079 V 14.353 14.1968 h 0.02 c 0.173,0 0.35,0.0174 0.52,0.0174 0.134,0 0.265,-0.0174 0.418,-0.0108 l 1.987,2.2652 v -1.6839 c -0.002,-0.3644 -0.242,-0.4082 -0.374,-0.4114 h -0.12 V 14.353 14.1968 h 0.021 c 0.213,0 0.421,0.0174 0.633,0.0174 0.184,0 0.369,-0.0174 0.556,-0.0174 h 0.02 v 0.0197 0.1568 h -0.02 -0.067 c -0.187,0.0054 -0.379,0.0219 -0.384,0.5619 v 2.0835 c 0,0.16 0.005,0.32 0.027,0.4587 l 0.004,0.0235 z m -0.172,-0.0403 h 0.149 c -0.02,-0.1375 -0.023,-0.2899 -0.023,-0.4419 v -2.0835 c 0,-0.5496 0.227,-0.6016 0.422,-0.6016 h 0.047 v -0.0972 c -0.178,0.0013 -0.356,0.0178 -0.536,0.0178 -0.207,0 -0.408,-0.0165 -0.613,-0.0178 l -0.001,0.0972 h 0.08 c 0.139,0 0.414,0.0628 0.414,0.4511 l -0.007,1.7301 -0.009,0.0096 -0.015,0.0143 -2.011,-2.3023 c -0.134,0 -0.266,0.0178 -0.403,0.0178 -0.166,0 -0.336,-0.0165 -0.5,-0.0178 l -10e-4,0.0972 h 0.04 c 0.213,0 0.431,0.1641 0.431,0.432 v 1.9283 c 0,0.366 -0.101,0.6003 -0.426,0.6015 l -0.044,-0.0012 v 0.0987 c 0.196,-0.0019 0.397,-0.0184 0.595,-0.0184 0.189,0 0.377,0.0165 0.564,0.0184 v -0.0975 h -0.057 c -0.356,-0.0012 -0.445,-0.158 -0.445,-0.5561 v -1.9381 z m -0.09,-0.9508 0.014,-0.0134 z m -0.011,-0.0089 v -0.0016 l -0.003,-0.0032 z"
       fill="#bec5cd"
       id="path64" />
    <path
       d="m 177.582,14.445 c -0.34,0 -0.353,0.0826 -0.421,0.4165 h -0.135 c 0.018,-0.1279 0.04,-0.2559 0.054,-0.3892 0.018,-0.1283 0.027,-0.2559 0.027,-0.3886 h 0.109 c 0.036,0.1375 0.149,0.1327 0.272,0.1327 h 2.333 c 0.122,0 0.235,-0.0044 0.244,-0.1422 l 0.108,0.0184 c -0.017,0.1238 -0.036,0.2473 -0.049,0.3711 -0.009,0.1235 -0.009,0.2473 -0.009,0.3705 l -0.136,0.0511 c -0.009,-0.1692 -0.032,-0.4403 -0.334,-0.4403 h -0.742 v 2.4362 c 0,0.353 0.158,0.3933 0.375,0.3933 h 0.086 v 0.1381 c -0.176,0 -0.493,-0.0181 -0.737,-0.0181 -0.271,0 -0.588,0.0181 -0.765,0.0181 v -0.1381 h 0.086 c 0.25,0 0.376,-0.0225 0.376,-0.3838 V 14.445 Z"
       fill="#bec5cd"
       id="path65" />
    <path
       d="m 179.365,17.432 c -0.178,0 -0.495,-0.0184 -0.738,-0.0184 -0.271,0 -0.587,0.0184 -0.765,0.0184 h -0.019 v -0.0193 -0.1578 h 0.019 0.086 c 0.25,-0.006 0.35,-0.0092 0.356,-0.3642 v -2.4256 h -0.722 V 14.445 14.4247 h 0.761 v 2.466 c 0,0.3673 -0.146,0.4045 -0.395,0.4048 h -0.066 v 0.0965 c 0.178,-9e-4 0.483,-0.0175 0.745,-0.0175 0.236,0 0.538,0.0166 0.717,0.0175 v -0.0965 h -0.066 c -0.219,-3e-4 -0.395,-0.0546 -0.395,-0.4143 v -2.4565 h 0.762 c 0.303,0.0013 0.343,0.2625 0.353,0.4324 l 0.098,-0.0365 c 0,-0.1194 0,-0.2391 0.008,-0.3597 0.013,-0.1178 0.03,-0.2346 0.047,-0.3514 l -0.069,-0.0118 c -0.021,0.1334 -0.148,0.14 -0.262,0.1388 h -2.332 -0.024 c -0.106,0 -0.222,-0.0051 -0.263,-0.133 h -0.075 c 0,0.1266 -0.009,0.2495 -0.026,0.3714 -0.013,0.1257 -0.034,0.2467 -0.051,0.3676 h 0.097 c 0.059,-0.3191 0.098,-0.4226 0.436,-0.4178 v 0.0204 0.02 c -0.335,0.006 -0.328,0.0631 -0.401,0.4015 l -0.004,0.0156 h -0.015 -0.159 l 0.003,-0.0238 c 0.018,-0.1283 0.041,-0.2559 0.054,-0.3892 0.019,-0.127 0.028,-0.254 0.028,-0.3854 v -0.02 h 0.019 0.124 l 0.003,0.0142 c 0.031,0.1156 0.115,0.1162 0.23,0.1181 h 0.024 2.332 c 0.126,-0.0019 0.218,-0.0038 0.226,-0.1235 l 0.002,-0.0216 0.02,0.0045 0.128,0.0203 -0.003,0.02 c -0.018,0.1226 -0.036,0.2464 -0.05,0.3692 -0.009,0.1219 -0.009,0.2457 -0.009,0.3692 v 0.0143 l -0.012,0.0051 -0.16,0.059 -0.002,-0.0267 c -0.012,-0.172 -0.029,-0.4209 -0.315,-0.4209 h -0.722 v 2.4162 c 0.004,0.3454 0.139,0.3692 0.355,0.3736 h 0.106 v 0.0197 0.1575 z"
       fill="#bec5cd"
       id="path66" />
    <path
       d="m 180.318,17.2746 h 0.064 c 0.162,0 0.334,-0.0221 0.334,-0.2606 v -2.3987 c 0,-0.2388 -0.172,-0.2613 -0.334,-0.2613 h -0.064 v -0.1374 c 0.275,0 0.746,0.018 1.125,0.018 0.381,0 0.851,-0.018 1.158,-0.018 -0.007,0.1965 -0.003,0.4993 0.01,0.7003 l -0.136,0.0368 c -0.022,-0.2974 -0.076,-0.5352 -0.551,-0.5352 h -0.629 v 1.199 h 0.538 c 0.271,0 0.331,-0.1552 0.357,-0.4031 h 0.136 c -0.009,0.1793 -0.014,0.3578 -0.014,0.5362 0,0.1743 0.005,0.3479 0.014,0.5219 l -0.136,0.0273 c -0.026,-0.2746 -0.04,-0.4531 -0.353,-0.4531 h -0.542 v 1.0664 c 0,0.2981 0.262,0.2981 0.552,0.2981 0.542,0 0.782,-0.0372 0.917,-0.5584 l 0.127,0.0314 c -0.059,0.2432 -0.113,0.4854 -0.153,0.7286 -0.29,0 -0.81,-0.0181 -1.217,-0.0181 -0.407,0 -0.945,0.0181 -1.203,0.0181 z"
       fill="#bec5cd"
       id="path67" />
    <path
       d="m 182.737,17.432 c -0.29,0 -0.81,-0.0187 -1.216,-0.0187 -0.408,0 -0.945,0.0187 -1.203,0.0187 h -0.019 v -0.0193 -0.1381 -0.0197 h 0.019 0.063 c 0.164,-0.0026 0.313,-0.0172 0.315,-0.241 v -2.3987 c -0.002,-0.2235 -0.151,-0.2385 -0.315,-0.2419 h -0.082 v -0.0194 -0.1571 h 0.019 c 0.276,0 0.746,0.0174 1.125,0.0174 0.381,0 0.85,-0.0174 1.158,-0.0174 h 0.02 l -0.001,0.0203 c -0.003,0.0689 -0.004,0.1501 -0.004,0.2365 0,0.1584 0.004,0.3314 0.013,0.4619 l 0.001,0.0165 -0.015,0.0045 -0.159,0.0419 -10e-4,-0.0235 c -0.027,-0.2971 -0.066,-0.5127 -0.531,-0.5171 h -0.61 l -0.001,1.159 h 0.52 c 0.26,-0.0025 0.307,-0.1375 0.338,-0.3841 l 0.001,-0.0181 h 0.018 0.156 l -0.001,0.0206 c -0.008,0.1784 -0.014,0.3568 -0.014,0.5352 0,0.1734 0.006,0.347 0.014,0.5213 l 0.001,0.0162 -0.017,0.0038 -0.157,0.0317 -0.001,-0.0215 c -0.031,-0.2794 -0.034,-0.4324 -0.334,-0.4359 l -0.523,-3e-4 v 1.0473 c 0,0.2781 0.238,0.2765 0.532,0.2781 0.545,-0.0032 0.763,-0.0298 0.9,-0.5442 l 0.004,-0.0184 0.019,0.0035 0.145,0.0378 -0.004,0.019 c -0.059,0.2426 -0.113,0.4845 -0.154,0.727 l -0.003,0.0162 z m -0.016,-0.04 c 0.039,-0.2308 0.091,-0.4625 0.146,-0.693 l -0.089,-0.0229 c -0.136,0.5124 -0.398,0.5581 -0.932,0.5546 -0.284,0 -0.57,0 -0.571,-0.3178 v -1.0863 h 0.562 c 0.316,-0.0035 0.348,0.1895 0.37,0.4501 l 0.098,-0.0206 c -0.009,-0.1686 -0.013,-0.3378 -0.013,-0.5057 0,-0.1724 0.004,-0.3438 0.013,-0.5162 h -0.098 c -0.025,0.2384 -0.099,0.406 -0.374,0.4029 h -0.558 v -1.2394 h 0.649 c 0.47,-0.0032 0.548,0.2425 0.568,0.5305 l 0.098,-0.0267 c -0.008,-0.1292 -0.014,-0.2949 -0.014,-0.4479 0,-0.0784 0.002,-0.1524 0.005,-0.2172 -0.307,0.0013 -0.765,0.0178 -1.138,0.0178 -0.371,0 -0.829,-0.0165 -1.106,-0.0178 v 0.0972 h 0.044 c 0.161,0 0.354,0.0285 0.354,0.2816 v 2.3987 c 0,0.2524 -0.193,0.2803 -0.354,0.2816 h -0.044 v 0.0965 c 0.264,-3e-4 0.786,-0.0174 1.184,-0.0174 0.399,0 0.908,0.0171 1.2,0.0174 z"
       fill="#bec5cd"
       id="path68" />
    <path
       d="m 183.502,14.7017 c 0,-0.334 -0.181,-0.3476 -0.322,-0.3476 h -0.081 v -0.1378 c 0.145,0 0.425,0.0184 0.701,0.0184 0.271,0 0.488,-0.0184 0.728,-0.0184 0.569,0 1.076,0.1559 1.076,0.8067 0,0.4111 -0.271,0.6632 -0.628,0.8057 l 0.773,1.1714 c 0.127,0.1937 0.217,0.248 0.439,0.2746 v 0.1381 c -0.15,0 -0.294,-0.0181 -0.443,-0.0181 -0.141,0 -0.286,0.0181 -0.425,0.0181 -0.349,-0.4625 -0.648,-0.9571 -0.942,-1.4841 h -0.297 v 0.9803 c 0,0.353 0.162,0.3657 0.37,0.3657 h 0.081 v 0.1381 c -0.258,0 -0.519,-0.018 -0.777,-0.018 -0.218,0 -0.43,0.018 -0.656,0.018 v -0.1381 h 0.081 c 0.168,0 0.322,-0.0768 0.322,-0.2466 z m 0.579,1.0622 h 0.221 c 0.452,0 0.696,-0.1739 0.696,-0.7143 0,-0.4069 -0.258,-0.6682 -0.661,-0.6682 -0.135,0 -0.193,0.0143 -0.256,0.0184 z"
       fill="#bec5cd"
       id="path69" />
    <path
       d="m 186.188,17.4321 c -0.152,0 -0.296,-0.0184 -0.445,-0.0184 -0.138,0 -0.282,0.0184 -0.44,0.0108 -0.346,-0.4607 -0.644,-0.9524 -0.936,-1.4756 H 184.1 v 0.9594 c 0.004,0.3445 0.141,0.3416 0.35,0.3467 h 0.102 v 0.0197 0.1574 h -0.02 c -0.259,0 -0.521,-0.0184 -0.778,-0.0184 -0.216,0 -0.428,0.0184 -0.655,0.0184 h -0.02 V 17.4124 17.255 h 0.02 0.081 c 0.163,-10e-4 0.3,-0.0727 0.301,-0.227 v -2.3263 c -0.003,-0.3251 -0.161,-0.3232 -0.301,-0.328 h -0.101 v -0.0196 -0.1578 h 0.02 c 0.146,0 0.425,0.0181 0.701,0.0181 0.27,0 0.487,-0.0181 0.728,-0.0181 0.57,0.0013 1.095,0.1606 1.096,0.8254 0,0.4136 -0.27,0.6717 -0.619,0.8159 l 0.76,1.1517 c 0.127,0.1898 0.205,0.2371 0.425,0.2657 l 0.017,0.0025 v 0.0172 0.1574 z m -2.108,-1.5232 h 0.309 l 0.006,0.0102 c 0.294,0.526 0.591,1.02 0.924,1.4739 0.138,0 0.284,-0.0187 0.424,-0.0187 0.145,0 0.284,0.0159 0.425,0.0181 v -0.1003 c -0.212,-0.0267 -0.312,-0.0908 -0.435,-0.281 l -0.787,-1.1921 0.022,-0.0092 c 0.354,-0.1409 0.616,-0.3857 0.616,-0.7882 0,-0.6353 -0.488,-0.7825 -1.056,-0.7851 -0.239,0 -0.456,0.0181 -0.728,0.0181 -0.266,0 -0.534,-0.0168 -0.682,-0.0181 v 0.0972 h 0.062 c 0.14,3e-4 0.34,0.0238 0.34,0.3679 v 2.3263 c 0,0.1838 -0.17,0.2677 -0.34,0.268 h -0.062 v 0.0965 c 0.217,-7e-4 0.423,-0.0181 0.636,-0.0181 0.253,0 0.508,0.0174 0.758,0.0181 v -0.0965 h -0.062 c -0.206,-4e-4 -0.39,-0.0264 -0.39,-0.3876 v -0.9994 z m 0,-0.1257 h -0.02 v -1.4019 l 0.017,-0.0016 c 0.062,-0.0047 0.123,-0.0178 0.26,-0.0178 0.412,0 0.68,0.2711 0.681,0.6885 -0.002,0.5467 -0.261,0.7324 -0.717,0.7327 h -0.221 z m 0.221,-0.0394 c 0.448,-0.0038 0.673,-0.1612 0.678,-0.6933 -0.002,-0.4 -0.248,-0.6483 -0.642,-0.6499 -0.122,0 -0.18,0.0115 -0.237,0.0166 v 1.3266 z"
       fill="#bec5cd"
       id="path70" />
    <path
       d="m 189.258,16.5102 0.009,-0.0089 v -1.7168 c 0,-0.3759 -0.258,-0.4305 -0.393,-0.4305 h -0.099 v -0.1374 c 0.212,0 0.42,0.018 0.632,0.018 0.186,0 0.371,-0.018 0.557,-0.018 v 0.1374 h -0.068 c -0.19,0 -0.402,0.0365 -0.402,0.5813 v 2.0838 c 0,0.1601 0.004,0.32 0.026,0.462 h -0.171 l -2.329,-2.6283 v 1.8867 c 0,0.3984 0.077,0.5352 0.425,0.5352 h 0.077 v 0.1381 c -0.195,0 -0.389,-0.0181 -0.583,-0.0181 -0.205,0 -0.413,0.0181 -0.616,0.0181 v -0.1381 h 0.063 c 0.312,0 0.407,-0.2146 0.407,-0.5806 v -1.9286 c 0,-0.2562 -0.208,-0.4114 -0.411,-0.4114 h -0.059 v -0.1375 c 0.172,0 0.349,0.0181 0.52,0.0181 0.135,0 0.267,-0.0181 0.403,-0.0181 z"
       fill="#bec5cd"
       id="path71" />
    <path
       d="m 189.52,17.5007 -0.186,-0.0063 -2.295,-2.5899 v 1.8346 c 0.005,0.3985 0.065,0.5114 0.406,0.5159 h 0.096 v 0.0197 0.1575 h -0.02 c -0.196,0 -0.39,-0.0188 -0.583,-0.0188 -0.202,0 -0.411,0.0188 -0.615,0.0188 h -0.02 V 17.4128 17.255 h 0.02 0.063 c 0.298,-0.0013 0.384,-0.1959 0.387,-0.5622 v -1.9273 c 0,-0.2438 -0.198,-0.3918 -0.391,-0.3921 h -0.079 v -0.0193 -0.1578 h 0.02 c 0.173,0 0.35,0.0181 0.52,0.0181 0.133,0 0.264,-0.0181 0.416,-0.0118 l 1.988,2.2661 v -1.6845 c -0.001,-0.3638 -0.242,-0.4089 -0.373,-0.4108 h -0.12 v -0.0193 -0.1578 h 0.02 c 0.214,0 0.422,0.0181 0.633,0.0181 0.185,0 0.37,-0.0181 0.556,-0.0181 h 0.02 v 0.0206 0.1565 h -0.02 -0.067 c -0.186,0.0051 -0.379,0.0219 -0.383,0.5619 v 2.0835 c 0,0.16 0.004,0.3187 0.027,0.4597 l 0.002,0.0222 z m -0.171,-0.04 h 0.148 c -0.019,-0.1375 -0.024,-0.2898 -0.024,-0.4419 v -2.0835 c 0,-0.5496 0.229,-0.6003 0.423,-0.6019 h 0.048 v -0.0968 c -0.178,0.0012 -0.357,0.0178 -0.537,0.0178 -0.207,0 -0.409,-0.0166 -0.614,-0.0178 v 0.0968 h 0.081 c 0.139,0.0016 0.413,0.0632 0.413,0.4508 l -0.006,1.7308 -0.009,0.0095 -0.014,0.0146 -2.013,-2.3025 c -0.134,0 -0.265,0.0178 -0.402,0.0178 -0.167,0 -0.336,-0.0165 -0.501,-0.0178 v 0.0968 h 0.04 c 0.212,0.0016 0.43,0.1638 0.43,0.4321 v 1.9273 c 0,0.3676 -0.102,0.6016 -0.426,0.6028 l -0.044,-3e-4 v 0.0968 c 0.195,-9e-4 0.397,-0.0174 0.596,-0.0174 0.189,0 0.377,0.0165 0.564,0.0174 v -0.0965 h -0.057 c -0.356,-3e-4 -0.445,-0.158 -0.446,-0.5565 V 14.802 Z m -0.091,-0.9508 0.014,-0.013 z m -0.011,-0.0086 v -0.0016 l -0.003,-0.0034 z"
       fill="#bec5cd"
       id="path72" />
    <path
       d="m 190.692,16.7578 c -0.046,0.1552 -0.101,0.2752 -0.101,0.3568 0,0.1378 0.191,0.16 0.339,0.16 h 0.051 v 0.1381 c -0.182,-0.0099 -0.366,-0.0181 -0.549,-0.0181 -0.162,0 -0.324,0.0083 -0.487,0.0181 v -0.1381 h 0.027 c 0.176,0 0.326,-0.1051 0.393,-0.2978 l 0.724,-2.101 c 0.059,-0.1695 0.141,-0.3984 0.168,-0.5682 0.144,-0.0498 0.325,-0.1413 0.411,-0.1965 0.014,-0.0047 0.022,-0.0095 0.036,-0.0095 0.013,0 0.022,0 0.032,0.0142 0.013,0.0362 0.027,0.0778 0.041,0.1143 l 0.832,2.395 c 0.054,0.16 0.108,0.3292 0.167,0.4669 0.054,0.1283 0.15,0.1826 0.299,0.1826 h 0.027 v 0.1381 c -0.204,-0.0099 -0.408,-0.0181 -0.624,-0.0181 -0.222,0 -0.449,0.0083 -0.679,0.0181 v -0.1381 h 0.05 c 0.104,0 0.281,-0.0178 0.281,-0.1324 0,-0.0594 -0.041,-0.1829 -0.092,-0.3298 l -0.176,-0.5312 h -1.026 z m 0.659,-2.0286 h -0.009 l -0.42,1.2959 h 0.845 z"
       fill="#bec5cd"
       id="path73" />
    <path
       d="m 193.1,17.432 c -0.203,-0.0092 -0.407,-0.0188 -0.622,-0.0188 -0.222,0 -0.447,0.0096 -0.678,0.0188 l -0.021,0.0013 v -0.0207 -0.1584 h 0.02 0.05 c 0.105,0 0.26,-0.0241 0.26,-0.112 0.001,-0.0521 -0.039,-0.1778 -0.089,-0.3235 l -0.172,-0.5178 h -0.998 l -0.141,0.4625 c -0.045,0.1562 -0.1,0.2772 -0.099,0.3518 10e-4,0.1118 0.17,0.139 0.32,0.139 H 191 v 0.0207 0.1584 l -0.021,-0.0013 c -0.181,-0.0092 -0.365,-0.0188 -0.546,-0.0188 -0.162,0 -0.325,0.0096 -0.487,0.0188 l -0.021,0.0013 v -0.0207 -0.1584 h 0.02 0.027 c 0.168,-6e-4 0.309,-0.0974 0.374,-0.2837 l 0.724,-2.1013 c 0.059,-0.1699 0.141,-0.3981 0.18,-0.5807 0.142,-0.0485 0.323,-0.1406 0.411,-0.1965 0.012,-0.0041 0.025,-0.0104 0.043,-0.0104 0.011,-4e-4 0.036,0.0025 0.05,0.0267 0.013,0.0377 0.027,0.0784 0.041,0.1155 l 0.833,2.3947 c 0.053,0.1606 0.107,0.3298 0.166,0.465 0.053,0.1223 0.136,0.1702 0.281,0.1708 h 0.046 v 0.0206 0.1584 z m -1.281,-0.0409 c 0.224,-0.008 0.443,-0.0169 0.659,-0.0169 0.21,0 0.407,0.0089 0.603,0.0169 v -0.0956 h -0.006 c -0.155,9e-4 -0.262,-0.0606 -0.317,-0.1956 -0.059,-0.139 -0.115,-0.3088 -0.167,-0.4692 l -0.833,-2.3942 c -0.014,-0.0366 -0.027,-0.0781 -0.039,-0.1105 -0.004,-0.0045 -0.003,-0.0045 -0.007,-0.0045 h -0.008 c -0.009,0 -0.015,0.0029 -0.026,0.0061 -0.087,0.0574 -0.269,0.1473 -0.403,0.1831 -0.028,0.1734 -0.109,0.4019 -0.168,0.5715 l -0.724,2.1016 c -0.069,0.1987 -0.227,0.312 -0.411,0.3117 h -0.007 v 0.0956 c 0.154,-0.008 0.311,-0.0169 0.468,-0.0169 0.175,0 0.354,0.0089 0.526,0.0169 v -0.0956 h -0.029 c -0.147,-0.0019 -0.353,-0.0188 -0.358,-0.1803 0,-0.0915 0.056,-0.2086 0.1,-0.3632 l 0.019,0.006 -0.019,-0.0067 0.149,-0.4895 h 1.054 l 0.182,0.5442 c 0.051,0.147 0.092,0.2689 0.092,0.3362 -0.007,0.1406 -0.198,0.1504 -0.3,0.1533 h -0.03 z m -0.925,-1.3464 0.433,-1.3356 h 0.015 0.01 v 0.02 l -0.005,10e-4 0.005,-10e-4 v -0.02 h 0.013 l 0.43,1.3356 z m 0.054,-0.0397 h 0.792 l -0.394,-1.227 z m 0.384,-1.2701 0.01,-0.0035 z"
       fill="#bec5cd"
       id="path74" />
    <path
       d="m 193.301,14.445 c -0.34,0 -0.353,0.0826 -0.421,0.4165 h -0.136 c 0.018,-0.1279 0.041,-0.2559 0.055,-0.3892 0.018,-0.1283 0.026,-0.2559 0.026,-0.3886 h 0.109 c 0.036,0.1375 0.15,0.1327 0.271,0.1327 h 2.335 c 0.121,0 0.234,-0.0044 0.243,-0.1422 l 0.108,0.0184 c -0.017,0.1238 -0.035,0.2473 -0.048,0.3711 -0.01,0.1235 -0.01,0.2473 -0.01,0.3705 l -0.136,0.0511 c -0.008,-0.1692 -0.031,-0.4403 -0.334,-0.4403 h -0.742 v 2.4362 c 0,0.353 0.159,0.3933 0.375,0.3933 h 0.086 v 0.1381 c -0.176,0 -0.492,-0.0181 -0.737,-0.0181 -0.271,0 -0.588,0.0181 -0.764,0.0181 v -0.1381 h 0.086 c 0.249,0 0.376,-0.0225 0.376,-0.3838 V 14.445 Z"
       fill="#bec5cd"
       id="path75" />
    <path
       d="m 195.082,17.432 c -0.177,0 -0.494,-0.0184 -0.737,-0.0184 -0.27,0 -0.587,0.0184 -0.764,0.0184 h -0.02 v -0.0194 -0.1577 h 0.02 0.086 c 0.249,-0.0061 0.349,-0.0092 0.355,-0.3642 V 14.465 h -0.721 v -0.02 -0.0203 h 0.76 v 2.466 c 0,0.3673 -0.146,0.4035 -0.394,0.4045 H 193.6 v 0.0977 c 0.179,-0.0019 0.483,-0.0184 0.745,-0.0184 0.236,0 0.539,0.0166 0.718,0.0184 v -0.0977 h -0.067 c -0.218,-0.001 -0.394,-0.054 -0.394,-0.414 v -2.4565 h 0.761 c 0.304,0.0012 0.343,0.2625 0.352,0.4324 l 0.099,-0.0366 c 0,-0.1193 0,-0.239 0.009,-0.359 0.012,-0.1178 0.029,-0.2352 0.046,-0.3521 l -0.068,-0.0117 c -0.021,0.1333 -0.149,0.1406 -0.261,0.1387 h -2.335 -0.023 c -0.106,0.0013 -0.222,-0.0051 -0.263,-0.1337 h -0.074 c -0.001,0.127 -0.01,0.2502 -0.027,0.3721 -0.012,0.1261 -0.035,0.2473 -0.052,0.3677 h 0.097 c 0.06,-0.3191 0.099,-0.4226 0.438,-0.4178 v 0.0203 0.02 c -0.336,0.0057 -0.328,0.0632 -0.402,0.4016 l -0.004,0.0155 h -0.015 -0.159 l 0.003,-0.0229 c 0.019,-0.1291 0.041,-0.2568 0.054,-0.3892 0.019,-0.1279 0.028,-0.2549 0.028,-0.3863 v -0.02 h 0.019 0.124 l 0.003,0.0143 c 0.032,0.1155 0.115,0.1162 0.23,0.1181 l 0.023,6e-4 h 2.335 c 0.124,-0.0025 0.216,-0.0044 0.223,-0.1238 l 0.002,-0.0219 0.021,0.0045 0.128,0.0203 -0.003,0.02 c -0.019,0.1226 -0.036,0.2464 -0.05,0.3692 -0.009,0.1219 -0.009,0.2461 -0.009,0.3692 v 0.0143 l -0.013,0.0051 -0.16,0.059 -0.001,-0.0267 c -0.011,-0.172 -0.029,-0.4209 -0.315,-0.4209 h -0.722 v 2.4162 c 0.004,0.3454 0.14,0.3692 0.355,0.3736 h 0.106 v 0.0197 0.1575 z"
       fill="#bec5cd"
       id="path76" />
    <path
       d="m 196.059,17.2746 h 0.063 c 0.163,0 0.334,-0.0221 0.334,-0.2606 v -2.3987 c 0,-0.2388 -0.171,-0.2613 -0.334,-0.2613 h -0.063 v -0.1374 c 0.176,0 0.447,0.018 0.668,0.018 0.227,0 0.499,-0.018 0.711,-0.018 v 0.1374 h -0.063 c -0.163,0 -0.335,0.0226 -0.335,0.2613 v 2.3987 c 0,0.2385 0.172,0.2606 0.335,0.2606 h 0.063 v 0.1382 c -0.217,0 -0.489,-0.0181 -0.714,-0.0181 -0.222,0 -0.489,0.0181 -0.665,0.0181 z"
       fill="#bec5cd"
       id="path77" />
    <path
       d="m 197.438,17.432 c -0.218,0 -0.489,-0.0187 -0.714,-0.0187 -0.221,0 -0.489,0.0187 -0.665,0.0187 h -0.02 v -0.0193 -0.1381 -0.0197 h 0.02 0.063 c 0.164,-0.0026 0.313,-0.0169 0.314,-0.241 v -2.3987 c -0.001,-0.2235 -0.15,-0.2388 -0.314,-0.2419 h -0.083 v -0.0194 -0.1571 h 0.02 c 0.176,0 0.448,0.0174 0.668,0.0174 0.226,0 0.497,-0.0174 0.711,-0.0174 h 0.02 v 0.0196 0.1569 h -0.02 -0.063 c -0.165,0.0031 -0.314,0.0184 -0.316,0.2419 v 2.3987 c 0.002,0.2241 0.151,0.2384 0.316,0.241 h 0.083 v 0.0197 0.1574 z m -0.02,-0.04 v -0.0968 h -0.043 c -0.162,0 -0.354,-0.0289 -0.354,-0.2813 v -2.3987 c 0,-0.2531 0.192,-0.2816 0.354,-0.2816 h 0.043 v -0.0972 c -0.209,0.0013 -0.47,0.0178 -0.691,0.0178 -0.214,0 -0.473,-0.0165 -0.648,-0.0178 v 0.0972 h 0.043 c 0.161,0 0.354,0.0285 0.354,0.2816 v 2.3987 c 0,0.2524 -0.193,0.2813 -0.354,0.2813 h -0.043 v 0.0968 c 0.174,-0.0019 0.43,-0.0175 0.645,-0.0175 0.219,0 0.481,0.0166 0.694,0.0175 z"
       fill="#bec5cd"
       id="path78" />
    <path
       d="m 199.242,14.1479 c 0.964,0 1.732,0.6051 1.732,1.58 0,1.0534 -0.746,1.7534 -1.709,1.7534 -0.959,0 -1.691,-0.6594 -1.691,-1.6438 0,-0.9521 0.727,-1.6896 1.668,-1.6896 z m 0.068,3.1318 c 0.878,0 1.03,-0.7835 1.03,-1.4511 0,-0.6692 -0.356,-1.4794 -1.107,-1.4794 -0.791,0 -1.026,0.7143 -1.026,1.3273 0,0.8197 0.37,1.6032 1.103,1.6032 z"
       fill="#bec5cd"
       id="path79" />
    <path
       d="m 197.553,15.8375 c 0.002,-0.9632 0.739,-1.7083 1.689,-1.7096 v 0.02 0.0194 c -0.93,0 -1.649,0.7279 -1.65,1.6701 0.002,0.9734 0.724,1.6229 1.673,1.6232 0.954,-3e-4 1.689,-0.6905 1.691,-1.7336 -10e-4,-0.9626 -0.758,-1.5585 -1.714,-1.5597 v -0.0194 -0.02 c 0.971,7e-4 1.75,0.6118 1.752,1.5991 -0.001,1.0644 -0.757,1.7717 -1.729,1.7736 -0.967,-0.0019 -1.71,-0.6679 -1.711,-1.6632 h -0.001 z m 0.634,-0.161 c 10e-4,-0.6158 0.239,-1.3479 1.046,-1.3479 0.768,0.0019 1.126,0.8273 1.128,1.5 -0.002,0.6676 -0.157,1.4702 -1.051,1.4702 V 17.2797 17.26 c 0.86,-0.0012 1.009,-0.7638 1.012,-1.4314 0,-0.6638 -0.354,-1.4584 -1.089,-1.4594 -0.776,0.001 -1.005,0.6975 -1.007,1.3073 0.001,0.8156 0.368,1.5816 1.084,1.5835 v 0.0197 0.0191 c -0.75,-0.001 -1.122,-0.7978 -1.123,-1.6223 z"
       fill="#bec5cd"
       id="path80" />
    <path
       d="m 204.022,16.5102 0.009,-0.0089 v -1.7168 c 0,-0.3759 -0.258,-0.4305 -0.394,-0.4305 h -0.098 v -0.1374 c 0.212,0 0.42,0.018 0.632,0.018 0.186,0 0.372,-0.018 0.557,-0.018 v 0.1374 h -0.068 c -0.19,0 -0.403,0.0365 -0.403,0.5813 v 2.0838 c 0,0.1601 0.005,0.32 0.028,0.462 h -0.172 l -2.329,-2.6283 v 1.8867 c 0,0.3984 0.076,0.5352 0.424,0.5352 h 0.078 v 0.1381 c -0.195,0 -0.389,-0.0181 -0.584,-0.0181 -0.203,0 -0.412,0.0181 -0.615,0.0181 v -0.1381 h 0.063 c 0.313,0 0.407,-0.2146 0.407,-0.5806 v -1.9286 c 0,-0.2562 -0.207,-0.4114 -0.411,-0.4114 h -0.059 v -0.1375 c 0.172,0 0.348,0.0181 0.52,0.0181 0.135,0 0.266,-0.0181 0.402,-0.0181 z"
       fill="#bec5cd"
       id="path81" />
    <path
       d="m 204.285,17.5006 -0.187,-0.0067 -2.295,-2.5895 v 1.8349 c 0.005,0.3981 0.065,0.5108 0.404,0.5149 h 0.098 v 0.0207 0.1571 h -0.019 c -0.196,0 -0.391,-0.0184 -0.584,-0.0184 -0.203,0 -0.41,0.0184 -0.616,0.0184 h -0.019 v -0.0197 -0.1581 h 0.019 0.064 c 0.298,-9e-4 0.384,-0.1952 0.388,-0.5603 v -1.9286 c -0.001,-0.2438 -0.198,-0.3917 -0.393,-0.392 h -0.078 v -0.0194 -0.1571 h 0.019 c 0.174,0 0.35,0.0175 0.521,0.0175 0.134,0 0.264,-0.0175 0.417,-0.0108 l 1.987,2.2651 v -1.6839 c -0.001,-0.3644 -0.242,-0.4082 -0.374,-0.4114 h -0.119 V 14.354 14.1968 h 0.02 c 0.213,0 0.422,0.0175 0.632,0.0175 0.186,0 0.37,-0.0175 0.558,-0.0175 h 0.019 v 0.0197 0.1568 h -0.019 -0.068 c -0.186,0.0054 -0.379,0.0226 -0.383,0.5619 v 2.0835 c 0,0.16 0.004,0.3197 0.026,0.4597 l 0.003,0.0222 z m -0.172,-0.04 h 0.148 c -0.02,-0.1375 -0.023,-0.2899 -0.023,-0.4419 v -2.0835 c 0,-0.5505 0.228,-0.6004 0.422,-0.6019 h 0.049 v -0.0969 c -0.179,0.0013 -0.358,0.0178 -0.538,0.0178 -0.206,0 -0.409,-0.0165 -0.613,-0.0178 v 0.0969 h 0.079 c 0.14,0.0015 0.413,0.0641 0.413,0.4514 l -0.005,1.7301 -0.008,0.0096 -0.015,0.0146 -2.013,-2.3025 c -0.133,0 -0.265,0.0177 -0.402,0.0177 -0.167,0 -0.337,-0.0165 -0.501,-0.0177 v 0.0968 h 0.04 c 0.212,0.0016 0.431,0.1638 0.431,0.432 v 1.9286 c 0,0.3661 -0.101,0.6003 -0.427,0.6016 l -0.044,-3e-4 v 0.0968 c 0.196,-9e-4 0.397,-0.0174 0.596,-0.0174 0.189,0 0.376,0.0165 0.564,0.0174 v -0.0965 h -0.058 c -0.355,-3e-4 -0.444,-0.1581 -0.444,-0.5562 v -1.9381 z m -0.091,-0.9508 0.015,-0.0131 z m -0.011,-0.0086 v -0.0016 l -0.003,-0.0035 z"
       fill="#bec5cd"
       id="path82" />
    <path
       d="m 205.455,16.7578 c -0.044,0.1552 -0.099,0.2752 -0.099,0.3568 0,0.1378 0.19,0.16 0.339,0.16 h 0.05 v 0.1381 c -0.181,-0.0099 -0.367,-0.0181 -0.548,-0.0181 -0.163,0 -0.325,0.0083 -0.487,0.0181 v -0.1381 h 0.025 c 0.178,0 0.328,-0.1051 0.394,-0.2978 l 0.725,-2.101 c 0.058,-0.1695 0.14,-0.3984 0.166,-0.5682 0.145,-0.0498 0.326,-0.1413 0.413,-0.1965 0.013,-0.0047 0.022,-0.0095 0.036,-0.0095 0.013,0 0.021,0 0.031,0.0142 0.013,0.0362 0.028,0.0778 0.041,0.1143 l 0.832,2.395 c 0.054,0.16 0.108,0.3292 0.168,0.4669 0.054,0.1283 0.149,0.1826 0.298,0.1826 h 0.027 v 0.1381 c -0.203,-0.0099 -0.407,-0.0181 -0.624,-0.0181 -0.221,0 -0.448,0.0083 -0.679,0.0181 v -0.1381 h 0.051 c 0.103,0 0.28,-0.0178 0.28,-0.1324 0,-0.0594 -0.041,-0.1829 -0.091,-0.3298 l -0.176,-0.5312 H 205.6 Z m 0.661,-2.0286 h -0.009 l -0.421,1.2959 h 0.846 z"
       fill="#bec5cd"
       id="path83" />
    <path
       d="m 207.864,17.4321 c -0.203,-0.0083 -0.406,-0.0184 -0.622,-0.0184 -0.221,0 -0.447,0.0101 -0.678,0.0184 l -0.02,0.0012 v -0.0209 -0.1575 h 0.019 0.049 c 0.106,0 0.262,-0.0247 0.262,-0.1127 0.001,-0.0521 -0.04,-0.1768 -0.09,-0.3235 l -0.172,-0.5177 h -0.998 l -0.14,0.4625 c -0.045,0.1568 -0.099,0.2771 -0.098,0.3511 0,0.1124 0.169,0.1403 0.319,0.1403 h 0.069 v 0.0197 0.1587 l -0.021,-0.0012 c -0.181,-0.0083 -0.366,-0.0184 -0.546,-0.0184 -0.162,0 -0.324,0.0101 -0.487,0.0184 l -0.02,0.0012 v -0.0209 -0.1575 h 0.02 0.025 c 0.169,-6e-4 0.31,-0.0987 0.376,-0.2844 l 0.724,-2.1013 c 0.058,-0.1698 0.139,-0.3981 0.179,-0.58 0.142,-0.0498 0.324,-0.1412 0.412,-0.1972 0.012,-0.0041 0.024,-0.0095 0.043,-0.0095 0.011,-0.0012 0.035,0.0016 0.049,0.0267 0.014,0.0359 0.027,0.0774 0.042,0.1146 l 0.832,2.3946 c 0.053,0.1607 0.108,0.3299 0.166,0.4661 0.053,0.1212 0.136,0.1692 0.28,0.1704 h 0.047 v 0.0197 0.1587 z m -1.281,-0.0404 c 0.223,-0.0085 0.444,-0.0174 0.659,-0.0174 0.21,0 0.407,0.0089 0.604,0.0168 v -0.0956 h -0.008 c -0.153,4e-4 -0.26,-0.0606 -0.316,-0.1955 -0.06,-0.1391 -0.113,-0.3089 -0.167,-0.4686 l -0.833,-2.3949 c -0.013,-0.0365 -0.027,-0.0781 -0.038,-0.1092 -0.004,-0.0057 -0.004,-0.0057 -0.007,-0.0057 h -0.008 c -0.01,0 -0.015,0.0031 -0.026,0.0063 -0.088,0.0562 -0.269,0.1476 -0.403,0.1829 -0.028,0.1733 -0.11,0.4016 -0.169,0.5714 l -0.724,2.1016 c -0.068,0.1987 -0.227,0.3121 -0.412,0.3117 h -0.006 v 0.0956 c 0.155,-0.0079 0.311,-0.0168 0.468,-0.0168 0.176,0 0.354,0.0089 0.528,0.0168 v -0.0956 h -0.031 c -0.147,-0.0019 -0.353,-0.0181 -0.358,-0.1809 10e-4,-0.0908 0.057,-0.2073 0.1,-0.3626 l 0.019,0.006 -0.019,-0.0066 0.149,-0.4895 h 1.055 l 0.181,0.5441 c 0.05,0.1473 0.091,0.2689 0.091,0.3362 -0.006,0.1406 -0.196,0.1504 -0.3,0.1533 h -0.029 z m -0.924,-1.3472 0.434,-1.3353 h 0.013 0.01 v 0.02 l -0.005,9e-4 0.005,-9e-4 v -0.02 h 0.014 l 0.428,1.3353 z m 0.054,-0.0394 h 0.791 l -0.393,-1.2264 z m 0.384,-1.2702 0.009,-0.0035 z"
       fill="#bec5cd"
       id="path84" />
    <path
       d="m 209.006,16.9639 c 0,0.1832 0.126,0.2377 0.27,0.2565 0.186,0.0139 0.389,0.0139 0.598,-0.0092 0.19,-0.0232 0.353,-0.133 0.434,-0.2473 0.072,-0.101 0.113,-0.2293 0.14,-0.3299 h 0.131 c -0.05,0.261 -0.113,0.5181 -0.168,0.7787 -0.397,0 -0.795,-0.0181 -1.193,-0.0181 -0.399,0 -0.796,0.0181 -1.194,0.0181 v -0.1381 h 0.062 c 0.164,0 0.341,-0.0222 0.341,-0.3063 v -2.353 c 0,-0.2388 -0.177,-0.2613 -0.341,-0.2613 h -0.062 v -0.1374 c 0.239,0 0.475,0.018 0.714,0.018 0.231,0 0.457,-0.018 0.688,-0.018 v 0.1374 h -0.114 c -0.171,0 -0.306,0.0051 -0.306,0.247 z"
       fill="#bec5cd"
       id="path85" />
    <path
       d="m 210.411,17.432 c -0.398,0 -0.796,-0.0184 -1.193,-0.0184 -0.398,0 -0.796,0.0184 -1.195,0.0184 h -0.019 v -0.0197 -0.1575 h 0.019 0.063 c 0.164,-0.0038 0.319,-0.0152 0.321,-0.2866 v -2.354 c -0.002,-0.2225 -0.156,-0.2377 -0.321,-0.2409 h -0.082 v -0.0194 -0.1571 h 0.019 c 0.241,0 0.476,0.0174 0.715,0.0174 0.23,0 0.456,-0.0174 0.688,-0.0174 h 0.018 v 0.0197 0.1568 h -0.018 -0.114 c -0.175,0.005 -0.284,-0.0032 -0.288,0.2276 v 2.3629 c 0.002,0.1704 0.112,0.2165 0.253,0.2365 0.08,0.0057 0.164,0.0092 0.251,0.0092 0.111,0 0.226,-0.0054 0.343,-0.0181 0.184,-0.0219 0.343,-0.1295 0.421,-0.2387 0.069,-0.0978 0.109,-0.2235 0.136,-0.3235 l 0.004,-0.0152 h 0.015 0.156 l -0.004,0.0241 c -0.052,0.2619 -0.114,0.5178 -0.169,0.7784 l -0.003,0.0155 h -0.016 z m -0.016,-0.04 c 0.052,-0.2483 0.112,-0.4912 0.16,-0.7388 h -0.093 c -0.028,0.0997 -0.068,0.2226 -0.139,0.3226 -0.085,0.1187 -0.252,0.2304 -0.448,0.2549 -0.119,0.0124 -0.236,0.0187 -0.347,0.0187 -0.087,0 -0.172,-0.0041 -0.254,-0.0099 -0.147,-0.0165 -0.29,-0.08 -0.289,-0.2758 v -2.3629 c 0,-0.2542 0.159,-0.2673 0.327,-0.2673 h 0.094 v -0.0971 c -0.223,0.0013 -0.443,0.0181 -0.668,0.0181 -0.234,0 -0.463,-0.0168 -0.695,-0.0181 v 0.0971 h 0.043 c 0.162,0 0.359,0.0286 0.359,0.2807 v 2.3539 c 0,0.2962 -0.196,0.327 -0.359,0.327 h -0.043 v 0.0969 c 0.391,-4e-4 0.782,-0.0175 1.175,-0.0175 0.393,0 0.786,0.0171 1.177,0.0175 z"
       fill="#bec5cd"
       id="path86" />
    <path
       d="m 210.524,14.0864 c 0.273,0 0.476,0.2121 0.476,0.4838 0,0.2705 -0.203,0.4807 -0.476,0.4807 -0.273,0 -0.476,-0.2102 -0.476,-0.4807 0,-0.2717 0.203,-0.4838 0.476,-0.4838 z m 0,0.8746 c 0.213,0 0.377,-0.1841 0.377,-0.3908 0,-0.2079 -0.162,-0.3936 -0.377,-0.3936 -0.214,0 -0.378,0.1857 -0.378,0.3936 0,0.2067 0.164,0.3908 0.378,0.3908 z m -0.237,-0.1368 v -0.0238 c 0.059,-0.0083 0.069,-0.0064 0.069,-0.0432 v -0.3568 c 0,-0.0501 -0.005,-0.0673 -0.067,-0.0648 v -0.0244 h 0.244 c 0.084,0 0.161,0.0403 0.161,0.1279 0,0.0718 -0.047,0.1248 -0.113,0.1454 l 0.078,0.1105 c 0.037,0.0501 0.078,0.0971 0.105,0.1136 v 0.0156 h -0.093 c -0.044,0 -0.083,-0.0949 -0.171,-0.2222 h -0.053 v 0.1603 c 0,0.0317 0.011,0.0298 0.07,0.0381 v 0.0238 z m 0.16,-0.254 h 0.057 c 0.061,0 0.09,-0.0473 0.09,-0.1231 0,-0.0769 -0.045,-0.1039 -0.094,-0.1039 h -0.053 z"
       fill="#bec5cd"
       id="path87" />
  </g>
  <defs
     id="defs93">
    <clipPath
       id="clip0_8014_2014">
      <rect
         width="61"
         height="24"
         fill="#ffffff"
         transform="translate(150)"
         id="rect93"
         x="0"
         y="0" />
    </clipPath>
  </defs>
</svg>
