<svg width="40" height="24" viewBox="0 0 40 24" fill="none" xmlns="http://www.w3.org/2000/svg">
<path d="M10.8936 22.9517V21.4917C10.8936 20.9332 10.5694 20.5674 10.0127 20.5674C9.73441 20.5674 9.43177 20.6638 9.22371 20.9814C9.06158 20.7149 8.82919 20.5674 8.48061 20.5674C8.24823 20.5674 8.01584 20.6411 7.83209 20.9076V20.6156H7.3457V22.9517H7.83209V21.6618C7.83209 21.2478 8.04016 21.0522 8.36442 21.0522C8.68868 21.0522 8.85081 21.2705 8.85081 21.6618V22.9517H9.3372V21.6618C9.3372 21.2478 9.56958 21.0522 9.86952 21.0522C10.1938 21.0522 10.3559 21.2705 10.3559 21.6618V22.9517H10.8936ZM18.1084 20.6156H17.3194V19.9097H16.833V20.6156H16.3925V21.0777H16.833V22.1494C16.833 22.6852 17.0411 22.9999 17.5977 22.9999C17.8058 22.9999 18.0382 22.9262 18.2003 22.8298L18.0598 22.3904C17.9193 22.4868 17.7571 22.5123 17.6409 22.5123C17.4086 22.5123 17.3167 22.3649 17.3167 22.1239V21.0777H18.1057V20.6156H18.1084ZM22.2373 20.5646C21.959 20.5646 21.7725 20.712 21.6564 20.9048V20.6128H21.17V22.9489H21.6564V21.6334C21.6564 21.245 21.8185 21.0239 22.1211 21.0239C22.213 21.0239 22.3292 21.0494 22.4238 21.0721L22.5643 20.5844C22.467 20.5646 22.3292 20.5646 22.2373 20.5646ZM15.998 20.8084C15.7656 20.6383 15.4414 20.5646 15.0928 20.5646C14.5362 20.5646 14.166 20.8566 14.166 21.3187C14.166 21.7071 14.4443 21.9283 14.9307 21.9991L15.1631 22.0247C15.4171 22.0728 15.5576 22.1466 15.5576 22.2685C15.5576 22.4386 15.3711 22.5605 15.0469 22.5605C14.7226 22.5605 14.4659 22.4386 14.3038 22.3167L14.0714 22.7051C14.3254 22.9007 14.674 22.9971 15.0225 22.9971C15.6711 22.9971 16.044 22.6796 16.044 22.243C16.044 21.829 15.7413 21.6107 15.2793 21.537L15.0469 21.5115C14.8388 21.486 14.6767 21.4378 14.6767 21.2932C14.6767 21.1231 14.8388 21.0267 15.0955 21.0267C15.3738 21.0267 15.6521 21.1486 15.7927 21.2223L15.998 20.8084ZM28.9387 20.5646C28.6604 20.5646 28.4739 20.712 28.3577 20.9048V20.6128H27.8713V22.9489H28.3577V21.6334C28.3577 21.245 28.5198 21.0239 28.8225 21.0239C28.9144 21.0239 29.0306 21.0494 29.1251 21.0721L29.2656 20.5901C29.1711 20.5646 29.0333 20.5646 28.9387 20.5646ZM22.7237 21.7837C22.7237 22.4896 23.1885 22.9999 23.9073 22.9999C24.2315 22.9999 24.4639 22.9262 24.6963 22.7334L24.4639 22.3195C24.2774 22.4669 24.0937 22.5378 23.8829 22.5378C23.4884 22.5378 23.2101 22.2458 23.2101 21.7837C23.2101 21.3442 23.4884 21.0522 23.8829 21.0296C24.091 21.0296 24.2774 21.1033 24.4639 21.2479L24.6963 20.8339C24.4639 20.6383 24.2315 20.5674 23.9073 20.5674C23.1885 20.5646 22.7237 21.0777 22.7237 21.7837ZM27.2228 21.7837V20.6156H26.7364V20.9076C26.5743 20.6893 26.3419 20.5674 26.0393 20.5674C25.4124 20.5674 24.926 21.0777 24.926 21.7837C24.926 22.4896 25.4124 22.9999 26.0393 22.9999C26.3635 22.9999 26.5959 22.878 26.7364 22.6597V22.9517H27.2228V21.7837ZM25.4367 21.7837C25.4367 21.3698 25.6907 21.0296 26.1095 21.0296C26.504 21.0296 26.7824 21.3471 26.7824 21.7837C26.7824 22.1976 26.504 22.5378 26.1095 22.5378C25.6934 22.5123 25.4367 22.1948 25.4367 21.7837ZM19.6162 20.5646C18.9677 20.5646 18.5029 21.0522 18.5029 21.7808C18.5029 22.5123 18.9677 22.9971 19.6405 22.9971C19.9648 22.9971 20.2891 22.9007 20.5458 22.6796L20.3134 22.3138C20.1269 22.4613 19.8945 22.5576 19.6649 22.5576C19.3622 22.5576 19.0623 22.4102 18.992 21.9991H20.6376C20.6376 21.9254 20.6376 21.8772 20.6376 21.8035C20.6593 21.0522 20.2404 20.5646 19.6162 20.5646ZM19.6162 21.004C19.9189 21.004 20.1269 21.1997 20.1729 21.5625H19.0136C19.0596 21.2478 19.2676 21.004 19.6162 21.004ZM31.7003 21.7837V19.6914H31.2139V20.9076C31.0518 20.6893 30.8194 20.5674 30.5167 20.5674C29.8898 20.5674 29.4035 21.0777 29.4035 21.7837C29.4035 22.4896 29.8898 22.9999 30.5167 22.9999C30.841 22.9999 31.0734 22.878 31.2139 22.6597V22.9517H31.7003V21.7837ZM29.9142 21.7837C29.9142 21.3698 30.1682 21.0296 30.587 21.0296C30.9815 21.0296 31.2598 21.3471 31.2598 21.7837C31.2598 22.1976 30.9815 22.5378 30.587 22.5378C30.1682 22.5123 29.9142 22.1948 29.9142 21.7837ZM13.6309 21.7837V20.6156H13.1445V20.9076C12.9824 20.6893 12.75 20.5674 12.4474 20.5674C11.8205 20.5674 11.3341 21.0777 11.3341 21.7837C11.3341 22.4896 11.8205 22.9999 12.4474 22.9999C12.7716 22.9999 13.004 22.878 13.1445 22.6597V22.9517H13.6309V21.7837ZM11.8232 21.7837C11.8232 21.3698 12.0772 21.0296 12.496 21.0296C12.8905 21.0296 13.1689 21.3471 13.1689 21.7837C13.1689 22.1976 12.8905 22.5378 12.496 22.5378C12.0772 22.5123 11.8232 22.1948 11.8232 21.7837Z" fill="#272E36"/>
<path d="M23.1426 2.87402H15.8359V16.6467H23.1426V2.87402Z" fill="#FF5A00"/>
<path d="M16.3223 9.76031C16.3223 6.96211 17.5761 4.47861 19.5 2.87397C18.0841 1.70593 16.2979 1 14.3497 1C9.73439 1 6 4.91804 6 9.76031C6 14.6026 9.73439 18.5206 14.3497 18.5206C16.2979 18.5206 18.0841 17.8147 19.5 16.6467C17.5734 15.0647 16.3223 12.5585 16.3223 9.76031Z" fill="#EB001B"/>
<path d="M33 9.76031C33 14.6026 29.2656 18.5206 24.6503 18.5206C22.7021 18.5206 20.9159 17.8147 19.5 16.6467C21.4483 15.0392 22.6777 12.5585 22.6777 9.76031C22.6777 6.96211 21.4239 4.47861 19.5 2.87397C20.9132 1.70593 22.6994 1 24.6476 1C29.2656 1 33 4.94356 33 9.76031Z" fill="#F79E1B"/>
</svg>
